<svg version="1.2" xmlns="http://www.w3.org/2000/svg" viewBox="0 0 98 99" width="98" height="99"><style>.a{fill:#47b2e4}</style><path fill-rule="evenodd" class="a" d="m97.8 89.8c0 1.2-0.4 1.9-1.3 2.4q-5.3 3-10.4 6c-0.9 0.5-1.7 0.5-2.6 0q-5.2-3.1-10.5-6c-0.9-0.5-1.3-1.3-1.3-2.3 0.1-1 0-2.1 0.1-3.2 0-0.8-0.2-1.1-1.1-1.1-14 0-28 0-42 0-0.8 0-1.9-0.4-2.4 0.2-0.4 0.4-0.1 1.4-0.1 2.2 0 3.9 0.5 3.2-2.9 5.1-2.9 1.7-5.9 3.4-8.8 5.1-0.9 0.5-1.7 0.5-2.6 0q-5.2-3.1-10.4-6c-0.9-0.5-1.3-1.2-1.3-2.2q0-6 0-12c0-1.1 0.4-1.7 1.3-2.2 3.1-1.8 6.2-3.6 9.4-5.4 0.5-0.3 0.7-0.6 0.7-1.2q0-19.5 0-38.9c0-0.6-0.2-1-0.8-1.3-3.1-1.7-6.2-3.5-9.3-5.3-1-0.5-1.3-1.2-1.3-2.3q0-5.9 0-11.9c0-1 0.3-1.7 1.2-2.2q5.3-3 10.6-6c0.8-0.5 1.5-0.6 2.4-0.1q5.3 3.1 10.7 6.2c0.8 0.4 1.2 1.1 1.1 2 0 1.1 0.1 2.3 0 3.4-0.1 0.8 0.1 1.1 1 1.1 7.3 0 14.6 0 21.9 0q10.9 0 21.7 0c0.8 0 1-0.1 1-0.9-0.1-1.3 0-2.5 0-3.8q0-0.3 0-0.5 0.1-0.3 0.2-0.5 0.1-0.3 0.3-0.4 0.2-0.2 0.5-0.3 5.5-3.2 11-6.3 0.2-0.2 0.5-0.3 0.2 0 0.5 0 0.2 0 0.5 0 0.3 0.1 0.5 0.2 5.5 3.2 11 6.3c0.7 0.4 1 1.1 1 1.9q0 6.2 0 12.4c0 0.9-0.4 1.5-1.2 2-3.2 1.8-6.3 3.6-9.5 5.4-0.5 0.3-0.7 0.6-0.7 1.2q0 19.4 0 38.9c0 0.6 0.2 0.9 0.8 1.2 3.1 1.8 6.1 3.5 9.2 5.3 1 0.5 1.4 1.3 1.4 2.4q0 5.9 0 11.7zm-12.6-16.8q-0.1-0.1-0.2-0.1-0.1 0-0.2 0-0.1 0-0.1 0-0.1 0-0.2 0.1c-2.6 1.4-5.1 2.9-7.8 4.4 2.7 1.6 5.2 3 7.7 4.5 0.4 0.2 0.6 0.1 0.9-0.1 2.5-1.4 4.9-2.8 7.6-4.3zm-8.3-63.9q3.8 2.1 7.5 4.2c0.3 0.2 0.5 0.3 0.8 0.1 2.6-1.5 5.1-2.9 7.8-4.5-2.7-1.5-5.1-2.9-7.6-4.3-0.4-0.3-0.7-0.2-1.2 0-2.2 1.4-4.5 2.7-6.8 4-0.2 0.1-0.5 0.1-0.5 0.5zm-1.8 11.4q0 0.1 0 0.2 0 0.2 0.1 0.3 0.1 0.1 0.2 0.2 0.1 0.1 0.2 0.1 4.3 2.5 8.7 5c0.4 0.2 0.7 0.3 1.1 0q4.3-2.5 8.7-5c0.2-0.1 0.5-0.2 0.5-0.6 0-2.9 0-5.9 0-8.9-2.9 1.6-5.7 3.2-8.4 4.8-0.9 0.5-1.7 0.6-2.6 0-2.4-1.4-4.8-2.7-7.2-4.1-0.4-0.2-0.8-0.5-1.3-0.7 0 3 0 5.8 0 8.7zm-69.9-11.6c2.6 1.6 5.1 3 7.7 4.4q0 0.1 0.1 0.1 0.2 0.1 0.3 0.1 0.1 0 0.2 0 0.1-0.1 0.2-0.1c2.5-1.5 5-2.9 7.7-4.5-2.7-1.5-5.2-2.9-7.7-4.4-0.4-0.2-0.7-0.1-1 0.1q-2 1.2-4 2.3c-1.1 0.6-2.3 1.3-3.5 2zm7.6 17.5q0.1 0 0.2 0.1 0.2 0 0.3 0 0.1 0 0.3 0 0.1-0.1 0.2-0.2 4.3-2.5 8.7-5c0.3-0.1 0.5-0.3 0.5-0.7 0-2.9 0-5.8 0-8.8-2.8 1.6-5.6 3.1-8.3 4.8-1 0.5-1.8 0.6-2.8 0-2.7-1.7-5.5-3.2-8.4-4.9 0 3 0 5.9 0 8.7q0 0.2 0 0.3 0 0.1 0.1 0.3 0.1 0.1 0.2 0.2 0.1 0.1 0.2 0.1 4.4 2.5 8.8 5.1zm-7.7 51c2.7 1.5 5.2 2.9 7.7 4.4 0.4 0.2 0.7 0.1 1.1-0.1q3.4-1.9 6.7-3.9c0.3-0.1 0.6-0.1 0.6-0.5q-3.7-2.1-7.4-4.3c-0.3-0.1-0.5-0.3-0.9-0.1-2.5 1.5-5 3-7.8 4.5zm18 10.8c-0.1-0.8-0.1-1.7-0.1-2.5v-5.5c-2.8 1.7-5.6 3.2-8.3 4.8-1 0.6-1.8 0.6-2.9 0-2.7-1.6-5.4-3.1-8.3-4.8 0 3.1 0 6 0 8.9 0 0.5 0.3 0.6 0.6 0.7q4.3 2.5 8.5 4.9c0.5 0.3 0.9 0.3 1.4 0 2.6-1.6 5.3-3.1 8-4.5 0.8-0.5 1.2-1 1.1-2zm48.7-10c-0.1-1.3 0.5-2 1.7-2.7 3-1.6 5.9-3.4 9-5.1 0.5-0.3 0.8-0.6 0.8-1.3q-0.1-19.4 0-38.8c0-0.7-0.3-1-0.8-1.3-3.2-1.8-6.3-3.6-9.4-5.3-0.9-0.6-1.3-1.2-1.3-2.3 0.1-1 0-2.1 0.1-3.1 0.1-1-0.2-1.2-1.2-1.2-7.2 0-14.4 0-21.5 0-7.3 0-14.6 0-21.9 0-0.9 0-1.1 0.2-1 1 0.1 1.1-0.1 2.1 0 3.2 0.1 1.2-0.4 1.9-1.5 2.5-3 1.7-6.1 3.5-9.1 5.2-0.6 0.3-0.8 0.7-0.8 1.3q0 19.4 0 38.7c0 0.7 0.2 1.1 0.8 1.4 3 1.7 6 3.5 9 5.1 1.1 0.6 1.7 1.4 1.6 2.7-0.1 1 0 2 0 2.9-0.1 0.9 0.1 1.2 1.1 1.2 8.8 0 17.5 0 26.3 0 5.7 0 11.4 0 17.1 0 0.9 0 1.1-0.3 1.1-1.1-0.1-1 0-2-0.1-3zm22.3 11.6c0.3-0.1 0.5-0.2 0.5-0.7 0-2.9 0-5.8 0-8.9-2.9 1.7-5.7 3.2-8.4 4.9-0.9 0.5-1.7 0.5-2.6 0-2.8-1.7-5.6-3.2-8.5-4.9 0 3 0 5.9 0 8.7q0 0.1 0 0.3 0 0.1 0.1 0.2 0.1 0.2 0.2 0.2 0.1 0.1 0.2 0.2 4.4 2.4 8.7 5c0.4 0.2 0.7 0.2 1.1 0q4.3-2.5 8.7-5z"/><path class="a" d="m32.7 10.1q0-2.7 0-5.4c0-0.5 0.1-0.6 0.6-0.6q2.7 0 5.4 0c0.4 0 0.5 0.1 0.5 0.6q0 2.7 0 5.4c0 0.4-0.1 0.5-0.5 0.5-0.9 0-1.9 0-2.8 0-0.9 0-1.7 0-2.6 0-0.5 0-0.6-0.1-0.6-0.5z"/><path class="a" d="m63.7 94.7c0 0.6-0.2 0.7-0.7 0.7q-2.6-0.1-5.2 0c-0.6 0-0.7-0.2-0.7-0.7 0.1-0.9 0-1.8 0-2.7 0-0.8 0.1-1.7 0-2.5 0-0.6 0.2-0.7 0.7-0.7q2.6 0.1 5.2 0c0.6 0 0.6 0.2 0.6 0.7q0 2.6 0.1 5.2z"/><path class="a" d="m75 49.8q0 5.5 0 11 0 5.1-4.4 7.5-2.2 1.2-4.3 2.4c-1.1 0.6-2.1 0.3-2.5-0.5-0.5-0.9-0.1-1.7 1-2.4q2.1-1.2 4.3-2.4 2.7-1.6 2.7-4.7 0-11 0-21.9 0-3.1-2.7-4.7-8.8-4.8-17.6-9.7c-1.7-1-3.4-0.9-5.1 0q-8.7 4.9-17.5 9.7-2.7 1.5-2.7 4.6 0 11 0 22 0 3.1 2.7 4.6 8.8 5 17.6 9.9c1.7 0.9 3.4 0.8 5.1-0.1 2.2-1.2 4.4-2.4 6.6-3.6 0.7-0.4 1.3-0.5 2 0 0.8 0.6 0.9 2 0 2.5-3.1 1.7-6.1 3.9-9.6 4.9-1.9 0.5-3.8 0.1-5.5-0.8-6-3.3-11.9-6.6-17.9-10-2.8-1.5-4.2-4-4.2-7.2q-0.1-11.2 0-22.3c0-3.2 1.4-5.7 4.2-7.2q9-5.1 18.1-10c2.4-1.4 5-1.4 7.4-0.1q9.3 5 18.4 10.2c2.6 1.5 3.9 4 3.9 7 0.1 3.7 0 7.5 0 11.3z"/><path class="a" d="m32.7 48.1c0 2.8 0 5.3 0 7.8 0 0.6 0 1.1-0.4 1.5-0.5 0.4-1.1 0.6-1.7 0.4-0.8-0.3-1.1-0.9-1.1-1.8q0-5.8 0-11.7 0-0.4 0-0.8c-0.1-0.9 0.3-1.5 1.1-1.8 0.8-0.3 1.4 0.1 1.9 0.7q1.9 2.5 3.7 4.9c1 1.3 1.9 2.5 3 4.1v-1.9q0-3 0-6c0-1.2 0.7-1.9 1.7-1.9 0.9 0 1.6 0.7 1.6 1.8q0 6.3 0 12.6c0 0.8-0.3 1.5-1.1 1.8-0.9 0.3-1.5-0.2-2-0.8-2.2-2.9-4.3-5.8-6.7-8.9z"/><path class="a" d="m49 45.6c0 2.5-0.1 2.5 2.4 2.5 0.8 0 1.6 0 2.4 0 1 0 1.7 0.7 1.7 1.6 0 1-0.7 1.6-1.7 1.6q-2.1 0.1-4.1 0c-0.5 0-0.7 0.2-0.7 0.8 0 1.3 0 2.5 0 3.8 0 1.2-0.6 2-1.6 2-1 0-1.7-0.7-1.7-1.9q0-3.1 0-6.2 0-3.1 0-6.2c0.1-1.4 0.6-2 2-2q3 0 5.9 0c1.2 0 1.9 0.6 1.9 1.6 0 1-0.7 1.6-1.8 1.6q-2 0.1-3.9 0c-0.6 0-0.8 0.1-0.8 0.8z"/><path class="a" d="m63.6 57.9c-1 0-1.6-0.8-1.6-2.1q0-2.5 0-5.1c0-1.6 0-3.3 0-5 0-0.7-0.1-0.9-0.8-0.9-1.7 0.1-2.4-0.5-2.4-1.6-0.1-1.1 0.7-1.6 2.5-1.6q2.7 0 5.3 0c1.2 0 1.9 0.7 1.9 1.7 0 0.9-0.7 1.5-1.8 1.5-1.4 0.1-1.4 0.1-1.4 1.5q0 4.8 0 9.6c0 1.2-0.7 2-1.7 2z"/></svg>