<svg version="1.2" xmlns="http://www.w3.org/2000/svg" viewBox="0 0 98 90" width="98" height="90"><style>.a{fill:#47b2e4}</style><path fill-rule="evenodd" class="a" d="m96.4 76.4q0.3 0.1 0.6 0.2 0.2 0.1 0.4 0.3 0.3 0.2 0.4 0.5v6.4c-0.8 3.6-3.1 5.4-6.8 5.5-4.9 0-9.8 0-14.7 0q-0.2 0-0.4 0-0.2 0-0.3-0.1-0.2 0-0.4 0-0.2-0.1-0.3-0.1c-0.8-0.3-1.2-0.9-1.1-1.7q0-0.2 0.1-0.5 0.1-0.2 0.3-0.4 0.2-0.3 0.4-0.4 0.2-0.1 0.5-0.2 0.2 0 0.3-0.1 0.2 0 0.4 0 0.1 0 0.3 0 0.2 0 0.3 0h13.9c0.7 0 1.4 0 2-0.2 1.2-0.4 2-1.2 2.2-2.4 0.3-1 0.2-2 0.1-3 0-0.4-0.2-0.6-0.6-0.6q-0.5 0-1 0h-88.1q-0.4 0-0.8 0c-0.4 0-0.7 0.2-0.7 0.7-0.1 0.9-0.1 1.9 0 2.8 0.3 1.3 1.1 2.1 2.4 2.5 0.7 0.3 1.5 0.2 2.2 0.2h59.4q0.2 0 0.4 0 0.2 0 0.4 0 0.1 0 0.3 0 0.2 0.1 0.4 0.1 0.3 0 0.5 0.1 0.3 0.2 0.5 0.4 0.2 0.1 0.3 0.4 0.1 0.2 0.1 0.5c0.1 0.8-0.2 1.4-0.9 1.7-0.6 0.3-1.3 0.3-1.9 0.3h-60.1c-2.4 0-4.5-0.7-6.1-2.7-0.7-0.8-0.9-1.8-1.1-2.8v-6.4c0.5-0.8 1.3-1 2.2-1 0.9 0 2.1 0.5 2.6-0.1 0.5-0.5 0.2-1.7 0.2-2.6q0-26.6 0-53.1c0-2.9 1.6-5.1 4.3-5.6q0.2 0 0.3 0 0.2 0 0.4 0 0.2-0.1 0.4-0.1 0.1 0 0.3 0c7.6 0 16.3 0 23.9 0-0.7-2.3-0.2-4.3 1.8-5.7q0.6-0.4 1.2-0.6 0.7-0.2 1.4-0.2 0.7 0 1.4 0.2 0.6 0.2 1.2 0.6c2 1.4 2.5 3.4 1.8 5.7 1.2 0 2.3 0 3.5 0 0.4 0 0.5-0.1 0.5-0.4q-0.1-2.1 0-4.1c0-0.6-0.4-0.6-0.7-0.8-1.9-1-2.8-2.9-2.6-4.8 0.4-2.1 1.8-3.6 3.8-4q0.8-0.2 1.7 0 0.8 0.1 1.5 0.5 0.7 0.4 1.3 1 0.5 0.7 0.8 1.4 0.3 0.8 0.3 1.7 0 0.8-0.3 1.6-0.3 0.8-0.8 1.4-0.6 0.6-1.3 1c-0.7 0.4-0.9 0.8-0.9 1.6 0.1 1.1 0 2.2 0 3.4 0 0.4 0.1 0.5 0.6 0.5q1.7 0 3.4 0c-0.7-2.4-0.2-4.5 2-5.8 1.7-1.1 3.5-1 5.1 0.2 2 1.3 2.4 3.3 1.7 5.6 0.9 0 7.2 0 8.1 0 1.1 0 1.8 0.5 1.8 1.4 0 1-0.7 1.5-1.8 1.5-3.4 0-6.8 0-10.2 0-0.7-0.1-0.9 0.2-0.9 0.9 0.1 2 0.1 2 2.1 2q11.3 0 22.7 0c1.6 0 2 0.4 2 2q0 24.4 0 48.8c0 1.6-0.4 2-2 2h-60.7q0 0.1-0.1 0.1-0.1 0-0.2 0-0.1-0.1-0.2-0.1-0.1 0-0.2 0c-0.8-0.1-1.3-0.7-1.2-1.4 0-0.8 0.5-1.3 1.3-1.4 0.3 0 0.6 0 0.9 0q29.3 0 58.5 0c0.8 0 1.1-0.2 1.1-1.1q-0.1-8.6 0-17.3c0-0.6-0.1-0.8-0.8-0.6-2.2 0.5-4.2-0.5-5.3-2.5-0.2-0.5-0.5-0.7-1-0.7q-6.2 0.1-12.4 0c-0.6 0-0.7 0.2-0.8 0.9-0.4 2.2 0.3 3.8 2.3 4.9 0.7 0.4 1.1 1.2 2.1 1.2 1.1 0 1.9-0.1 2.5-1.2 1-1.9 3.4-2.5 5.4-1.8 0.9 0.3 1.8 1 2.3 1.8 0.6 0.8 0.9 1.9 0.8 2.9 0 1-0.4 2-1.1 2.7-0.6 0.8-1.5 1.4-2.5 1.6-2 0.5-4.1-0.4-5.1-2.2-0.4-0.8-0.9-1.1-1.7-1q-2.5 0.4-4.1-1.5-0.1-0.1-0.2-0.1-0.1-0.1-0.2-0.2-0.1-0.1-0.2-0.2-0.1 0-0.3-0.1 0 0.2 0 0.4 0 0.2 0 0.4 0 0.2 0 0.4-0.1 0.2-0.1 0.4-0.1 0.8-0.6 1.6-0.4 0.8-1.1 1.4-0.7 0.5-1.5 0.8-0.9 0.3-1.8 0.4-9.8 0-19.6 0c-2.9-0.1-5-2.3-5.1-5.1 0-0.2 0-0.4 0-0.7-0.6 0.5-1.2 0.8-1.6 1.3q-0.3 0.2-0.5 0.4-0.3 0.2-0.6 0.3-0.3 0.1-0.7 0.2-0.3 0-0.6-0.1c-0.3 0-0.7 0.1-1 0-0.8-0.1-1.3 0.2-1.7 1-1 1.9-3.2 2.7-5.3 2.2-0.9-0.3-1.8-0.9-2.4-1.7-0.7-0.8-1-1.8-1-2.9 0-1 0.3-2 1-2.8 0.6-0.8 1.4-1.4 2.4-1.7 2.1-0.6 4.2 0.3 5.4 2.2 0.1 0.3 0.1 0.9 0.7 0.9 0.8-0.1 1.7 0.3 2.5-0.3q1.5-1.2 3-2.4 0.1-0.1 0.2-0.2 0-0.1 0.1-0.2 0.1-0.1 0.1-0.3 0-0.1 0-0.2 0-1.3 0-2.7c0-0.5-0.1-0.6-0.6-0.6q-6.4 0-12.8 0c-0.3 0-0.5 0-0.7 0.3-1.7 2.7-3.1 3.3-6.1 2.6-0.1 0.3-0.1 0.6-0.1 0.9 0 5.8 0 11.6 0 17.4 0 0.8 0.2 1 1 0.9q0.2 0 0.5 0 0.3 0 0.6 0 0.3 0 0.6 0 0.3 0 0.5 0c0.9 0 1.5 0.6 1.5 1.4 0 0.8-0.6 1.4-1.5 1.5q-2.3 0-4.5 0c-0.9-0.1-1.4-0.6-1.5-1.5q0-0.4 0-0.8 0-24.1 0-48.3c0-2 0.3-2.3 2.3-2.3q11.7 0 23.5 0c0.7 0 1-0.1 1-0.9-0.1-2 0-2-2.1-2h-24.6c-2.2 0-3.1 0.8-3.1 3q0.1 27.3 0 54.7c0 0.8 0.2 1 1 1q40-0.1 80 0c0.8 0 1-0.2 1-1q0-27.3 0-54.7c0-2.2-0.9-3-3.1-3q-4.1 0-8.2 0c-1.1 0-1.7-0.5-1.7-1.4 0-0.9 0.6-1.5 1.7-1.5q4.4 0 8.8 0c3 0.1 5.2 2.2 5.3 5.2q0 0.5 0 1 0.1 27.1 0 54.3c0 0.9 0.3 1.2 1.1 1.1 0.6-0.1 1.3 0 1.9-0.1q0.3 0 0.6 0zm-73.1-17.7q0.4 0.1 0.7-0.1 0.4-0.1 0.6-0.3 0.3-0.3 0.4-0.6 0.2-0.3 0.2-0.7 0-0.4-0.1-0.7-0.1-0.4-0.4-0.6-0.2-0.3-0.6-0.4-0.3-0.2-0.7-0.2-0.4 0-0.7 0.1-0.3 0.2-0.6 0.4-0.3 0.3-0.4 0.6-0.2 0.4-0.2 0.7 0 0.4 0.2 0.7 0.1 0.4 0.4 0.6 0.2 0.3 0.6 0.4 0.3 0.2 0.6 0.2zm51.4-3.7q-0.4 0-0.7 0.1-0.4 0.2-0.6 0.4-0.3 0.3-0.4 0.6-0.2 0.4-0.2 0.7 0 0.4 0.1 0.7 0.2 0.4 0.4 0.6 0.3 0.3 0.6 0.4 0.3 0.2 0.7 0.2 0.4 0 0.7-0.2 0.4-0.1 0.6-0.3 0.3-0.3 0.4-0.6 0.2-0.4 0.2-0.8 0-0.3-0.2-0.6-0.1-0.4-0.3-0.6-0.3-0.3-0.6-0.4-0.4-0.2-0.7-0.2zm-58.3-6.3q0.3-0.1 0.6-0.4 0.2-0.3 0.4-0.6 0.1-0.3 0.1-0.7 0-0.4-0.1-0.7-0.2-0.3-0.4-0.6-0.3-0.2-0.6-0.4-0.4-0.1-0.7-0.1-0.4 0-0.7 0.1-0.4 0.2-0.6 0.4-0.3 0.3-0.4 0.6-0.1 0.3-0.1 0.7-0.1 0.4 0.1 0.7 0.1 0.4 0.4 0.6 0.2 0.3 0.6 0.4 0.3 0.2 0.7 0.2 0.4 0 0.7-0.2zm17.6-10.8c0.5-4 2.2-5.6 6-5.7-0.6-0.7-0.9-1.2-1.4-1.7-0.7-0.6-0.9-1.4-0.9-2.4 0.1-1.3 0-2.6 0.1-3.9 0-0.5-0.1-0.7-0.7-0.7q-11.3 0-22.5 0c-0.5 0-0.8 0.1-0.8 0.6q0.1 9 0 17.9c0 0.6 0.2 0.6 0.7 0.5 2.3-0.5 4.3 0.4 5.4 2.5 0.3 0.6 0.6 0.6 1.1 0.6q5 0 9.9 0c1.1 0 2.4 0.4 3-0.1 0.7-0.6 0.1-2 0.2-3q0-0.2 0-0.4 0-0.1-0.1-0.3 0-0.1-0.2-0.2-0.1-0.2-0.2-0.3-1.4-1-2.7-2.2c-0.8-0.8-1.8-0.3-2.7-0.4-0.6-0.1-0.6 0.6-0.8 0.9-1.1 1.8-3.2 2.7-5.1 2.2-1-0.3-1.9-0.8-2.6-1.6-0.6-0.8-1-1.8-1-2.8-0.1-1 0.2-2 0.8-2.9 0.6-0.8 1.5-1.4 2.5-1.7 2-0.7 4.3 0 5.2 1.9 0.6 1 1.3 1.2 2.3 1.1 1.4-0.2 2.5 0.2 3.4 1.2q0.1 0.2 0.3 0.3 0.1 0.1 0.2 0.2 0.2 0.1 0.3 0.2 0.2 0.1 0.3 0.2zm-8.9-1.3q-0.1-0.4-0.4-0.6-0.2-0.3-0.6-0.4-0.3-0.2-0.7-0.2c-0.5 0-1 0.2-1.3 0.5-0.4 0.4-0.6 0.8-0.6 1.3 0 0.5 0.2 1 0.5 1.3 0.4 0.4 0.9 0.6 1.4 0.6q0.3 0 0.7-0.2 0.3-0.1 0.6-0.3 0.2-0.3 0.4-0.6 0.1-0.3 0.1-0.7 0-0.4-0.1-0.7zm36 1.1c0-1.8-0.9-2.7-2.8-2.7q-9.3 0-18.5 0c-1.9 0-2.8 0.9-2.8 2.8q0 4.6 0 9.1 0 4.8 0 9.5c0 1.7 0.9 2.7 2.5 2.7q9.5 0 18.9 0c1.8 0 2.7-1 2.7-2.7q0-9.3 0-18.7zm-13.5-9.8c0-1.3 0-2.5 0-3.7 0-0.5-0.1-0.8-0.7-0.7q-2.8 0-5.6 0c-0.6-0.1-0.7 0.2-0.7 0.7 0 1.2 0 2.5 0 3.8 0 0.2 0 0.4 0.1 0.6 1.6 1.9 2.9 4.4 6.1 3.6q0 0 0 0 0.1 0 0.1 0 0 0 0 0 0.1 0 0.1 0c0.4 0 0.6-0.2 0.6-0.6 0-1.2 0-2.5 0-3.7zm9.8 0.1q0-2 0-3.9c0-0.5-0.2-0.7-0.7-0.7q-2.8 0.1-5.6 0c-0.5 0-0.7 0.2-0.7 0.7 0 1.2 0 2.5 0 3.7 0 1.2 0 2.5 0 3.8 0 0.4 0.1 0.6 0.6 0.6 3.1 0.1 3.1 0.1 5.2-2.3 0.3-0.3 0.6-0.7 0.9-1.1q0.1-0.1 0.1-0.2 0.1-0.1 0.1-0.2 0.1-0.1 0.1-0.2 0-0.1 0-0.2zm25.6 20.8q0.3-0.2 0.6-0.4 0.3-0.3 0.4-0.7 0.2-0.3 0.2-0.7 0-0.3-0.2-0.7-0.1-0.3-0.4-0.5-0.2-0.3-0.5-0.4-0.4-0.2-0.7-0.2-0.4 0-0.7 0.1-0.4 0.2-0.6 0.4-0.3 0.3-0.5 0.6-0.1 0.4-0.1 0.7 0 0.4 0.1 0.7 0.2 0.4 0.4 0.6 0.3 0.3 0.6 0.4 0.3 0.2 0.7 0.2 0.4 0 0.7-0.1zm-22.8-19.8q0 0.2-0.1 0.4 0 0.2-0.2 0.4-0.1 0.2-0.2 0.4c-0.6 0.6-1.1 1.2-1.6 1.9 3.8 0.2 5.5 1.9 5.9 5.9 0.8-0.7 1.5-1.4 2.3-1.9 0.9-0.6 1.9-0.3 2.9-0.3 0.7 0 1-0.2 1.3-0.8q0.4-0.7 0.9-1.2 0.6-0.6 1.3-0.9 0.7-0.3 1.5-0.4 0.8 0 1.6 0.2c1 0.2 1.9 0.8 2.5 1.6 0.7 0.8 1 1.8 1 2.9 0 1-0.3 2-0.9 2.8-0.6 0.9-1.5 1.5-2.5 1.7q-0.8 0.3-1.6 0.2-0.7 0-1.5-0.3-0.7-0.3-1.3-0.8-0.5-0.6-0.9-1.2c-0.3-0.6-0.5-1.1-1.3-1-0.6 0.2-1.3-0.2-1.8 0.2-1.9 1.5-4.4 2.8-3.6 6q0 0 0 0 0 0 0 0 0 0.1 0 0.1 0 0 0 0c-0.1 0.6 0.2 0.7 0.8 0.7q6.2 0 12.4 0c0.5 0 0.8-0.1 1-0.5 1.1-2.2 3.1-3.1 5.4-2.6 0.6 0.1 0.7 0 0.7-0.5q0-8.9 0-17.8c0-0.6-0.2-0.8-0.7-0.8q-11.3 0.1-22.6 0c-0.5 0-0.7 0.2-0.7 0.7 0.1 1.5 0 3 0.1 4.5q0 0.2-0.1 0.4zm12.8 9q0.1 0.3 0.3 0.5 0.3 0.3 0.6 0.4 0.4 0.2 0.7 0.1c0.5 0 1-0.1 1.3-0.5 0.4-0.3 0.6-0.8 0.6-1.3 0-0.5-0.2-0.9-0.6-1.3-0.3-0.3-0.8-0.5-1.3-0.5q-0.3 0-0.7 0.1-0.3 0.2-0.6 0.4-0.2 0.3-0.4 0.7-0.1 0.3-0.1 0.7 0 0.3 0.2 0.7zm-14.9-26.7q-0.3 0.1-0.6 0.4-0.2 0.2-0.3 0.6-0.2 0.3-0.2 0.7c0 0.5 0.1 1 0.5 1.3 0.3 0.4 0.8 0.6 1.3 0.6 0.6 0 1-0.2 1.4-0.6 0.3-0.3 0.5-0.9 0.5-1.4q-0.1-0.3-0.2-0.6-0.1-0.4-0.4-0.6-0.3-0.3-0.6-0.4-0.3-0.1-0.7-0.1-0.3 0-0.7 0.1zm-7.7 8.7c0 0.5 0.2 0.6 0.7 0.6q2 0 4.1 0c2.3 0 2.3 0 2.2-2.3 0-0.5-0.2-0.6-0.6-0.6-0.9 0-1.9 0-2.8 0h-1.4c-2.3 0-2.3 0-2.2 2.3zm-2.7-13.4c0.3 0.3 0.8 0.5 1.3 0.6 0.4 0 0.9-0.2 1.3-0.6 0.3-0.3 0.5-0.8 0.5-1.3 0.1-0.4-0.1-0.9-0.5-1.3-0.3-0.3-0.8-0.5-1.3-0.5-0.4 0-0.9 0.1-1.3 0.5-0.3 0.3-0.5 0.8-0.5 1.3-0.1 0.5 0.1 0.9 0.5 1.3zm-4.9 11.1c-2.3 0-2.3 0-2.2 2.3 0 0.4 0.1 0.6 0.6 0.6 1 0 1.9 0 2.9 0h1.3c2.3 0 2.3 0 2.2-2.3 0-0.5-0.1-0.6-0.6-0.6-1.4 0-2.8 0-4.2 0zm-4.3-6.4q-0.3 0.1-0.6 0.4-0.2 0.2-0.4 0.5-0.1 0.4-0.2 0.7c0 0.5 0.2 1 0.5 1.4 0.4 0.3 0.8 0.5 1.3 0.6 0.5 0 1-0.2 1.4-0.6 0.3-0.3 0.5-0.8 0.5-1.3q0-0.4-0.1-0.7-0.2-0.3-0.4-0.6-0.3-0.2-0.6-0.4-0.3-0.1-0.7-0.1-0.3 0-0.7 0.1z"/><path fill-rule="evenodd" class="a" d="m52 52.3q0.1 0.2 0.1 0.4c0 0.6-0.3 1-0.9 1.1q-0.2 0.1-0.4 0-0.2 0-0.3-0.1-0.2-0.1-0.3-0.2-0.2-0.2-0.2-0.4-0.5-1.1-0.8-2.2c-0.1-0.3-0.3-0.5-0.7-0.4q-1.5 0-3.1 0-0.1-0.1-0.2 0-0.1 0-0.2 0 0 0.1-0.1 0.2-0.1 0.1-0.1 0.2-0.3 1-0.7 2.1c-0.3 0.7-0.9 1-1.5 0.8-0.6-0.3-0.8-0.8-0.6-1.5q2-5.5 3.9-11c0.2-0.5 0.6-0.9 1.1-0.9 0.5 0 0.9 0.3 1.1 0.9q1.9 5.5 3.9 11zm-3.9-4.5c-0.3-0.9-0.7-1.8-1.1-3-0.4 1.3-0.8 2.3-1.2 3.5 0.7 0 1.4 0 2 0 0.4 0 0.4-0.2 0.3-0.5z"/><path class="a" d="m55.9 50.1q0 1.3 0 2.5c0 0.8-0.4 1.2-1 1.2-0.7 0.1-1.2-0.4-1.2-1.2q0-2.5 0-5c0.1-0.8 0.5-1.2 1.1-1.2 0.7-0.1 1.1 0.4 1.1 1.2 0 0.8 0 1.7 0 2.5z"/><path class="a" d="m55.3 42.7q0.2 0 0.3 0.2 0.2 0.1 0.3 0.3 0 0.3 0 0.5 0 0.2 0 0.4-0.1 0.2-0.3 0.4-0.1 0.1-0.3 0.2-0.3 0.1-0.5 0.1-0.2 0-0.4-0.1-0.2-0.1-0.4-0.3-0.1-0.1-0.2-0.3-0.1-0.2-0.1-0.5 0-0.2 0.1-0.4 0.1-0.2 0.3-0.3 0.1-0.2 0.3-0.2 0.2-0.1 0.4-0.1 0.3 0 0.5 0.1z"/></svg>