<svg id="Layer_1" data-name="Layer 1" xmlns="http://www.w3.org/2000/svg" viewBox="0 0 100 100"><defs><style>.cls-1{fill:#47b2e4;}</style></defs><path class="cls-1" d="M84.73,53.8c-1.24-8.62,0-18.09-.45-27,0-.5.13-.65.63-.77a9.64,9.64,0,0,0,7.47-11c-1.6-11.15-18.2-10.6-19,.72,0,.75-.32.79-.91.79-21.33,0-42.66,0-64,0-.74,0-1,.15-1,1q0,26.82,0,53.64c0,.88.25,1,1,1q19.32,0,38.64,0c1.49,0,1.49,0,1.68,1.46,1.43,12.52,13.82,21.66,26,18.92C92.59,89.57,98.77,65.1,84.73,53.8ZM83,9.63c9,.22,8.92,13.77-.1,13.88C73.89,23.28,74,9.74,83,9.63ZM49,67.21c-.3,1.35,0,2.4-1.72,2.14q-18,0-36.07,0c-.71,0-.94-.11-.94-.91q0-24.13,0-48.27c0-.63.1-.86.81-.86,20.72.75,43-1.39,63,.75,0,.92,1.55,1.91.92,2.63Q71,26.63,67.18,30.57c-.7.54-2.16-.61-3.35.12a.69.69,0,0,1-.89-.21c-.58-.63-1.18-1.26-1.81-1.83-1.18-1.41,1.24-3.21-1.71-5.6-2.7-2.44-7.2.22-6.62,3.78.63,1.13-.09,1.76-.8,2.45-1.74,1.72-3.45,3.47-5.15,5.22-1.25,1.2-3.52-1.42-5.88,2.21-2.15,3.51,2.18,7.89,5.64,5.68s1-4.64,2.12-5.89c2-2,3.93-4,5.88-5.95.86-.94,2.27.5,3.44-.3.91-.41,1.27.67,1.88,1.1,2.84,2.19-.85,4.7,3.25,6.94,3,1.82,7-1.42,5.85-4.78a1,1,0,0,1,.28-1.19Q73,28.6,76.7,24.83c.74-1,2.41,1.24,4.33,1.25.46.08.53.27.53.67q0,12.31,0,24.64c-10.23-5-19.3-3.48-27.42,4.54-.06-8.63,1.32-5.41-7.59-6-.55,0-.64.17-.64.68q0,7.68,0,15.37C45.71,67.57,49.37,65.58,49,67.21Zm17.5-32.59a1.37,1.37,0,0,1-2.74.06A1.37,1.37,0,0,1,66.47,34.62ZM58.24,26.3a1.37,1.37,0,1,1-2.73-.06A1.37,1.37,0,0,1,58.24,26.3ZM45.9,38.8a1.37,1.37,0,0,1-2.73-.06A1.37,1.37,0,0,1,45.9,38.8ZM70.62,59.63C85,60,85,81.62,70.55,81.85,56.17,81.54,56.19,59.87,70.62,59.63Zm-21.7,4.15c-.61.31-.12-4.91-.27-5.6,0-1.62,0-3.23,0-4.85,0-.44,0-.65.58-.66,2.17,0,2.17-.06,2.17,2.15,0,3.9.18,5.1-1.48,8.6C49.66,64,49.27,63.76,48.92,63.78ZM54,78.87c-.6.39-.76.16-1-.37A19.45,19.45,0,0,1,65.63,52c5.32-1.38,3.14-.3,3.59,4.38,0,.43-.12.58-.55.65A13.79,13.79,0,0,0,56.89,71.32a12.42,12.42,0,0,0,1,4.46c.24.55.13.78-.37,1C56.29,77.47,55.12,78.13,54,78.87Zm32.12,3.28a19,19,0,0,1-30.95.17c-.43-.56-.35-.8.24-1.12,1-.25,3.91-2.94,4.44-1.89a13.47,13.47,0,0,0,21.45,0c.32-.39.51-.46,1-.19C82.84,79.81,87.19,81.37,86.12,82.15Zm1.71-2.93c-1.42-.83-2.79-1.66-4.19-2.43-.49-.27-.51-.5-.32-1,3.39-8-2.23-17.78-10.8-18.79-1.16.06-.3-4-.58-5.06,0-.56.2-.55.64-.52C85.28,52.26,93.88,67.69,87.83,79.22Z"/><path class="cls-1" d="M28.09,24.9c-3,0-5.94,0-8.91,0-.56,0-.71-.14-.7-.71,0-2.08,0-2.08,2.07-2.08,5.45,0,10.91,0,16.36,0,.64,0,.8.15.79.8,0,2,0,2-2,2Z"/><path class="cls-1" d="M28.09,30.46c-3,0-5.94,0-8.91,0-.56,0-.71-.13-.7-.7,0-2.09,0-2.09,2.07-2.09,5.45,0,10.91,0,16.36,0,.63,0,.8.14.79.79,0,2,0,2-2,2Z"/><path class="cls-1" d="M28.17,33.24c2.94,0,5.89,0,8.83,0,.56,0,.7.15.7.71,0,2.09,0,2.09-2.08,2.09-5.45,0-10.9,0-16.36,0-.64,0-.8-.15-.79-.8,0-2,0-2,2-2Z"/><path class="cls-1" d="M28,41.57c-2.94,0-5.88,0-8.82,0-.56,0-.71-.14-.7-.71,0-2.09,0-2.09,2.07-2.09,5.45,0,10.91,0,16.36,0,.64,0,.8.14.79.8,0,2,0,2-2,2Z"/><path class="cls-1" d="M15.75,23.55c0,1.35,0,1.35-1.32,1.35S13,24.9,13,23.48s0-1.35,1.32-1.35S15.75,22.13,15.75,23.55Z"/><path class="cls-1" d="M13,29c0-1.32,0-1.32,1.27-1.32,1.47,0,1.47,0,1.47,1.47,0,1.31,0,1.31-1.27,1.31C13,30.46,13,30.46,13,29Z"/><path class="cls-1" d="M14.42,33.24c1.33,0,1.33,0,1.33,1.34s0,1.44-1.41,1.44S13,36,13,34.67,13,33.24,14.42,33.24Z"/><path class="cls-1" d="M15.75,40.21c0,1.36,0,1.36-1.32,1.36S13,41.57,13,40.15s0-1.36,1.31-1.36S15.75,38.79,15.75,40.21Z"/><path class="cls-1" d="M43.18,45c0-.51-.16-.61-.63-.61-2.31,0-4.62,0-6.93,0-.59,0-.69.19-.69.73q0,10.41,0,20.83c0,.48,0,.71.62.7,2.34,0,4.69,0,7,0,.5,0,.6-.17.6-.64Q43.15,55.45,43.18,45ZM39.65,63.81c-2,0-2,0-2-2V55.37c0-2.51,0-5,0-7.55,0-.56.14-.71.7-.71,2.05,0,2.06,0,2.06,2.1,0,4.6,0,9.2,0,13.8C40.45,63.66,40.29,63.83,39.65,63.81Z"/><path class="cls-1" d="M21.24,53.39c0-.54-.1-.73-.68-.72-2.29,0-4.57,0-6.85,0-.54,0-.73.11-.72.7,0,4.16,0,8.33,0,12.5,0,.54.11.73.69.72,2.28,0,4.57,0,6.85,0,.54,0,.72-.11.72-.7Q21.21,59.65,21.24,53.39ZM18,63.81c-2.2,0-2.2.07-2.2-2.13,0-1.88,0-3.76,0-5.64,0-.43.08-.58.55-.59,2.2-.05,2.2-.07,2.2,2.13C18.28,58.51,19,64.26,18,63.81Z"/><path class="cls-1" d="M32.2,61.08c-.21-.88.54-6-.54-5.63-2.37,0-4.74,0-7.11,0-.42,0-.59.07-.59.56,0,3.33,0,6.65,0,10,0,.42.06.6.54.6q3.55,0,7.11,0C32.76,67,32,62,32.2,61.08ZM29,63.81c-2.26.12-2.26.13-2.26-2.15,0-.95,0-1.91,0-2.86,0-.47.15-.56.58-.57,2.18,0,2.18-.06,2.18,2.14C29.27,61.11,29.94,63.9,29,63.81Z"/><path class="cls-1" d="M70.57,62.41c-10.8.23-10.77,16.47,0,16.66C81.4,78.84,81.38,62.59,70.57,62.41Zm0,13.88c-7.21-.18-7.14-11.05.11-11.1C77.82,65.41,77.73,76.2,70.55,76.29Z"/></svg>