<svg version="1.2" xmlns="http://www.w3.org/2000/svg" viewBox="0 0 98 98" width="98" height="98"><style>.a{fill:#47b2e4}</style><path fill-rule="evenodd" class="a" d="m85.1 33.7q0 15.3 0 30.6c-0.1 0.8 0.2 1.3 1 1.7 3 1.6 6 3.3 9 5 1.4 0.8 2.5 2 2.6 3.8v13.7c-0.2 1.8-1.3 2.9-2.8 3.7-2.9 1.6-5.8 3.2-8.7 4.9q-0.2 0.2-0.5 0.3-0.3 0.1-0.6 0.2-0.3 0.1-0.6 0.2-0.3 0-0.7 0.1h-1.7c-1.1-0.2-2.1-0.8-3.1-1.3q-3.8-2.2-7.7-4.4c-2.1-1.1-3.1-2.9-3.1-5.3q0-1.2-0.1-2.3c0-1.1 0-1.2-1.1-1.2h-35.6c-1.6 0-1.6 0-1.6 1.6q0 0.4 0 0.8 0 0.3 0 0.7 0 0.4 0 0.7-0.1 0.4-0.1 0.8c-0.2 1.9-1.2 3.2-2.8 4.1q-4.7 2.7-9.4 5.3c-0.6 0.3-1.3 0.3-1.8 0.5h-2c-1.8-0.4-3.3-1.6-5-2.5-1.9-1-3.8-2.2-5.8-3.2-1.9-1.1-2.8-2.6-2.8-4.8q0.1-5.8 0-11.7c0-2.1 0.9-3.6 2.6-4.6q4.6-2.6 9.2-5.1c0.7-0.4 1-0.9 1-1.7q0-15.3 0-30.6c0-0.8-0.3-1.3-1-1.7-3-1.6-5.9-3.3-8.8-4.9-2-1.1-3.1-2.7-3-5.1 0.1-3.8 0.1-7.6 0-11.4 0-2.2 1-3.8 2.9-4.8q4.3-2.4 8.6-4.9c0.7-0.3 1.4-0.5 2.1-0.8h2c1.9 0.2 3.3 1.4 4.9 2.3 2 1 4 2.2 5.9 3.3q3.3 1.7 3.3 5.3c0 0.9 0.1 1.7 0 2.5 0 0.8 0.3 1.1 1.1 1.1q0.2-0.1 0.4 0h35.4c1.5 0 1.4-0.1 1.5-1.5 0-1.1-0.1-2.3 0.1-3.4 0.3-1.5 1.1-2.7 2.4-3.5 3.2-1.9 6.5-3.7 9.8-5.6 0.6-0.3 1.2-0.3 1.8-0.5h1.6c2.1 0.2 3.7 1.6 5.4 2.5 1.9 1.1 3.7 2.1 5.6 3.2 1.6 0.8 2.7 2 2.9 3.9v13.7c-0.3 1.7-1.3 2.8-2.6 3.6q-4.5 2.6-9.1 5c-0.7 0.4-1 0.9-1 1.7zm-12.7-24.5c3.2 1.8 6.3 3.5 9.4 5.3q0.3 0.1 0.6 0.2 0.4 0.1 0.7 0.1 0.4 0 0.7-0.1 0.3-0.1 0.6-0.2c3.1-1.8 6.2-3.5 9.4-5.3l-9.9-5.6c-0.6-0.3-1.2-0.2-1.8 0.2q-2.6 1.4-5.2 2.8c-1.4 0.9-2.9 1.7-4.5 2.6zm-68.3 0c3.3 1.8 6.4 3.5 9.5 5.3q0.3 0.1 0.6 0.2 0.4 0.1 0.7 0.1 0.4 0 0.7-0.1 0.3-0.1 0.6-0.3c3.1-1.7 6.2-3.4 9.4-5.2-3.4-1.9-6.7-3.8-10-5.6-0.6-0.3-1.1-0.2-1.7 0.1q-1.4 0.8-2.9 1.6c-2.3 1.3-4.5 2.6-6.9 3.9zm9.5 19.8c0.9 0.5 1.7 0.5 2.6 0q4.4-2.6 8.8-5c0.9-0.5 1.3-1.2 1.2-2.2q0-4.1 0-8.3c0.1-0.9-0.1-0.9-0.9-0.5-2.8 1.6-5.5 3.3-8.5 4.7-0.4 0.2-0.3 0.5-0.3 0.8q0 2.1 0 4.2c-0.1 1.2-0.7 1.9-1.7 1.9-0.9 0-1.6-0.8-1.6-1.9 0-0.7-0.1-1.5 0-2.3 0.3-1.8-0.3-2.8-2-3.6-2.7-1.2-5.1-2.8-7.7-4.3 0 3.3 0 6.3 0 9.4-0.1 1 0.3 1.6 1.2 2.1q4.5 2.4 8.9 5zm-9.3 45.3c0.1 0.3 0.4 0.3 0.7 0.5 2.7 1.5 5.4 3 8.2 4.6 1.1 0.7 2.2 0.7 3.4 0 2.7-1.6 5.5-3.1 8.2-4.7 0.2-0.1 0.5-0.1 0.6-0.5l-9.7-5.4q-0.2-0.1-0.4-0.2-0.2 0-0.5 0-0.2 0-0.4 0-0.3 0.1-0.5 0.2-4.8 2.8-9.6 5.5zm21.9 3.5q0 0-0.1 0 0 0-0.1 0.1 0 0 0 0-0.1 0-0.1 0c-3.1 1.6-6 3.5-9.1 5-0.4 0.2-0.3 0.5-0.3 0.8 0 1.4 0 2.9 0 4.4-0.1 0.8-0.5 1.4-1.4 1.6-1 0.2-1.8-0.6-1.9-1.7 0-1.5 0-2.9 0-4.3 0-0.3 0.1-0.7-0.3-0.8-3.1-1.5-6-3.4-9.1-5q0 0-0.1 0 0-0.1-0.1-0.1 0 0 0 0.1-0.1 0-0.1 0 0 4.7 0 9.4c0 0.9 0.4 1.4 1.1 1.8q4.6 2.5 9.2 5.1 0.2 0.2 0.5 0.3 0.3 0.1 0.5 0.1 0.3 0 0.6-0.1 0.3-0.1 0.5-0.3 4.7-2.6 9.3-5.2c0.7-0.3 1-0.9 1-1.7zm44.9-6.4q5-2.8 10-5.6c0.4-0.2 0.4-0.4 0.4-0.8q0-16 0-31.9c0-0.4 0-0.6-0.4-0.9-3.3-1.7-6.6-3.6-9.8-5.4-1.9-1-2.8-2.6-2.8-4.7 0-1.1-0.1-2.2 0-3.3 0-0.6-0.2-0.7-0.7-0.7q-4.7 0-9.3 0-14.1 0-28.2 0c-0.6 0-0.9 0.1-0.8 0.8 0 1.1 0 2.2 0 3.3 0 1.8-0.7 3.4-2.4 4.3q-5 2.9-10 5.7c-0.5 0.2-0.6 0.4-0.6 1q0 15.8 0 31.7c0 0.6 0.1 0.8 0.6 1q5.1 2.8 10.1 5.7 0.5 0.2 0.9 0.6 0.4 0.4 0.7 0.8 0.2 0.5 0.4 1 0.2 0.5 0.2 1.1 0 0.5 0.1 1 0 0.5 0 1 0 0.5 0 1 0 0.5 0 1c-0.1 0.7 0.2 0.9 0.9 0.9q9.3 0 18.5 0 9.4 0 18.8 0c0.6 0 0.8-0.1 0.8-0.8-0.1-1.1 0-2.3 0-3.4 0-1.9 0.9-3.4 2.6-4.4zm22.9 6.6c-3 1.6-5.8 3.5-8.9 4.9-0.4 0.1-0.3 0.4-0.3 0.7q0 2.1 0 4.2c0 1.2-0.7 1.9-1.7 1.9-1 0-1.6-0.7-1.6-1.9q0-2 0-4.1c0-0.4 0.1-0.7-0.3-0.8-2.9-1.3-5.5-3.1-8.3-4.5-0.3-0.2-0.7-0.4-1.1-0.7 0 3.2 0 6.3-0.1 9.3 0 1 0.4 1.7 1.3 2.2q4.5 2.4 8.9 5c0.9 0.5 1.6 0.5 2.4 0q4.5-2.6 9.1-5.1c0.8-0.4 1.1-1.1 1.1-2 0-2.9 0-5.7 0-8.5 0-0.3 0.1-0.5-0.1-0.8q-0.2 0.1-0.4 0.2zm-9.9-9.1c-0.5-0.3-1.1-0.4-1.7-0.1q-4.9 2.7-9.8 5.5c0 0.1 0.1 0.2 0.1 0.2q4.6 2.6 9.3 5.2 0.2 0.2 0.5 0.2 0.3 0.1 0.6 0.1 0.3 0 0.6-0.1 0.3 0 0.6-0.2c3.1-1.7 6.3-3.5 9.6-5.3-3.4-1.9-6.6-3.7-9.8-5.5zm9.4-45q0.2-0.1 0.4-0.3 0.2-0.2 0.4-0.4 0.1-0.3 0.2-0.5 0-0.3 0-0.6 0-2.2 0-4.5v-5c-0.3 0.2-0.4 0.2-0.6 0.3-3 1.6-5.8 3.5-8.8 4.8-0.4 0.2-0.3 0.5-0.3 0.8 0 1.4 0 2.8 0 4.3-0.1 1.1-0.7 1.8-1.7 1.8-1 0-1.6-0.7-1.6-1.9q0-2.1 0-4.2c0-0.3 0.1-0.6-0.4-0.8-1.7-0.7-3.2-1.7-4.8-2.6q-2.2-1.2-4.4-2.4-0.1 0-0.1 0 0 0.1 0 0.1 0 0.1 0 0.1 0 0.1 0 0.1 0 4.6 0 9.3c0 0.7 0.3 1.2 1 1.6q4.7 2.6 9.3 5.2 0.2 0.2 0.5 0.3 0.2 0 0.5 0 0.3 0.1 0.5 0 0.3-0.1 0.5-0.2 4.7-2.7 9.4-5.3z"/><path fill-rule="evenodd" class="a" d="m68.6 52.5c2.2 2.2 3.2 4.9 3.3 8.4-0.3 4.5-2.4 8.1-6.9 10-4.5 2-8.7 1.2-12.3-2.1-2.5-2.3-4.9-4.9-7.4-7.4q-0.5-0.5-0.9-1.1-0.5-0.6-0.8-1.3-0.4-0.6-0.6-1.3-0.3-0.7-0.4-1.4c-0.2-0.6-0.4-0.7-0.9-0.9q-0.7-0.1-1.5-0.4-0.7-0.3-1.4-0.7-0.6-0.3-1.2-0.8-0.7-0.5-1.2-1c-2.3-2.3-4.7-4.6-6.9-7-3.4-3.4-4.3-8.4-2.4-12.7q0.8-1.6 1.9-2.9 1.2-1.3 2.7-2.2 1.5-0.9 3.2-1.3 1.7-0.4 3.5-0.3c2.5 0.2 4.8 1.1 6.7 2.9q3.9 3.8 7.7 7.7 0.5 0.6 0.9 1.1 0.4 0.6 0.8 1.3 0.3 0.6 0.5 1.3 0.3 0.6 0.4 1.3c0.1 0.6 0.4 0.7 0.9 0.9q0.7 0.1 1.4 0.4 0.8 0.3 1.4 0.7 0.7 0.3 1.3 0.8 0.7 0.5 1.2 1c2.3 2.4 4.7 4.7 7 7zm-0.8 11.4q0.6-1.1 0.8-2.3 0.1-1.2-0.1-2.4-0.2-1.2-0.7-2.3-0.6-1.1-1.4-2c-2.4-2.4-4.8-4.8-7.2-7.2q-0.4-0.4-0.8-0.7-0.4-0.3-0.8-0.5-0.4-0.2-0.9-0.4-0.5-0.2-0.9-0.3c-0.3 0.8-0.4 1.6-0.7 2.4-0.3 0.6-0.1 0.8 0.5 1q0.2 0 0.3 0.1 0.2 0.1 0.4 0.2 0.1 0.1 0.3 0.2 0.1 0.1 0.2 0.3c2.5 2.4 5 4.8 7.4 7.3 1.1 1.2 1.4 2.6 1.1 4.2-0.4 1.8-1.5 3.1-3.3 3.7-1.9 0.6-3.6 0.1-5-1.3-2.1-2.1-4.2-4.2-6.3-6.3-2.6-2.6-2.7-5-0.3-7.8 2.9-3.2 2.9-7.9-0.1-11-2.4-2.5-4.8-4.9-7.3-7.3q-0.5-0.5-1.1-0.9-0.6-0.4-1.2-0.7-0.7-0.2-1.4-0.4-0.7-0.1-1.4-0.1-1.2-0.1-2.4 0.2-1.2 0.3-2.2 0.9-1 0.6-1.9 1.6-0.8 0.9-1.3 2c-1.4 3.1-0.8 6.5 1.6 9 2.3 2.4 4.7 4.8 7.1 7.2q0.2 0.2 0.4 0.4 0.3 0.2 0.5 0.3 0.3 0.2 0.6 0.4 0.2 0.1 0.5 0.3c1.4 0.6 1.4 0.6 1.8-0.9q0 0 0-0.1 0 0 0 0 0-0.1 0-0.1 0.1-0.1 0.1-0.1c0.5-1 0.3-1.7-0.8-2-0.3-0.1-0.6-0.3-0.9-0.6-2.3-2.4-4.7-4.7-7.1-7.1q-0.4-0.5-0.7-1-0.3-0.5-0.5-1-0.1-0.6-0.1-1.2 0-0.6 0.1-1.2c0.9-3.8 5.3-5.1 8.2-2.4 2.2 2.1 4.3 4.3 6.5 6.5 2.5 2.5 2.5 5 0.2 7.6-2.9 3.3-2.9 7.9 0.1 11.1 2.4 2.5 4.8 4.9 7.3 7.3q0.5 0.5 1.1 0.8 0.6 0.4 1.2 0.7 0.7 0.3 1.4 0.5 0.7 0.1 1.4 0.1 1.2 0.1 2.4-0.2 1.2-0.3 2.2-0.9 1-0.7 1.8-1.6 0.8-0.9 1.3-2zm-22.3-18.3c0.7-0.7 0.7-1.7-0.1-2.5q-3.3-3.3-6.6-6.6-0.1-0.1-0.2-0.3-0.2-0.1-0.4-0.2-0.2 0-0.3-0.1-0.2 0-0.4 0c-0.7 0-1.2 0.3-1.5 1-0.3 0.7 0 1.3 0.5 1.9q3.3 3.3 6.6 6.6c0.8 0.8 1.7 0.8 2.4 0.2zm7.6 6.4q-0.2 0.1-0.4 0.2-0.2 0.1-0.3 0.3-0.2 0.2-0.3 0.4c-0.3 0.8-0.1 1.4 0.5 2q3.3 3.3 6.5 6.5c0.9 0.9 1.9 0.9 2.5 0.2 0.7-0.7 0.7-1.6-0.2-2.4q-3.2-3.3-6.5-6.6c-0.4-0.4-0.8-0.6-1.3-0.6q-0.2 0-0.5 0z"/></svg>