<svg version="1.2" xmlns="http://www.w3.org/2000/svg" viewBox="0 0 64 80" width="64" height="80">
	<title>dApps Development-svg</title>
	<style>
		.s0 { fill: #47b2e4 } 
	</style>
	<path id="Layer" class="s0" d="m19.5 35.8q-0.3 0-0.6-0.1-0.3-0.1-0.4-0.4-0.2-0.3-0.3-0.6 0-0.3 0.2-0.7c0.8-2 1.7-4.1 2.5-6.2q2.4-5.8 4.8-11.6c0.2-0.5 0.5-1 1.1-1.1 1.1-0.1 1.8 0.8 1.3 1.9q-1.6 4-3.2 8-2.1 4.9-4.1 9.8 0 0.2-0.2 0.4-0.1 0.1-0.3 0.3-0.1 0.2-0.4 0.3-0.1 0-0.4 0z"/>
	<path id="Layer" class="s0" d="m32.6 19q0.1 0 0.2 0.1 0.2 0 0.3 0.1 0.1 0 0.3 0.1 0.1 0 0.2 0.2c1.7 1.6 3.4 3.4 5.1 5q0.3 0.2 0.4 0.4 0.1 0.2 0.1 0.6 0 0.2-0.1 0.5-0.1 0.3-0.4 0.4-2.6 2.6-5.2 5.1-0.2 0.2-0.4 0.3-0.3 0.1-0.5 0.1-0.3 0-0.5-0.1-0.3-0.1-0.5-0.3-0.2-0.2-0.3-0.4 0-0.2 0-0.5 0-0.2 0.1-0.5 0.1-0.2 0.3-0.4 1.9-1.9 3.9-3.7c0.4-0.4 0.5-0.6 0-1-1.3-1.2-2.6-2.6-3.9-3.9q-0.2 0-0.3-0.2-0.1-0.2-0.1-0.4 0-0.2 0-0.4 0-0.3 0.1-0.4 0.1-0.2 0.2-0.3 0.2-0.1 0.3-0.2 0.2-0.1 0.3-0.2 0.2 0 0.4 0z"/>
	<path id="Layer" class="s0" d="m16.2 30.6q0 0.4-0.2 0.7-0.2 0.4-0.6 0.5-0.3 0.2-0.7 0.1-0.4-0.1-0.7-0.4c-0.8-0.7-1.5-1.5-2.3-2.3q-1.4-1.3-2.8-2.7-0.3-0.1-0.4-0.5-0.2-0.2-0.2-0.5 0-0.4 0.2-0.6 0.1-0.2 0.4-0.5 2.5-2.4 5-4.9 0.1-0.2 0.4-0.3 0.2-0.2 0.6-0.2 0.2 0 0.4 0.1 0.3 0.1 0.5 0.2c0.6 0.6 0.5 1.4-0.1 2-1.3 1.2-2.6 2.5-3.9 3.8-0.4 0.3-0.3 0.5 0 0.8 1.3 1.2 2.6 2.4 3.8 3.7q0.2 0 0.2 0.2 0.1 0.1 0.2 0.2 0.1 0.1 0.2 0.3 0 0.1 0 0.3z"/>
	<path id="Layer" class="s0" d="m28.2 72.8c0 0.8-0.3 1.3-0.8 1.3q-1.8 0-3.7 0-1.7 0-3.4 0c-0.7 0-1.1-0.6-0.9-1.4 0-0.7 0.3-1 0.8-1q3.6 0 7.2 0c0.5 0 0.8 0.4 0.8 1.1z"/>
	<path id="Layer" fill-rule="evenodd" class="s0" d="m64 47.6q0 0.2-0.1 0.5-0.1 0.2-0.2 0.4-0.2 0.2-0.4 0.3-0.2 0.1-0.4 0.1c-1 0.2-1.8 0.3-2.6 0.5-0.5 0-0.6 0.2-0.8 0.6-0.8 1.1-0.5 2 0.5 3 1.5 1.8 1.5 1.9-0.2 3.5-0.9 0.9-1.7 1.7-2.6 2.5q-0.2 0.2-0.4 0.3-0.3 0.2-0.6 0.2-0.2 0-0.6-0.1-0.2-0.1-0.4-0.3-0.1 0-0.2-0.1-0.2-0.1-0.3-0.1-0.1-0.1-0.2-0.3-0.2-0.1-0.3-0.2-0.2-0.3-0.6-0.4-0.3-0.2-0.8-0.3-0.4-0.1-0.8 0.1-0.4 0.1-0.7 0.3c-0.5 0.3-0.8 0.4-0.8 1 0 0.7-0.1 1.3-0.2 2-0.2 1-0.6 1.4-1.6 1.4-1.3 0-1.3 0-1.3 1.3 0 3.4-0.1 7 0 10.4 0.1 3.4-2.6 5.4-5.6 5.4q-18.1 0-36.1 0c-3.4 0-5.5-2-5.5-5.3v-7.4c0-1.3 0.3-1.7 1.8-1.7 7 0 34.9 0 41.9 0 0.7 0 1-0.1 0.9-0.8q0-0.1 0-0.2 0 0 0-0.1 0-0.1 0-0.1 0-0.1 0-0.2c0-1.2 0-1.2-1.1-1.4q-0.3 0-0.5 0-0.2-0.1-0.4-0.3-0.1-0.1-0.2-0.3-0.2-0.2-0.2-0.4-0.1-0.2-0.1-0.3 0-0.2 0-0.4 0-0.1 0-0.3 0-0.2-0.1-0.3 0.1-0.4 0-0.8-0.2-0.4-0.4-0.7-0.3-0.3-0.6-0.5-0.3-0.2-0.7-0.3c-0.5-0.1-0.9-0.3-1.4 0.2-0.5 0.5-1.1 0.9-1.7 1.3q-0.2 0.2-0.5 0.4-0.2 0.1-0.6 0.1-0.2 0-0.4-0.2-0.3-0.1-0.5-0.3c-1.2-1.1-2.3-2.2-3.4-3.3q-0.2-0.2-0.3-0.4-0.2-0.3-0.2-0.5 0-0.2 0.1-0.5 0.1-0.2 0.2-0.5 0.1-0.1 0.2-0.2 0.1-0.1 0.2-0.3 0 0 0.1-0.2 0.2-0.1 0.3-0.3 0.3-0.2 0.5-0.5 0.1-0.4 0.2-0.8 0.1-0.4 0-0.7-0.2-0.4-0.4-0.7 0-0.2-0.2-0.4 0-0.1-0.2-0.2-0.2-0.2-0.3-0.2-0.2 0-0.4 0-1-0.1-2.1-0.3c-0.9-0.1-1.3-0.5-1.3-1.4q0-2.3 0-4.7-0.1-0.3 0-0.5 0.2-0.3 0.3-0.4 0.2-0.3 0.4-0.3 0.3-0.2 0.5-0.2l1.1-0.2c2-0.2 2-0.3 2.6-2.1q0.1-0.1 0.1-0.2 0 0-0.1-0.1 0-0.1 0-0.2-0.1-0.1-0.2-0.1c-0.4-0.7-1-1.3-1.5-2q-0.2-0.2-0.3-0.4-0.1-0.3-0.1-0.5 0.1-0.2 0.1-0.5 0.2-0.2 0.4-0.4c1.1-1.1 2.3-2.3 3.5-3.3q0.2-0.3 0.4-0.4 0.2-0.1 0.5-0.1 0.2 0 0.5 0 0.2 0.1 0.4 0.3c0.7 0.4 1.3 0.8 2 1.3q0.1 0.1 0.2 0.2 0.2 0 0.3 0 0.2 0 0.4 0 0.1 0 0.2 0c1.4-0.4 1.7-1.3 1.8-2.5 0.1-2.3 0.3-2.4 2.7-2.4h3.6c1.1 0 1.5 0.4 1.7 1.5 0.1 0.7 0.2 1.3 0.3 2 0 0.5 0.3 0.6 0.7 0.8 1.2 0.7 2.1 0.5 3.1-0.4 1.8-1.6 1.9-1.5 3.6 0.1l2.5 2.5q0.3 0.2 0.5 0.4 0.1 0.2 0.1 0.6 0.1 0.2-0.1 0.5 0 0.3-0.2 0.5-0.1 0.1-0.2 0.3-0.1 0.1-0.2 0.2-0.1 0.2-0.2 0.3-0.1 0.1-0.2 0.2-0.4 0.3-0.5 0.6-0.2 0.3-0.3 0.6 0 0.4 0.1 0.8 0.1 0.3 0.3 0.6c0.3 0.6 0.5 0.9 1.2 0.9 0.7 0 1.5 0.2 2.2 0.3q0.3 0 0.5 0.1 0.2 0 0.4 0.2 0.2 0.2 0.3 0.5 0 0.2 0 0.5c0 1.5 0 3.2 0.2 4.8zm-19.2 20.9c0.1-0.7-0.1-0.8-0.8-0.8-6.7 0-13.4 0-20.2 0q-10.2 0-20.4 0c-0.5 0-0.7 0.1-0.7 0.7q0 2.9 0 5.9c0 1.8 1.1 2.8 2.9 2.8h36.3c1.9 0 2.9-0.9 2.9-2.7q0-3 0-5.9zm15.5-24.8c-2 0.1-2.8-0.8-3.6-2.6-0.9-1.9-0.7-3.2 0.7-4.6q0-0.1 0-0.2 0.1 0 0.2-0.1 0 0 0.1-0.1 0-0.1 0.1-0.1 0-0.1-0.1-0.1 0-0.1 0-0.1 0 0 0 0-0.3-0.3-0.5-0.5-0.3-0.2-0.5-0.4-0.2-0.3-0.5-0.5-0.2-0.2-0.5-0.4c-0.3-0.1-0.9 0.6-1.4 0.9q-0.1 0.1-0.1 0.2-0.1 0-0.2 0.1 0 0-0.1 0.1-0.1 0-0.2 0-0.1 0.3-0.4 0.5-0.2 0-0.5 0-0.3 0.1-0.6 0-0.3 0-0.5-0.2-0.3-0.2-0.6-0.3-0.2-0.2-0.6-0.3-0.2-0.1-0.5-0.2-0.4-0.1-0.7-0.2-0.3-0.1-0.6-0.2-0.2-0.1-0.5-0.4-0.1-0.2-0.3-0.4-0.1-0.4-0.1-0.7c-0.3-2.3-0.3-2.3-2.8-2.2-0.4 0-0.6 0.1-0.6 0.5 0 0.6-0.2 1.2-0.2 1.9q0 0.3-0.1 0.5-0.1 0.3-0.3 0.5-0.1 0.2-0.4 0.3-0.2 0.2-0.6 0.2-0.3 0.1-0.5 0.2-0.4 0.1-0.6 0.1-0.3 0.2-0.6 0.3-0.2 0.1-0.6 0.3-0.2 0.3-0.5 0.3-0.3 0.1-0.6 0.1-0.3-0.1-0.7-0.1-0.3-0.2-0.5-0.5c-0.6-0.4-1.3-1.2-1.9-1.1-0.6 0.1-1.1 1-1.7 1.5l-0.1 0.1c-0.2 0.2-0.2 0.4 0 0.6 0.5 0.6 0.9 1.2 1.4 1.6q0.1 0.2 0.3 0.4 0.1 0.3 0.1 0.5 0 0.3 0 0.6-0.1 0.3-0.3 0.4-0.1 0.3-0.3 0.6-0.2 0.2-0.3 0.5-0.1 0.3-0.2 0.6-0.1 0.3-0.2 0.6 0 0.3-0.1 0.6-0.2 0.3-0.4 0.5-0.4 0.2-0.6 0.4-0.3 0.1-0.7 0.1c-2.3 0.2-2.3 0.3-2.3 2.5 0 0.6 0.2 0.8 0.9 0.8 0.5 0 1.2 0.1 1.8 0.2q0.2 0 0.5 0 0.2 0.1 0.4 0.3 0.2 0.2 0.3 0.3 0.2 0.3 0.2 0.5 0 0.3 0.1 0.7 0.2 0.2 0.3 0.5 0.1 0.4 0.3 0.7 0.2 0.2 0.3 0.6 0.2 0.2 0.3 0.4 0 0.4 0 0.7 0 0.3-0.1 0.6-0.1 0.2-0.3 0.5c-0.5 0.5-1.3 1.2-1.2 1.8 0.1 0.5 1 1 1.5 1.6 0.3 0.3 0.5 0.3 0.8 0 0.5-0.4 1.1-0.7 1.6-1.2q0.1-0.2 0.4-0.3 0.2-0.1 0.5-0.1 0.3 0 0.5 0 0.3 0.1 0.5 0.2 0.3 0.2 0.6 0.3 0.3 0.2 0.5 0.3 0.3 0.1 0.7 0.2 0.2 0.1 0.5 0.2 0.4 0 0.6 0.1 0.3 0.2 0.6 0.5 0.2 0.2 0.3 0.5 0.2 0.3 0.2 0.6c0.1 0.7-0.1 1.8 0.4 2.1 0.6 0.3 1.5 0.1 2.3 0.1q0 0 0.1 0 0 0 0 0c0.4 0.1 0.5-0.1 0.5-0.4 0.1-0.7 0.2-1.3 0.2-2q0-0.3 0.2-0.5 0-0.3 0.2-0.5 0.2-0.2 0.4-0.4 0.3 0 0.5-0.1 0.3-0.1 0.7-0.2 0.2-0.1 0.5-0.1 0.4-0.2 0.6-0.3 0.3-0.2 0.6-0.3 0.2-0.3 0.6-0.3 0.3-0.1 0.6-0.1 0.4 0.1 0.6 0.1 0.3 0.2 0.6 0.4c0.5 0.5 1.2 1.3 1.8 1.2 0.6-0.1 1.1-1 1.7-1.6 0.3-0.2 0.3-0.5 0-0.8-0.3-0.4-0.7-1-1.1-1.4q-0.3-0.2-0.4-0.5-0.1-0.2-0.1-0.4 0-0.3 0-0.5 0.1-0.4 0.2-0.5 0.2-0.3 0.3-0.5 0.1-0.2 0.2-0.4 0.2-0.3 0.2-0.5 0.1-0.3 0.1-0.5c0.3-1.4 1.1-1.9 2.4-2 1.9-0.2 1.8-0.3 1.9-2.1 0-0.8-0.2-1.2-1-1.1z"/>
	<path id="Layer" class="s0" d="m32.1 6.1c0 0.8-0.9 1.2-2.5 1.2h-5.1q-2.8 0-5.4 0c-1.5 0-2.4-0.4-2.4-1.2 0-0.6 0.9-1.2 2.3-1.2q5.4 0 10.7 0c1.5 0 2.4 0.5 2.4 1.2z"/>
	<path id="Layer" fill-rule="evenodd" class="s0" d="m47.4 18.2c0 0.7-0.1 1.2-0.8 1.5-1 0.3-1.8-0.3-1.8-1.4q0-2.7 0-5.4c0-0.6-0.2-0.7-0.7-0.7q-20.3 0-40.6 0c-0.8 0-0.8 0.2-0.8 0.8q0 23.4 0 46.8c0 1.4-0.4 2-1.3 2-0.8 0-1.2-0.6-1.2-2v-54c0-3.4 2.1-5.4 5.5-5.4h36.1c3.4 0 5.5 2 5.5 5.3 0 4.2 0 8.3 0.1 12.5zm-2.6-9.3q0-1.7 0-3.4 0-0.6-0.2-1.1-0.1-0.5-0.5-0.9-0.4-0.3-0.9-0.5-0.5-0.1-1.1-0.1-18.4 0-36.8 0-0.5 0-1 0.1-0.4 0.2-0.9 0.6-0.4 0.4-0.5 0.9-0.2 0.5-0.2 1c0 1.1 0.1 2.3 0 3.3-0.1 0.8 0.2 0.9 0.9 0.9 6.7 0 13.4 0 20.1 0q10.2 0 20.3 0c0.6 0 0.9-0.1 0.8-0.8z"/>
	<path id="Layer" fill-rule="evenodd" class="s0" d="m46.1 38.9c1.7 0 3.5 0.6 4.7 1.8 1.2 1.3 1.9 3 1.9 4.7 0 1.7-0.7 3.3-1.9 4.6-1.2 1.2-3 1.9-4.7 1.9-1.7 0-3.4-0.7-4.7-1.9-1.2-1.3-1.9-2.9-1.9-4.6 0-1.7 0.7-3.4 1.9-4.7 1.3-1.2 3-1.8 4.7-1.9zm3 9.4q0.5-0.6 0.9-1.2 0.2-0.6 0.3-1.4 0.1-0.6-0.1-1.4c-0.3-0.9-0.8-1.6-1.6-2.2-0.8-0.5-1.7-0.8-2.7-0.8-0.9 0-1.8 0.4-2.5 1-0.7 0.6-1.2 1.4-1.5 2.3q-0.1 0.6-0.1 1.3 0.2 0.7 0.5 1.3 0.3 0.6 0.8 1.1 0.5 0.5 1 0.8c0.5 0.2 0.7 0.1 0.7-0.4q0-1.9 0-3.8c0-1 0.5-1.5 1.2-1.5 0.9 0 1.3 0.5 1.3 1.4 0 0.7 0 1.2 0 1.8 0 0.7 0.1 1.4 0 2 0 0.6 0.2 0.7 0.8 0.5q0.6-0.3 1-0.8z"/>
</svg>