<svg version="1.2" xmlns="http://www.w3.org/2000/svg" viewBox="0 0 78 98" width="78" height="98"><style>.a{fill:#47b2e4}</style><path class="a" d="m23.8 43.9q-0.4 0-0.8-0.2-0.3-0.1-0.5-0.5-0.2-0.3-0.3-0.7 0-0.4 0.2-0.8c1-2.5 2.1-5.1 3.1-7.6q2.9-7.1 5.8-14.3c0.3-0.6 0.6-1.2 1.4-1.3 1.3-0.1 2.1 1 1.6 2.3q-2 4.9-4 9.8-2.5 6-5 12 0 0.3-0.2 0.5-0.1 0.2-0.3 0.4-0.2 0.2-0.5 0.3-0.2 0.1-0.5 0.1z"/><path class="a" d="m39.7 23.3q0.2 0 0.3 0.1 0.2 0 0.4 0.1 0.1 0 0.3 0.1 0.1 0.1 0.2 0.3c2.1 2 4.2 4.1 6.3 6.1q0.3 0.2 0.4 0.5 0.2 0.3 0.2 0.7 0 0.3-0.2 0.7-0.1 0.3-0.4 0.5-3.2 3.1-6.4 6.2-0.2 0.2-0.5 0.4-0.3 0.1-0.6 0.1-0.3 0-0.6-0.1-0.3-0.2-0.6-0.4-0.2-0.2-0.3-0.5-0.1-0.3-0.1-0.6 0-0.3 0.2-0.6 0.1-0.3 0.3-0.5 2.4-2.3 4.8-4.6c0.5-0.5 0.6-0.7 0-1.2-1.6-1.5-3.2-3.1-4.8-4.7q-0.2-0.1-0.3-0.3-0.1-0.2-0.2-0.5 0-0.2 0-0.5 0.1-0.3 0.2-0.5 0.1-0.2 0.2-0.3 0.2-0.2 0.4-0.3 0.2-0.1 0.4-0.2 0.2 0 0.4 0z"/><path class="a" d="m19.8 37.5q0 0.5-0.3 0.9-0.2 0.4-0.7 0.6-0.4 0.2-0.9 0.1-0.5-0.1-0.8-0.5c-1-0.9-1.9-1.9-2.9-2.8q-1.7-1.6-3.4-3.3-0.3-0.2-0.5-0.6-0.2-0.3-0.2-0.7 0-0.4 0.2-0.7 0.2-0.3 0.5-0.6 3.1-3 6.1-6 0.2-0.2 0.5-0.4 0.3-0.2 0.7-0.2 0.3 0 0.6 0.1 0.3 0.1 0.6 0.3c0.7 0.7 0.6 1.6-0.2 2.4-1.6 1.5-3.1 3.1-4.7 4.6-0.5 0.4-0.4 0.6 0 1 1.6 1.5 3.1 3 4.6 4.5q0.2 0.1 0.3 0.3 0.1 0.1 0.2 0.3 0.1 0.1 0.2 0.3 0 0.2 0.1 0.4z"/><path class="a" d="m34.4 89.2c0 0.9-0.4 1.6-1 1.6-1.5 0-3 0-4.5 0q-2.1 0-4.2 0c-0.8 0-1.3-0.8-1.1-1.8 0-0.8 0.4-1.2 1-1.2q4.4 0 8.8 0c0.6 0 1 0.5 1 1.4z"/><path fill-rule="evenodd" class="a" d="m78 58.3q0 0.3-0.1 0.6-0.1 0.3-0.3 0.5-0.2 0.3-0.5 0.4-0.2 0.1-0.5 0.1c-1.1 0.2-2.1 0.4-3.1 0.6-0.6 0-0.7 0.3-1 0.7-0.9 1.4-0.6 2.5 0.6 3.7 1.9 2.2 1.8 2.3-0.2 4.3-1.1 1.1-2.1 2.1-3.2 3.1q-0.2 0.2-0.5 0.4-0.3 0.2-0.7 0.2-0.3 0-0.7-0.1-0.3-0.1-0.5-0.4-0.2 0-0.3-0.1-0.2-0.1-0.3-0.2-0.2-0.1-0.3-0.3-0.2-0.1-0.3-0.2-0.3-0.4-0.8-0.6-0.4-0.2-0.9-0.3-0.5-0.1-1 0.1-0.5 0.1-0.9 0.4c-0.6 0.3-1 0.5-1 1.2 0 0.8-0.1 1.6-0.2 2.5-0.2 1.2-0.7 1.7-2 1.7-1.5 0-1.5 0-1.5 1.5 0 4.2-0.2 8.6 0 12.8 0.1 4.1-3.2 6.6-6.9 6.6q-22 0-44 0c-4.1 0-6.7-2.5-6.7-6.5v-9c0-1.6 0.4-2.1 2.2-2.1 8.6 0 42.6 0 51.1 0 0.9 0 1.2-0.2 1.1-1q0-0.1 0-0.2 0-0.1 0-0.2 0-0.1 0-0.1 0-0.1 0-0.2c0-1.5 0-1.5-1.4-1.7q-0.3 0-0.6-0.1-0.2-0.1-0.4-0.3-0.2-0.1-0.3-0.4-0.2-0.2-0.2-0.5-0.1-0.2-0.1-0.4 0-0.2-0.1-0.4 0-0.2 0-0.4 0-0.2-0.1-0.4 0.1-0.5 0-0.9-0.2-0.5-0.5-0.9-0.3-0.4-0.7-0.6-0.4-0.3-0.9-0.4c-0.6-0.1-1-0.4-1.6 0.3-0.7 0.6-1.4 1.1-2.1 1.6q-0.3 0.2-0.6 0.4-0.3 0.1-0.7 0.1-0.3 0-0.6-0.2-0.3-0.1-0.5-0.4c-1.5-1.3-2.8-2.7-4.2-4q-0.3-0.2-0.4-0.5-0.2-0.3-0.2-0.6 0-0.3 0.1-0.6 0.1-0.3 0.3-0.6 0.1-0.1 0.2-0.3 0.1-0.1 0.2-0.3 0.1-0.1 0.2-0.3 0.2-0.1 0.3-0.3 0.4-0.3 0.6-0.7 0.2-0.4 0.3-0.9 0.1-0.5 0-0.9-0.2-0.5-0.5-0.9 0-0.2-0.2-0.4-0.1-0.2-0.3-0.3-0.2-0.2-0.4-0.2-0.2-0.1-0.5-0.1-1.2-0.1-2.5-0.3c-1.1-0.1-1.6-0.6-1.6-1.7q0-2.9 0-5.8-0.1-0.3 0-0.6 0.2-0.3 0.4-0.5 0.2-0.3 0.5-0.4 0.3-0.2 0.6-0.2l1.3-0.2c2.4-0.3 2.5-0.4 3.2-2.6q0.1-0.1 0.1-0.2 0-0.1-0.1-0.2 0-0.1 0-0.2-0.1-0.1-0.2-0.2c-0.6-0.8-1.3-1.6-1.9-2.4q-0.2-0.2-0.4-0.5-0.1-0.3-0.1-0.6 0.1-0.3 0.2-0.6 0.2-0.3 0.4-0.5c1.4-1.4 2.8-2.8 4.3-4.1q0.2-0.3 0.5-0.4 0.2-0.2 0.6-0.2 0.3 0 0.6 0.1 0.3 0.1 0.5 0.3c0.8 0.5 1.6 1 2.4 1.6q0.1 0.1 0.3 0.2 0.2 0.1 0.4 0.1 0.2 0 0.4 0 0.2 0 0.3-0.1c1.7-0.5 2.1-1.5 2.2-3 0.1-2.8 0.3-2.9 3.2-2.9h4.4c1.4 0 1.9 0.4 2.1 1.8 0.1 0.8 0.3 1.6 0.4 2.4 0 0.6 0.4 0.8 0.8 1 1.5 0.9 2.6 0.6 3.8-0.5 2.2-1.9 2.3-1.8 4.4 0.2l3.1 3q0.3 0.2 0.5 0.5 0.2 0.3 0.2 0.7 0.1 0.3-0.1 0.6-0.1 0.4-0.3 0.6-0.1 0.2-0.2 0.4-0.2 0.1-0.3 0.3-0.1 0.2-0.2 0.3-0.2 0.2-0.3 0.3-0.4 0.3-0.6 0.7-0.2 0.4-0.3 0.8 0 0.5 0.1 0.9 0.1 0.4 0.3 0.8c0.4 0.7 0.6 1.1 1.5 1.1 0.9 0 1.8 0.2 2.7 0.3q0.3 0 0.6 0.1 0.3 0.1 0.5 0.3 0.2 0.3 0.3 0.6 0.1 0.3 0.1 0.6c0 1.9 0 3.9 0.2 5.9zm-23.4 25.6c0.1-0.8-0.1-1-1-1-8.2 0-16.3 0-24.6 0q-12.4 0-24.8 0c-0.7 0-0.9 0.2-0.9 0.9q0 3.6 0 7.2c0 2.2 1.3 3.4 3.5 3.4h44.3c2.3 0 3.5-1.1 3.5-3.3 0-2.4 0-4.8 0-7.2zm18.9-30.4c-2.4 0.2-3.4-1-4.4-3.1-1.1-2.4-0.9-4 0.8-5.7q0.1-0.1 0.1-0.2 0.1 0 0.2-0.1 0-0.1 0.1-0.2 0-0.1 0.1-0.1 0-0.1-0.1-0.1 0 0 0 0 0-0.1 0-0.1 0 0 0-0.1-0.3-0.3-0.6-0.6-0.3-0.2-0.6-0.5-0.3-0.3-0.6-0.5-0.3-0.3-0.6-0.5c-0.4-0.2-1.1 0.7-1.7 1.1q-0.1 0.1-0.2 0.2-0.1 0-0.2 0.1 0 0-0.1 0.1-0.1 0.1-0.2 0.1-0.2 0.3-0.5 0.5-0.3 0.1-0.7 0.1-0.3 0.1-0.7 0-0.3-0.1-0.6-0.3-0.3-0.2-0.7-0.4-0.3-0.2-0.7-0.3-0.3-0.2-0.7-0.3-0.4-0.1-0.8-0.2-0.4-0.1-0.7-0.2-0.3-0.2-0.6-0.5-0.2-0.3-0.4-0.6-0.1-0.4-0.1-0.8c-0.4-2.8-0.4-2.8-3.4-2.7-0.5 0-0.8 0.1-0.8 0.6 0 0.8-0.2 1.5-0.2 2.3q0 0.4-0.2 0.7-0.1 0.3-0.3 0.6-0.2 0.2-0.5 0.4-0.3 0.2-0.7 0.2-0.4 0.1-0.7 0.2-0.4 0.1-0.7 0.2-0.4 0.2-0.7 0.3-0.3 0.2-0.7 0.4-0.3 0.3-0.7 0.4-0.3 0.1-0.7 0.1-0.4-0.1-0.8-0.2-0.4-0.2-0.7-0.5c-0.7-0.6-1.5-1.5-2.2-1.4-0.8 0.1-1.4 1.2-2.1 1.8l-0.1 0.1c-0.3 0.3-0.3 0.5 0 0.8 0.5 0.7 1 1.4 1.6 2q0.2 0.2 0.4 0.5 0.1 0.3 0.1 0.6 0.1 0.3 0 0.7-0.1 0.3-0.3 0.5-0.2 0.3-0.4 0.7-0.2 0.3-0.3 0.6-0.2 0.4-0.3 0.8-0.1 0.3-0.2 0.7 0 0.4-0.2 0.7-0.2 0.4-0.5 0.7-0.4 0.2-0.7 0.4-0.4 0.1-0.8 0.1c-2.8 0.3-2.8 0.4-2.8 3.1 0 0.7 0.2 1 1 1 0.7 0 1.5 0.1 2.2 0.2q0.3 0 0.6 0.1 0.3 0.1 0.5 0.3 0.3 0.2 0.4 0.4 0.2 0.3 0.2 0.6 0.1 0.4 0.2 0.8 0.2 0.3 0.3 0.7 0.2 0.4 0.4 0.8 0.2 0.3 0.4 0.7 0.2 0.3 0.3 0.6 0.1 0.4 0.1 0.8 0 0.4-0.2 0.7-0.1 0.3-0.4 0.6c-0.6 0.7-1.5 1.5-1.4 2.2 0.1 0.7 1.2 1.3 1.8 2 0.4 0.4 0.6 0.4 1 0 0.6-0.5 1.3-0.9 1.9-1.4q0.2-0.3 0.5-0.4 0.3-0.2 0.7-0.2 0.3 0 0.6 0.1 0.3 0.1 0.6 0.2 0.3 0.2 0.7 0.4 0.3 0.2 0.6 0.3 0.4 0.2 0.8 0.3 0.3 0.1 0.7 0.2 0.4 0 0.7 0.2 0.4 0.2 0.7 0.5 0.3 0.3 0.4 0.7 0.2 0.3 0.2 0.7c0.1 0.9-0.1 2.2 0.5 2.6 0.7 0.4 1.8 0.1 2.8 0.1q0 0 0 0 0 0 0.1 0 0 0 0 0 0.1 0 0.1 0c0.4 0.1 0.6-0.1 0.6-0.5 0.1-0.8 0.2-1.6 0.2-2.4q0-0.4 0.2-0.7 0.1-0.3 0.3-0.6 0.2-0.2 0.5-0.4 0.3-0.1 0.6-0.2 0.4-0.1 0.8-0.2 0.3-0.1 0.7-0.2 0.4-0.2 0.7-0.3 0.3-0.2 0.7-0.4 0.3-0.3 0.7-0.4 0.4-0.1 0.8-0.1 0.4 0.1 0.7 0.2 0.4 0.2 0.7 0.5c0.7 0.5 1.5 1.5 2.2 1.4 0.8-0.1 1.4-1.2 2.1-1.9 0.4-0.3 0.4-0.6 0-1-0.4-0.5-0.9-1.2-1.4-1.8q-0.3-0.2-0.4-0.5-0.2-0.3-0.2-0.6 0-0.3 0.1-0.6 0.1-0.4 0.2-0.6 0.2-0.3 0.4-0.6 0.1-0.2 0.2-0.5 0.2-0.3 0.3-0.6 0.1-0.3 0.1-0.6c0.3-1.7 1.3-2.3 2.9-2.4 2.3-0.3 2.2-0.4 2.3-2.6 0-1-0.2-1.5-1.2-1.4z"/><path class="a" d="m39.1 7.5c0 0.9-1.1 1.5-3 1.5h-6.3q-3.3 0-6.5 0c-1.8 0-2.9-0.6-3-1.5 0-0.8 1.2-1.5 2.9-1.5q6.5 0 13 0c1.8 0 2.9 0.6 2.9 1.5z"/><path fill-rule="evenodd" class="a" d="m57.8 22.3c0 0.8-0.2 1.5-1 1.8-1.2 0.4-2.2-0.3-2.2-1.7 0-2.2 0-4.4 0-6.6 0-0.7-0.2-0.9-0.9-0.9q-24.7 0-49.4 0c-1 0-1 0.3-1 1q0 28.7 0 57.4c0 1.7-0.5 2.4-1.6 2.4-1 0-1.5-0.7-1.5-2.4v-66.2c0-4.1 2.6-6.6 6.8-6.6h44c4.1 0 6.7 2.5 6.7 6.5 0 5.1 0 10.2 0.1 15.3zm-3.2-11.4q0-2.1 0-4.2 0-0.7-0.2-1.3-0.2-0.6-0.7-1.1-0.5-0.4-1.1-0.6-0.6-0.2-1.3-0.2-22.4 0-44.8 0-0.6 0-1.2 0.2-0.6 0.2-1.1 0.7-0.5 0.5-0.7 1.1-0.2 0.6-0.2 1.2c0 1.4 0.1 2.8 0 4.1-0.1 0.9 0.2 1.1 1.1 1.1 8.1 0 16.3 0 24.5 0q12.4 0 24.7 0c0.8 0 1.1-0.2 1-1z"/><path fill-rule="evenodd" class="a" d="m56.2 47.6c2.1 0 4.2 0.8 5.7 2.3 1.5 1.5 2.3 3.6 2.3 5.7 0 2.1-0.8 4.1-2.3 5.6-1.5 1.5-3.6 2.4-5.7 2.4-2.1 0-4.2-0.9-5.7-2.4-1.5-1.5-2.3-3.5-2.3-5.6 0-2.1 0.8-4.2 2.3-5.7 1.5-1.5 3.6-2.3 5.7-2.4zm3.7 11.5q0.6-0.7 1-1.4 0.3-0.8 0.4-1.7 0.1-0.8-0.1-1.7c-0.4-1.1-1-2-2-2.7-0.9-0.7-2-1-3.2-1-1.1 0-2.2 0.4-3.1 1.2-0.9 0.7-1.5 1.7-1.8 2.8q-0.2 0.8-0.1 1.6 0.2 0.9 0.5 1.6 0.4 0.7 1 1.3 0.6 0.6 1.3 1c0.6 0.3 0.8 0.2 0.8-0.5q0-2.3 0-4.6c0-1.2 0.6-1.9 1.5-1.9 1 0 1.6 0.7 1.6 1.8 0 0.8 0 1.4 0 2.2 0 0.8 0.1 1.7 0 2.4 0 0.8 0.2 0.9 0.9 0.6q0.7-0.4 1.3-1z"/></svg>