<svg version="1.2" xmlns="http://www.w3.org/2000/svg" viewBox="0 0 98 98" width="98" height="98"><style>.a{fill:#47b2e4}</style><path fill-rule="evenodd" class="a" d="m86.7 64.8c-9.1 3.3-19.2-1.9-21.8-11.3-2.7-9.3 3.3-19 12.8-20.9 1.8-0.4 1.8-0.4 1.8-2.3q0-4.4 0-8.8c0-0.5-0.1-0.8-0.7-0.8-3.9-0.2-7.4-1.7-11.1-2.7-4-1.1-7.9-2.3-11.8-3.5-0.7-0.2-0.8 0-0.8 0.6q0 30.3 0 60.6c0 0.6 0.2 0.8 0.8 0.8 5-0.1 10.1 0 15.2-0.1 1.3 0 2 0.5 2.5 1.6 1.1 2.4 2.3 4.6 3.5 7 0.2 0.4 0.4 0.6 1 0.6q2.8 0 5.7 0c1.2 0 1.8 0.6 1.8 1.8 0 2.7 0 5.5 0 8.2 0 0.9-0.2 1.7-1 2.2h-71.3c-0.9-0.2-1.2-0.8-1.2-1.7q0-4.4 0-8.8c0-1.3 0.7-1.9 2.1-2 1.1 0 2.2 0 3.3 0 3.4 0 2.6 0.5 4.2-2.5 0.8-1.7 1.7-3.3 2.4-5 0.6-1.2 1.4-1.7 2.7-1.6 4.8 0 9.6 0 14.4 0 1.4 0 1.4-0.1 1.4-1.3q0-29.6 0-59c0-1.1 0-1.2-1-0.9-5.8 1.7-11.5 3.4-17.3 5q-0.5 0.2-1 0.3-0.6 0.2-1.1 0.3-0.6 0.1-1.1 0.2-0.6 0-1.1 0.1c-1.1 0.1-1.2 0.3-1.2 1.3-0.1 2.9 0 5.8-0.1 8.8 0 0.7 0.3 1.1 1.1 1.2 8.7 1.6 14.5 8.8 14.2 17.6-0.2 7.8-6.6 14.9-14.4 16-8.3 1.2-15.8-3.2-18.7-11.1-0.5-1.2-0.5-2.4-0.7-3.6v-4.2c0.2-3.9 2-7.2 4.7-9.9q0.9-1 2-1.8 1.1-0.7 2.2-1.4 1.2-0.6 2.5-1 1.2-0.4 2.5-0.6c0.8-0.1 1.1-0.4 1.1-1.2 0-3 0-5.9 0-8.9 0-1.2 0-1.2-1.2-1.4-4.7-0.8-8.9-2.8-12.3-6.1-0.8-0.8-1.4-1.7-1.5-2.8v-1.9c0.5-1.5 1.4-2.8 3-3.3 1.8-0.7 3.5-0.2 4.9 1.1q4.3 4.1 10.2 3.9 0.4 0 0.9-0.1 0.4 0 0.8-0.1 0.5-0.1 0.9-0.2 0.4-0.1 0.8-0.2 9.7-2.8 19.4-5.6 0.2-0.1 0.3-0.2 0.2-0.1 0.4-0.2 0.1-0.1 0.2-0.3 0.1-0.1 0.2-0.3c1.4-2.7 3.6-4.2 6.7-4.2 3 0 5.3 1.4 6.8 4.1q0.1 0.2 0.2 0.4 0.2 0.2 0.4 0.3 0.2 0.2 0.4 0.3 0.2 0.1 0.4 0.1c6.4 1.8 12.7 3.7 19.1 5.6 5.2 1.5 9.8 0.3 13.7-3.3 2-1.8 4.5-1.9 6.3-0.3 2 1.8 2.2 4.7 0.3 6.6q-1.2 1.3-2.6 2.3-1.4 1-2.9 1.9-1.6 0.8-3.2 1.3-1.7 0.6-3.4 0.9c-1.9 0.3-1.9 0.3-1.9 2.2q0.1 4.5 0 8.9c0 0.6 0.1 0.8 0.7 0.9 7.9 1 13.8 7.2 14.6 15.2 0.7 7.4-4 14.6-11.1 17.2zm-57.1-21c-0.6-1.7-1.7-3.2-2.9-4.5-1.3-1.3-2.8-2.3-4.5-3-1.6-0.7-3.4-1-5.2-1-7.6 0-13.8 6.1-13.8 13.6 0 7.6 6.1 13.8 13.7 13.8 1.8 0 3.6-0.3 5.2-1 1.7-0.7 3.2-1.7 4.5-3 1.3-1.3 2.3-2.8 3-4.4 0.7-1.7 1.1-3.5 1.1-5.3 0-1.8-0.4-3.6-1.1-5.2zm12.2-33.6q0-0.1-0.1-0.2 0-0.1-0.1-0.2 0-0.1 0-0.3 0-0.1 0-0.2c0-0.8-0.3-0.8-1-0.6q-9.1 2.6-18.3 5.3-0.9 0.3-1.9 0.4-1 0.2-2 0.2-0.9 0.1-1.9 0-1 0-2-0.2-1.2-0.3-2.3-0.7-1.1-0.3-2.2-0.9-1.1-0.5-2.1-1.2-0.9-0.7-1.8-1.6c-0.5-0.4-1-0.8-1.7-0.6q-0.2 0-0.4 0.1-0.1 0.1-0.3 0.3-0.1 0.1-0.3 0.3-0.1 0.1-0.1 0.3c-0.2 0.7 0.1 1.3 0.6 1.7 3.8 3.7 8.4 5.5 13.1 5.6 2.3 0 4-0.2 5.7-0.7q9.2-2.6 18.3-5.3c1.2-0.3 1.2-0.3 0.8-1.5zm5.5-6.7q-0.8 0.4-1.5 1-0.6 0.6-1 1.5-0.4 0.8-0.4 1.7c0 1.9 1.1 3.6 2.7 4.3 1.7 0.7 3.7 0.4 5-0.9 1.4-1.3 1.8-3.2 1.2-4.9-0.7-1.8-2.3-2.9-4.2-3q-0.9 0-1.8 0.3zm-1.4 72.2q0 0 0 0 0 0.1 0 0.1 0 0 0 0.1c0 0.4 0.1 0.6 0.6 0.6 1.5-0.1 3-0.1 4.5 0 0.9 0 1.1-0.2 1.1-1.1q-0.1-29.7-0.1-59.5v-1.1q-0.7 0.3-1.4 0.5-0.8 0.1-1.6 0.1-0.8 0-1.5-0.1-0.8-0.2-1.5-0.5c0 0.3-0.1 0.6-0.1 0.8v60q0 0 0 0.1zm35.6 12.9q0 0 0 0 0 0 0 0zm0 0q-32.5 0-65 0-0.1 0-0.1 0-0.1 0-0.2 0 0 0-0.1 0 0 0-0.1 0c-0.5 0-0.6 0.2-0.6 0.6 0.1 1.5 0.1 3.1 0 4.6 0 0.8 0.2 1 1 1q16.2 0 32.5 0h19.9q6.5-0.1 13 0c0.6 0 0.8-0.2 0.8-0.8-0.1-1.4-0.1-2.9 0-4.3 0-0.9-0.3-1.1-1.1-1.1zm-53.6-9.1c-0.3 0-0.8-0.2-1 0.3q-1.4 2.8-2.9 5.8h50c-0.9-1.9-1.9-3.6-2.7-5.4-0.3-0.6-0.6-0.7-1.2-0.7q-7.2 0-14.5 0-13.8 0-27.7 0zm47.3-62.5c4.7 1.3 9.2 0.8 13.5-1.2q0.8-0.3 1.5-0.8 0.8-0.4 1.5-0.9 0.7-0.4 1.3-1 0.7-0.5 1.2-1.1c0.7-0.7 0.7-1.5 0.1-2.2-0.5-0.6-1.4-0.6-2.1-0.1-0.2 0.2-0.5 0.5-0.7 0.7-3.8 3.2-8.1 4.7-13.1 4.1-2.7-0.3-5.3-1.3-7.9-2-4.4-1.2-8.7-2.6-13.1-3.8-0.3-0.1-0.8-0.5-0.9 0.2-0.1 0.8-0.5 1.6-0.7 2.4q0.2 0.1 0.4 0.2c6.4 1.8 12.7 3.7 19 5.5zm13.5 43.3c5.2-3.4 7.3-10 5.3-15.9-2.1-5.8-8-9.7-14.1-9.1-6.2 0.6-11.4 5.3-12.4 11.3-1.1 6.5 2.7 12 5.9 13.6-0.1-0.6 0.3-1.3-0.4-1.8-1-0.7-1.3-1.7-1.1-2.9 0-0.5-0.1-0.7-0.6-1q-0.7-0.3-1.2-0.9-0.6-0.5-0.9-1.2-0.3-0.7-0.4-1.5 0-0.8 0.2-1.5c0.2-1 0.8-1.9 1.6-2.5 0.8-0.6 1.8-1 2.8-1 1 0 2 0.4 2.8 1 0.8 0.6 1.4 1.5 1.6 2.5 0.5 2-0.4 4.1-2.3 5.1-0.6 0.4-0.9 1.3-0.3 1.7 1.3 1 1.3 2.3 1.3 3.7-0.1 2.3-0.1 2.3 2.2 2.6 0.6 0.1 0.8 0 0.8-0.7q0-6.9 0-13.9c0-0.5-0.1-0.8-0.6-1q-0.7-0.4-1.2-0.9-0.5-0.6-0.9-1.3-0.3-0.7-0.3-1.4-0.1-0.8 0.1-1.5c0.2-1 0.8-1.9 1.6-2.5 0.8-0.6 1.8-1 2.8-1 1 0 2 0.3 2.8 1 0.8 0.6 1.4 1.4 1.6 2.4q0.2 0.8 0.2 1.5-0.1 0.8-0.4 1.5-0.3 0.7-0.8 1.3-0.5 0.5-1.2 0.9c-0.6 0.2-0.7 0.5-0.7 1.1q0.1 6.7 0.1 13.5c0 1.2 0 1.2 1.1 0.9 1.9-0.4 1.9-0.4 1.9-2.3 0-1.5-0.1-2.9 1.3-3.9 0.6-0.4 0.3-1.3-0.4-1.7-1.9-1-2.8-3-2.3-5.1 0.2-0.9 0.8-1.8 1.6-2.5 0.8-0.6 1.8-1 2.8-1 1 0 2 0.3 2.8 1 0.8 0.6 1.4 1.4 1.7 2.4q0.2 0.8 0.1 1.5 0 0.8-0.3 1.5-0.3 0.7-0.9 1.3-0.5 0.5-1.2 0.9c-0.5 0.3-0.7 0.6-0.6 1.1 0.1 0.9 0 1.9-0.8 2.4-0.8 0.6-0.8 1.4-0.7 2.3zm-7.8-15.9q0.3 0 0.6-0.1 0.3-0.1 0.6-0.3 0.2-0.2 0.3-0.5 0.1-0.3 0.1-0.6c0-0.6-0.3-1.2-0.9-1.4-0.5-0.3-1.2-0.2-1.6 0.3-0.5 0.4-0.6 1-0.4 1.6 0.2 0.6 0.7 1 1.3 1zm6.2 6.1q0 0.3 0.1 0.5 0.2 0.3 0.4 0.6 0.2 0.2 0.5 0.3 0.3 0.1 0.6 0.1c0.6 0 1.1-0.4 1.4-0.9 0.2-0.6 0.1-1.2-0.4-1.7-0.4-0.4-1-0.5-1.6-0.3-0.6 0.2-1 0.7-1 1.3zm-13.7 1.6q0.3 0 0.6-0.1 0.3-0.1 0.5-0.3 0.2-0.3 0.3-0.5 0.1-0.3 0.1-0.7c0-0.6-0.4-1.1-0.9-1.3-0.6-0.3-1.2-0.1-1.7 0.3-0.4 0.4-0.5 1.1-0.3 1.6 0.2 0.6 0.7 1 1.4 1z"/><path class="a" d="m21.4 44.4c-0.7 0-1.4 0.2-1.7-0.8-0.1-0.5-0.7-0.7-1.3-0.7-1 0-1.9 0-2.9 0-1 0-1.5 0.6-1.6 1.6q0 0.4 0 0.9c0 1.6 0.5 2.1 2 2.1q1.4-0.1 2.7 0 0.9 0 1.7 0.3 0.8 0.4 1.4 1 0.6 0.6 1 1.4 0.3 0.9 0.3 1.7 0.1 0.3 0.1 0.6 0 0.3 0 0.6 0 0.3-0.1 0.5 0 0.3 0 0.6-0.1 0.7-0.4 1.4-0.3 0.7-0.9 1.2-0.5 0.5-1.1 0.8-0.7 0.4-1.4 0.5c-0.6 0.1-0.8 0.2-0.7 0.8 0.1 0.7-0.2 0.9-0.8 0.8q-0.1 0-0.2 0-0.2 0-0.3 0-0.1 0-0.2 0-0.1 0-0.3 0c-0.8 0.1-1.5 0-1.3-1.2 0.1-0.5-0.3-0.3-0.5-0.4-2.1-0.3-3.6-1.7-4-3.7-0.1-0.6-0.1-0.9 0.6-0.8q0.2 0 0.3 0 0.2 0 0.3 0 0.2 0 0.3 0 0.1 0 0.3 0c0.6 0 1.3-0.2 1.5 0.8 0.1 0.5 0.7 0.7 1.3 0.7q1.4 0 2.9 0c1 0 1.5-0.6 1.6-1.6q0-0.6 0-1.2 0-1.7-1.7-1.8c-1 0-2 0-3 0q-0.9 0-1.7-0.3-0.8-0.4-1.4-1-0.7-0.6-1-1.5-0.3-0.8-0.4-1.7 0-0.3 0-0.6 0-0.3 0-0.6 0-0.3 0.1-0.6 0-0.3 0-0.5 0.1-0.7 0.4-1.4 0.4-0.6 0.9-1.1 0.5-0.5 1.1-0.8 0.6-0.3 1.3-0.5c0.6-0.1 1-0.2 0.8-0.9-0.1-0.6 0.2-0.7 0.7-0.7q0.2 0 0.3 0 0.1 0.1 0.3 0.1 0.1 0 0.2-0.1 0.2 0 0.3 0c0.8-0.1 1.5 0 1.3 1.1-0.1 0.6 0.3 0.4 0.6 0.5 2 0.4 3.3 1.6 3.8 3.6 0.2 0.7 0.2 1.1-0.7 0.9q-0.1 0-0.2 0-0.1 0-0.2 0-0.1 0-0.2 0-0.1 0-0.2 0z"/></svg>