<svg version="1.2" xmlns="http://www.w3.org/2000/svg" viewBox="0 0 96 96" width="96" height="96"><style>.a{fill:#47b2e4}</style><path fill-rule="evenodd" class="a" d="m80.1 74.9c0 1.7 0 3.5 0 5.4q0.6-0.5 1.2-0.9 0.6-0.5 1.2-0.9 0.7-0.3 1.4-0.6 0.6-0.3 1.4-0.5 0.4-0.1 0.9-0.1 0.5-0.1 1-0.1 0.5-0.1 1-0.1 0.5 0 1 0 2.8 0 5.6 0c0.5 0 0.7 0.1 0.7 0.6 0.1 1.6-0.1 3.1-0.6 4.6-0.5 1.4-1.4 2.7-2.4 3.8-1.1 1.1-2.4 2-3.8 2.6-1.4 0.6-3 0.8-4.5 0.7q-1.7 0-3.4 0c-0.5 0-0.7 0.1-0.7 0.7 0 2.4-0.1 2.4 2.3 2.4q6.1 0 12.1 0c0.8 0 0.9 0.2 0.9 1 0 2.1 0 2.1-2.1 2.1q-45.8-0.1-91.7 0c-1 0-1.1-0.3-1.1-1.2 0.1-1.9 0-1.9 2-1.9q6.2 0 12.4 0c0.7 0 1-0.1 1-0.9-0.1-2.2 0-2.2-2.2-2.2-2.5 0-4.9 0-7.2-1.1q-1.5-0.8-2.6-1.9-1.2-1.1-2-2.6-0.8-1.4-1.1-3-0.4-1.6-0.2-3.2c0-0.3 0-0.5 0.4-0.5 3.1 0.1 6.3-0.2 9.4 0.3q0.8 0.1 1.6 0.4 0.7 0.3 1.4 0.7 0.7 0.3 1.3 0.8 0.6 0.5 1.2 1.1v-6c0-0.5-0.4-0.3-0.6-0.3q-0.7 0-1.5 0-0.7 0-1.4 0-0.7-0.1-1.4-0.1-0.7 0-1.5-0.1c-1.3-0.2-2.6-0.7-3.7-1.4-1.2-0.7-2.2-1.6-3.1-2.7-0.8-1-1.4-2.3-1.8-3.6-0.4-1.3-0.5-2.6-0.4-4 0-0.2 0-0.4 0.4-0.4 3.2 0.1 6.5-0.4 9.8 0.3q0.7 0.2 1.4 0.4 0.7 0.3 1.4 0.7 0.6 0.3 1.2 0.8 0.6 0.5 1.1 1c0-3.1 0-6 0-8.8 0-0.6-0.2-0.7-0.6-0.7-3.8-0.5-7.3-2.3-9.9-5-2.6-2.7-4.3-6.2-4.7-10-0.4-3.8 0.5-7.6 2.6-10.8 2-3.2 5.1-5.6 8.6-6.9 1.7-0.5 3.4-0.8 5.2-0.9 1.7 0 3.4 0.2 5.1 0.7 1.7 0.5 3.2 1.2 4.7 2.2 1.4 1 2.7 2.2 3.7 3.6 0.5 0.6 0.8 0.6 1.4 0.3q0.3-0.2 0.7-0.4 0.3-0.1 0.7-0.3 0.3-0.1 0.7-0.3 0.4-0.1 0.7-0.2 0.2 0 0.4-0.1 0.1-0.1 0.2-0.3 0.2-0.1 0.2-0.3 0.1-0.1 0.1-0.3c0.5-4.6 0.9-9.3 2.6-13.7q0.5-1.4 1.1-2.8 0.7-1.3 1.4-2.6 0.8-1.3 1.6-2.6 0.9-1.2 1.9-2.4 0.6-0.9 1.7-1.4 1-0.5 2.1-0.5 1.2 0 2.2 0.5 1 0.5 1.7 1.4 1.7 2.1 3 4.4 1.4 2.3 2.4 4.7 1 2.5 1.7 5.1 0.6 2.6 0.9 5.2c0.1 1.6 0.4 3.3 0.5 4.9q0 0.1 0 0.2 0.1 0.2 0.2 0.3 0.1 0.1 0.2 0.1 0.1 0.1 0.2 0.1 0.4 0.1 0.8 0.3 0.5 0.1 0.9 0.3 0.4 0.2 0.8 0.4 0.4 0.2 0.8 0.4c0.5 0.3 0.7 0.1 1-0.3q1.2-1.6 2.8-2.8 1.5-1.3 3.3-2.2 1.8-0.8 3.8-1.2 1.9-0.4 3.9-0.4c2.3 0.1 4.6 0.7 6.7 1.7 2.1 1 4 2.4 5.6 4.2 1.5 1.7 2.6 3.8 3.3 6 0.7 2.3 0.9 4.6 0.6 6.9-1 7.8-6.6 13.4-14.5 14.7-0.4 0-0.6 0.1-0.6 0.6 0 2.9 0 5.8 0 8.9q0.3-0.3 0.7-0.6 0.3-0.3 0.7-0.6 0.4-0.3 0.8-0.5 0.4-0.2 0.8-0.5 0.5-0.2 1-0.4 0.5-0.2 1.1-0.3 0.5-0.1 1.1-0.2 0.5 0 1.1-0.1 3.6 0 7.3 0c0.3 0 0.6 0 0.6 0.5q0.2 2-0.3 3.9-0.6 1.9-1.8 3.5-1.1 1.6-2.8 2.7-1.7 1.1-3.6 1.5-0.7 0.1-1.5 0.2-0.7 0-1.4 0.1-0.8 0-1.5 0-0.8 0-1.5-0.1c-0.7 0-0.9 0.2-0.9 0.9zm0.5-5c-0.4 1.1-0.4 1.1 0.8 1.1 0.6 0 3 0 3.6 0q1.2-0.1 2.3-0.5 1.2-0.4 2.1-1.2 0.9-0.7 1.6-1.7 0.7-1 1-2.1c0.2-0.6 0.1-0.7-0.5-0.7q-1.9 0-3.9 0-1.1 0.1-2.2 0.4-1.1 0.4-2.1 1.1-0.9 0.6-1.6 1.5-0.7 1-1.1 2zm-65 0.6q-0.3-0.9-0.7-1.8-0.5-0.8-1.2-1.5-0.6-0.6-1.4-1.1-0.8-0.5-1.7-0.8-0.5-0.2-1-0.2-0.5-0.1-1-0.2-0.5 0-1 0-0.5 0-1 0c-0.7 0-1.4 0-2 0-0.6 0-0.9 0.1-0.6 0.8q0.3 0.9 0.8 1.8 0.5 0.8 1.3 1.5 0.7 0.7 1.6 1.2 0.9 0.4 1.9 0.7c1.9 0.4 3.8 0.1 5.7 0.2 0.5 0 0.3-0.4 0.3-0.6zm-4.4 15.8q0.7 0.1 1.4 0.1 0.8 0 1.5 0 0.8 0 1.5 0-0.2-1.1-0.7-2.1-0.5-1-1.3-1.8-0.7-0.8-1.7-1.3-1-0.6-2.1-0.8c-2-0.4-3.9-0.1-6-0.2q0.2 1.1 0.7 2.1 0.5 1 1.3 1.8 0.8 0.8 1.8 1.3 1 0.6 2.1 0.8 0.7 0.1 1.5 0.1zm73.7-5.5q-1.2 0.5-2.1 1.3-1 0.9-1.6 2-0.6 1.1-0.8 2.3 2.2 0 4.4 0 0.7 0 1.3-0.1 0.6-0.1 1.2-0.4 0.6-0.2 1.2-0.5 0.6-0.3 1-0.7 0.6-0.4 1-0.9 0.4-0.5 0.8-1.1 0.3-0.6 0.5-1.2 0.3-0.6 0.4-1.2c-1.7 0-3.3-0.1-4.9 0q-1.2 0.1-2.4 0.5zm-17.2-43.5q0 0 0 0zm0 0c-0.9-3.6-3.5-5.3-6.8-6.7 0.2 2.3 0.5 4.3 0.7 6.3 0 0.4 0.1 0.4 0.4 0.4zm-23.4-28.6q0.4 0.3 0.9 0.5 0.5 0.2 1 0.3 0.5 0.1 1.1 0.2 0.5 0.1 1 0 0.5 0 0.9-0.1 0.5 0 0.9-0.2 0.5-0.1 0.9-0.3 0.4-0.2 0.8-0.4c0.4-0.2 0.4-0.4 0.2-0.7q-0.3-0.5-0.6-1-0.3-0.4-0.7-0.9-0.3-0.4-0.6-0.9-0.4-0.4-0.7-0.8-0.3-0.4-0.6-0.6-0.4-0.2-0.8-0.2-0.4 0-0.8 0.2-0.4 0.2-0.6 0.6-0.4 0.4-0.7 0.8-0.4 0.4-0.7 0.9-0.3 0.4-0.6 0.9-0.3 0.4-0.6 0.9c-0.3 0.5-0.1 0.7 0.3 0.8zm-6.3 29.5q1.1 0.5 2.4 0.9 1.2 0.4 2.5 0.7 1.2 0.3 2.5 0.4 1.3 0.2 2.6 0.3 1.2-0.1 2.4-0.2 1.1-0.2 2.3-0.4 1.2-0.3 2.4-0.6 1.1-0.4 2.2-0.8c1.4-0.5 1.3-0.5 1.2-1.9-0.5-4.5-1.1-8.9-1.5-13.4q-0.1-1.4-0.4-2.9-0.2-1.4-0.5-2.9-0.4-1.4-0.9-2.8-0.4-1.4-1-2.8c-0.3-0.5-0.4-0.7-1-0.3q-1.2 0.6-2.5 1-1.3 0.3-2.6 0.3-1.4 0-2.7-0.3-1.3-0.4-2.4-1c-0.6-0.3-0.8-0.2-1 0.3q-0.3 0.7-0.6 1.4-0.3 0.7-0.5 1.4-0.3 0.7-0.5 1.5-0.2 0.7-0.4 1.4c-0.9 3.6-1.1 7.3-1.5 10.9-0.4 2.9-0.7 5.8-1 8.7-0.1 0.4-0.2 0.8 0.5 1.1zm39.1 41.3c0-0.7-0.2-0.7-0.8-0.7q-1.6 0-3.3 0c-6.8-0.1-11.5-4.9-11.2-11.7 0-0.5 0.1-0.6 0.6-0.6 2.5 0 5 0 7.5 0q0.2 0 0.5 0.1 0.2 0 0.5 0 0.2 0 0.5 0.1 0.2 0 0.5 0.1 0.7 0.2 1.4 0.4 0.7 0.3 1.3 0.6 0.6 0.4 1.2 0.8 0.6 0.5 1.2 1c0-0.1 0.1-0.2 0.1-0.2q0-6.6 0-13.2c0-0.5-0.3-0.6-0.7-0.6q-0.4 0-0.8-0.1-0.4-0.1-0.8-0.2-0.3 0-0.7-0.2-0.4-0.1-0.8-0.2c-6.4-2.4-10.3-7-11.4-13.9 0-0.4-0.2-0.6-0.7-0.6q-0.3 0-0.5 0.1-0.3 0-0.6 0.1-0.3 0.1-0.5 0.2-0.3 0.1-0.5 0.2c-0.7 0.2-1.2 0.5-0.8 1.3q0 0.2 0.1 0.4 0 0.2 0 0.4 0.1 0.2 0.1 0.4 0 0.2 0 0.4c0.3 2 0.3 2-1.4 3-3.1 1.7-6.3 2.9-9.8 2.7q-1.3-0.1-2.6-0.4-1.3-0.3-2.5-0.8-1.3-0.4-2.4-1-1.2-0.6-2.3-1.4-0.1 0-0.2-0.1 0-0.1-0.1-0.2 0-0.1 0-0.2 0-0.1 0-0.3c0.2-1 0.4-2.1 0.5-3.2 0.1-0.2 0.3-0.5-0.2-0.7-0.7-0.3-1.4-0.6-2.2-0.9-1-0.2-1.2 0-1.3 1q-0.1 0.8-0.3 1.5-0.2 0.8-0.4 1.6-0.3 0.7-0.6 1.4-0.3 0.7-0.7 1.4-1 1.7-2.3 3.1-1.3 1.4-2.9 2.5-1.6 1.1-3.4 1.8-1.8 0.6-3.7 0.9c-0.3 0-0.7-0.1-0.7 0.4v4.4q0.5-0.5 1.2-1 0.6-0.5 1.3-0.9 0.7-0.4 1.4-0.6 0.8-0.3 1.6-0.5c3.1-0.5 6.3-0.1 9.4-0.2 0.4 0 0.4 0.2 0.4 0.5q0.1 1.9-0.4 3.8-0.5 1.8-1.6 3.4-1.1 1.5-2.6 2.6-1.6 1.1-3.5 1.6-0.7 0.2-1.5 0.3-0.8 0.1-1.6 0.1-0.8 0-1.6 0-0.8 0-1.5 0c-0.8 0-1 0.1-1 1q0 9.5 0 19.1c0 1-0.5 2.3 0.1 2.8 0.6 0.4 1.9 0.1 2.9 0.1 0 0 0-0.1 0.1-0.1-0.2-1.1-0.2-2.2 0.1-3.3 0.3-1.1 0.8-2.2 1.6-3 0.7-0.9 1.6-1.6 2.6-2.1 1.1-0.4 2.2-0.7 3.3-0.7 0.6 0 0.7-0.3 0.9-0.6q0.6-1 1.4-1.8 0.8-0.8 1.8-1.3 1-0.6 2.1-0.8 1.1-0.2 2.2 0 0.2 0 0.3 0 0.2 0 0.3-0.1 0.1 0 0.2-0.1 0.2-0.1 0.2-0.3 0.4-0.4 0.8-0.7 0.4-0.4 0.8-0.7 0.5-0.3 1-0.5 0.5-0.2 1-0.4c0.6-0.1 0.7-0.4 0.7-1q0-9.9 0-20c0-2.3 0-2.3 2.3-2.3 0.6 0 0.8 0.2 0.8 0.8q0 12.3 0 24.5c0 0.7-0.2 0.8-0.8 0.8q-0.8-0.1-1.6 0.1-0.9 0.1-1.6 0.6-0.7 0.4-1.2 1.1-0.5 0.6-0.8 1.4c-0.2 0.6-0.5 0.7-1 0.4q-0.1 0-0.2-0.1-0.1 0-0.2-0.1-0.1 0-0.2 0-0.1-0.1-0.3-0.1-0.8-0.3-1.8-0.2-0.9 0.1-1.7 0.5-0.8 0.4-1.4 1.2-0.6 0.7-0.8 1.6c-0.2 0.6-0.1 1.5-0.6 1.7-0.4 0.2-1.2-0.2-1.8-0.3q-1-0.3-2.1 0-1 0.3-1.8 1-0.9 0.7-1.3 1.7-0.4 1-0.3 2.1c0.1 0.8 0.3 1.2 1.3 1.2q21.4 0 42.7 0 0.2 0 0.3 0 0.1 0 0.2 0 0.2 0 0.3 0 0.1 0 0.2 0c0.5 0 0.7-0.2 0.9-0.7q0.2-1-0.1-2.1-0.3-1-1-1.9-0.8-0.8-1.8-1.1-1-0.4-2.1-0.3c-0.8 0.1-1.6 0.7-2.2 0.4-0.6-0.3-0.4-1.4-0.7-2.1-1-2.5-3.5-3.6-6.3-2.5-0.7 0.3-1 0.2-1.4-0.5q-0.2-0.7-0.7-1.3-0.5-0.6-1.2-1.1-0.7-0.4-1.4-0.5-0.8-0.2-1.6-0.1c-0.7 0.1-0.9-0.2-0.9-0.9q0-11.5 0-23c0-2.2 0-2.2 2.1-2.2 0.8 0 1 0.2 1 0.9q0 10.8 0 21.5c0 0.6 0.1 0.8 0.7 1q0.5 0.1 1 0.4 0.5 0.2 1 0.5 0.4 0.3 0.8 0.7 0.4 0.3 0.8 0.8 0 0.1 0.2 0.2 0.1 0.1 0.2 0.1 0.1 0.1 0.2 0.1 0.2 0 0.3 0 0.9-0.1 1.8 0 0.8 0.1 1.7 0.4 0.8 0.2 1.5 0.7 0.8 0.5 1.4 1.1c0.6 0.7 0.9 1.8 1.6 2.2 0.7 0.4 1.8 0.1 2.7 0.4q0.6 0.2 1.2 0.5 0.6 0.3 1.1 0.6 0.6 0.4 1 0.9 0.5 0.5 0.9 1 0.4 0.6 0.7 1.4 0.3 0.7 0.5 1.4 0.1 0.8 0.1 1.6 0 0.7-0.1 1.5 1.3 0 2.6 0c0.5 0 0.6-0.2 0.6-0.7q-0.1-6.2 0-12.4zm-46.6-46.1q-0.4 0.4-0.7 0.8-0.3 0.3-0.6 0.8-0.3 0.4-0.5 0.9-0.2 0.4-0.3 0.9c-0.1 0.4-0.2 0.6 0.4 0.6q2.5 0 5.1 0c0.3 0 0.5-0.1 0.5-0.5 0.2-2 0.5-4 0.7-6.1q-0.6 0.2-1.3 0.4-0.6 0.3-1.2 0.7-0.5 0.3-1.1 0.7-0.5 0.4-1 0.8zm-25.6 11.4c0.8 1.6 1.8 3 3 4.2 1.3 1.2 2.8 2.1 4.4 2.8 1.6 0.6 3.3 0.9 5 0.9q0.8 0.1 1.6 0 0.7-0.1 1.5-0.3 0.7-0.1 1.5-0.4 0.7-0.3 1.4-0.6 1.5-0.7 2.7-1.8 1.3-1 2.3-2.3 1-1.3 1.7-2.8 0.6-1.4 0.9-3.1c0.2-0.8 0-1-0.8-1-1.5 0.1-3 0-4.4 0-0.4 0-0.7 0.1-0.7-0.5q-0.1-1.1 0-2.3 0.2-1.1 0.6-2.2 0.4-1.1 1.1-2.1 0.6-1 1.4-1.8c0.5-0.4 0.5-0.7 0.1-1.1q-1.1-1.5-2.6-2.6-1.4-1.1-3.1-1.7-1.7-0.7-3.5-0.9-1.8-0.2-3.6 0.1c-1.7 0.2-3.4 0.8-4.9 1.6-1.5 0.9-2.8 2-3.9 3.4-1 1.3-1.9 2.8-2.4 4.5-0.5 1.6-0.7 3.4-0.6 5.1 0.2 1.7 0.6 3.4 1.3 4.9zm50.2-0.3c0.8-0.5 0.2-1.1 0.1-1.7-0.1-0.7-0.6-0.2-0.9-0.2q-1.5 0.5-3.1 0.7-1.6 0.2-3.2 0.2-1.6 0-3.2-0.2-1.6-0.2-3.1-0.7c-0.3 0-0.8-0.4-0.9 0.1-0.1 0.6-0.8 1.3 0.1 1.8q0.8 0.5 1.7 0.8 0.8 0.4 1.7 0.7 0.9 0.2 1.8 0.4 1 0.1 1.9 0.2 0.9-0.1 1.8-0.2 1-0.2 1.9-0.5 0.8-0.2 1.7-0.6 0.9-0.4 1.7-0.8zm-30.9 22q1.2-0.1 2.4-0.6 1.1-0.5 2-1.3 1-0.8 1.6-1.9 0.6-1.1 0.8-2.3c-1.7 0-3.4-0.1-5 0q-1.3 0.1-2.4 0.6-1.1 0.4-2.1 1.3-0.9 0.8-1.5 1.9-0.6 1.1-0.8 2.3c1.6 0 3.3 0.1 5 0zm51.9 7.1q-0.5-1-1.3-1.8-0.7-0.7-1.7-1.3-1-0.5-2.1-0.8c-2-0.3-4-0.1-6-0.1q0.2 1.1 0.8 2 0.5 1 1.2 1.8 0.8 0.8 1.8 1.3 1 0.6 2.1 0.8c2 0.4 4 0.1 6 0.2q-0.3-1.1-0.8-2.1zm-11-32.1c1.2 6.3 6.7 11 13.2 11.2 6.5 0.1 12.2-4.2 13.8-10.5 1.5-6.3-1.6-12.9-7.4-15.7-5.8-2.9-12.8-1.3-16.8 3.8-0.4 0.5-0.4 0.7 0 1.2q0.7 0.6 1.3 1.4 0.5 0.8 0.9 1.7 0.4 0.9 0.6 1.8 0.3 0.9 0.3 1.9c0.1 2.1 0.1 2.1-2 2.1h-1q-0.3 0-0.5 0-0.3 0-0.6 0-0.2 0-0.5 0-0.2 0-0.5 0c-1-0.2-1 0.4-0.8 1.1z"/><path class="a" d="m54.2 85.3q0-0.2 0-0.4 0-0.3 0-0.5 0-0.2 0-0.4c-0.2-0.8 0.3-0.8 0.8-0.7q1 0.1 1.9 0.6 0.8 0.4 1.5 1.1 0.7 0.6 1.2 1.5 0.4 0.8 0.6 1.8c0.2 1.1 0.2 1.1-1 1.1h-0.5q0 0-0.1 0 0 0-0.1 0 0 0-0.1 0 0 0-0.1 0c-0.7 0.1-1.1 0-1.3-0.9q-0.1-0.4-0.3-0.8-0.2-0.4-0.5-0.6-0.4-0.3-0.7-0.5-0.4-0.2-0.9-0.2c-0.4-0.1-0.5-0.3-0.5-0.7q0-0.2 0.1-0.4z"/><path class="a" d="m48 86.4q0 0 0 0 0 0 0 0 0 0 0 0c0.1 1 0 1.7-1.2 1.7q-0.3 0-0.5 0-0.3 0.1-0.5 0.2-0.2 0.2-0.4 0.4-0.2 0.2-0.3 0.4-0.1 0.1-0.1 0.1-0.1 0.1-0.2 0.1-0.1 0.1-0.2 0.1-0.1 0-0.2 0c-0.4 0-0.9 0-1.4 0-1.3 0-1.4-0.1-0.9-1.4q0.4-0.7 1-1.3 0.6-0.6 1.3-1.1 0.8-0.4 1.6-0.6 0.8-0.2 1.6-0.2c0.3 0 0.4 0 0.4 0.4q0 0.5 0 1.1 0 0 0 0.1z"/><path class="a" d="m36.4 88.2c-0.1 0-0.1 0.2-0.2 0.2-0.4 0.3-0.2 1-0.7 1q-0.3 0.1-0.6 0.1-0.3 0-0.6 0-0.4 0-0.7 0-0.3 0-0.6-0.1c-0.4 0-0.2-0.3-0.2-0.5q0.1-0.7 0.4-1.4 0.3-0.7 0.9-1.3 0.5-0.5 1.2-0.9 0.7-0.3 1.5-0.4c0.4-0.1 0.5 0.2 0.5 0.5q0 0.4 0 1c0 0.7 0.3 1.6-0.9 1.8z"/><path fill-rule="evenodd" class="a" d="m45.7 30.6q-1.2-0.4-2-1.3-0.9-0.8-1.3-2-0.5-1.1-0.5-2.3c0-2.5 1.5-4.7 3.8-5.7 2.3-0.9 4.9-0.4 6.6 1.4 1.8 1.7 2.3 4.3 1.4 6.6-1 2.3-3.2 3.8-5.7 3.8q-1.2 0-2.3-0.5zm2.3-8.7q-0.6 0-1.2 0.3-0.5 0.2-1 0.6-0.4 0.5-0.6 1-0.3 0.6-0.3 1.2c0 1.2 0.8 2.3 1.9 2.8 1.2 0.5 2.5 0.2 3.4-0.6 0.8-0.9 1.1-2.2 0.7-3.4-0.5-1.1-1.6-1.9-2.8-1.9z"/></svg>