<svg version="1.2" xmlns="http://www.w3.org/2000/svg" viewBox="0 0 98 90" width="98" height="90"><style>.a{fill:#47b2e4}</style><path fill-rule="evenodd" class="a" d="m97.8 42.1v22.5c-0.5 0.8-1.2 1-2.2 1q-10.8 0-21.6 0c-1.7 0-2.1-0.5-2.1-2.2q0-10.1 0-20.2c0-1.5 0.5-2 2-2 7.3 0 14.5 0 21.7 0 1 0 1.7 0.2 2.2 0.9zm-3 19.7q-0.1-6.1 0-12.2c0-0.6-0.1-0.8-0.8-0.8q-9.1 0-18.3 0c-0.6 0-0.8 0.1-0.8 0.8q0.1 6.1 0 12.2c0 0.7 0.3 0.8 0.9 0.8 3-0.1 6 0 9 0q4.6-0.1 9.2 0c0.6 0 0.8-0.1 0.8-0.8zm0-16.8c0-0.6-0.2-0.8-0.8-0.8q-9.2 0.1-18.3 0c-0.6 0-0.8 0.2-0.8 0.8 0 0.7 0.2 0.8 0.8 0.8q4.5 0 9.1 0c3.1 0 6.1-0.1 9.2 0 0.7 0 0.8-0.2 0.8-0.8z"/><path fill-rule="evenodd" class="a" d="m24 65.6c-7.2 0-14.4 0-21.6 0-1 0-1.7-0.2-2.2-0.9v-19.5c0.5-0.8 1.2-1 2.2-1 7.2 0.1 14.4 0 21.6 0 1.6 0 2.1 0.5 2.1 2.1q0 8.6 0 17.2c0 1.6-0.5 2.1-2.1 2.1zm-12.8-4.6q-0.3-0.6-0.7 0c-0.3 0.5-0.7 0.9-1.2 1.5q0.2 0.1 0.3 0.1 0.2 0 0.3 0 0.1 0 0.3 0 0.1 0 0.3-0.1c0.4 0 1 0.3 1.3-0.3 0.2-0.6-0.4-0.8-0.6-1.2zm11.9-13.1c0-0.6-0.3-0.6-0.7-0.6q-4.5 0-9 0-4.7 0-9.5 0c-0.5 0-0.7 0.1-0.7 0.7q0 7 0 14c0 0.2-0.1 0.4 0.2 0.5 0.5 0.3 2.2-0.1 2.6-0.6q1.7-2.2 3.4-4.5c0.9-1.3 2-1.2 2.9 0 0.5 0.6 0.9 1.2 1.4 1.9 1.1-1.6 2.1-3.1 3.1-4.5 1.2-1.9 2.2-1.9 3.4-0.1l2.7 4.1c0.1-0.1 0.2-0.1 0.2-0.2 0-3.6-0.1-7.2 0-10.7zm-1.4 14.6l-3.2-4.8-3.2 4.8z"/><path fill-rule="evenodd" class="a" d="m71.4 77.6q0.6 0.9 1 1.8 0.5 1 0.7 2 0.2 1 0.3 2.1c0 1.6 0 3.2 0 4.8 0 1-0.6 1.7-1.5 1.7-0.9 0-1.5-0.6-1.5-1.7-0.1-1.9 0.2-3.9-0.2-5.9q-0.3-1.2-0.9-2.4-0.7-1.1-1.6-1.9-1-0.9-2.2-1.3-1.3-0.5-2.5-0.5c-0.7 0-1.4 0-2 0-2.5-0.4-4.6 0.1-6.1 2.4-0.5 0.6-1.3 0.8-2.1 0.4-2.5-1.2-5.1-1.3-7.6 0-0.8 0.4-1.5 0.2-2.1-0.4q0 0 0 0 0 0 0-0.1 0 0 0 0 0 0 0 0c-1.4-2.1-3.4-2.6-5.8-2.4-1.6 0.2-3.2 0-4.7 0.6q-1.1 0.4-2 1.1-0.9 0.7-1.6 1.6-0.6 0.9-1 2-0.3 1.1-0.4 2.2c0 1.5 0 3 0 4.5 0 1.1-0.6 1.8-1.5 1.8-0.9 0-1.5-0.7-1.5-1.8 0.1-2.4-0.3-4.7 0.4-7 1.1-4.5 5.2-7.8 9.9-8q2.2 0 4.4 0c0.4 0 0.6-0.1 0.5-0.5q0-0.1 0-0.1 0 0 0 0 0-0.1 0-0.1 0 0 0 0c0.4-2.1-0.2-3.5-2.1-4.9-4.5-3.3-6.7-8-7-13.6 0-0.3 0-0.6-0.5-0.7-0.7-0.2-1-0.8-1-1.5q0-4.5 0-9c0-0.7 0.2-1.2 0.8-1.4 0.7-0.2 0.7-0.6 0.7-1.1-0.1-4.1 1.1-7.7 3.9-10.8 2.9-3.3 6.7-5 11.1-5.1 1.9 0 3.9 0 5.8 0h6.1c1.6 0 2.1 0.5 2.1 2.2q0 1.7 0 3.4c0 0.4 0 0.6 0.5 0.8 4.6 1.2 7.1 4.6 7.1 9.4 0 0.5-0.1 1 0.7 1.2 0.6 0.2 0.8 0.8 0.8 1.4q0 4.5 0 9c0 0.7-0.3 1.3-1 1.5-0.4 0.1-0.5 0.3-0.5 0.7-0.3 6.4-3.2 11.3-8.5 14.8-0.5 0.3-0.7 0.6-0.6 1.2 0 1-0.5 2.5 0.2 3.1 0.5 0.5 1.9 0.2 3 0.1 3.2-0.1 6.2 0.6 8.6 2.9q0.8 0.7 1.4 1.5zm-7.1-32.5q0 2.2 0 4.3c0 0.6-0.1 1 0.8 1 0.9 0 0.7-0.5 0.7-1q0-1 0-2 0-1.1 0-2.2c0-0.6 0.1-1-0.8-1-0.8 0-0.8 0.4-0.7 0.9zm-29-11.4c-1.3 2.3-1.7 4.8-1.5 7.4 0.2 0.1 0.3-0.1 0.3-0.2 0.9-1.9 2.5-2.8 4.7-2.8q10.2 0.1 20.5 0c2.1 0 3.6 0.9 4.5 2.7 0.1 0.2 0.1 0.4 0.3 0.3 0.2-0.8 0.2-1.7 0-2.6-0.1-0.9-0.5-1.7-1.1-2.5-0.5-0.7-1.2-1.3-2-1.7-0.8-0.4-1.7-0.7-2.6-0.7-1.3-0.1-1.8-0.6-1.8-1.9 0-1.1 0-2.3 0-3.4 0.1-0.7-0.1-0.9-0.8-0.9-3.3 0.1-6.5 0-9.7 0.1-4.8 0-8.4 2.1-10.8 6.2zm25.9 17.8q0-4.3 0-8.5c0-1.3-0.6-1.8-1.8-1.8q-10.4 0-20.8 0c-1.3 0-1.8 0.5-1.8 1.8q0 4.2 0 8.4c0 1.5 0.5 2 1.9 2q5.2 0 10.3 0 5.2 0 10.3 0c1.4 0 1.9-0.6 1.9-1.9zm-28.2-1.2c0.4 0.1 0.8 0.2 0.8-0.5-0.1-0.8-0.1-1.7-0.1-2.5 0-0.9 0-1.7 0-2.6 0.1-0.7-0.4-0.4-0.8-0.5-0.4 0-0.7-0.1-0.7 0.6q0.1 2.5 0 5c0 0.8 0.5 0.5 0.8 0.5zm22.1 20.3c-4.1 1.4-8.1 1.4-12.2 0 0.1 1.8-0.5 3.6 1.3 4.9 0.5 0.3 0.9 0.5 1.5 0.3 2.1-1.1 4.3-1.2 6.4-0.1 0.7 0.3 1.2 0.4 1.7-0.3 0.4-0.6 1.2-0.8 1.3-1.5 0.1-1.1 0-2.1 0-3.3zm3.1-5.1c4-3 5.9-7.1 6.1-12.1-0.5 0.1-0.5 0.5-0.6 0.7-1 1.5-2.3 2.3-4 2.3q-10.7 0-21.4 0c-1.7 0-3-0.8-4-2.3-0.1-0.2-0.1-0.6-0.6-0.8 0.3 6 2.8 10.6 8 13.4 5.7 3.1 11.3 2.6 16.5-1.2z"/><path fill-rule="evenodd" class="a" d="m3.2 18.3c0-2 0.4-4 1.2-5.8 0.8-1.9 1.9-3.6 3.3-5 1.4-1.4 3.1-2.5 5-3.3 1.8-0.8 3.8-1.2 5.8-1.2 8.4 0 15.2 6.9 15.2 15.3 0 8.4-6.9 15.3-15.2 15.3-8.4-0.1-15.3-6.9-15.3-15.3zm4.1 3.1q2.6-0.1 5.2 0 0.7 0 1.4 0.2 0.8 0.3 1.3 0.8 0.6 0.4 1 1.1 0.4 0.6 0.6 1.3c0.5 2.1-0.3 3.7-2.1 5.1 4.5 1.3 8.5 0.5 11.9-2.5 3.4-3.1 4.7-7 3.8-11.5 0-0.5-0.2-0.7-0.8-0.7q-4.1 0.1-8.2 0c-2.1 0-3.8-1.4-4.3-3.5q-0.2-0.7-0.1-1.4 0-0.8 0.3-1.4 0.3-0.7 0.8-1.3 0.5-0.5 1.2-0.9l0.7-0.4c-0.4-0.2-0.7-0.2-0.9-0.2q-0.4 0-0.7 0-0.3 0-0.7 0-0.3 0-0.6 0.1-0.4 0-0.7 0.1c-6.6 1-11.4 8-9.9 14.4 0.1 0.5 0.3 0.7 0.8 0.7zm14.1-12.2c-0.3 0-0.7 0.2-1 0.4-0.2 0.3-0.4 0.7-0.4 1.1 0 0.3 0.2 0.7 0.4 1 0.3 0.3 0.6 0.4 1 0.5 2.5 0 5 0 7.6 0q-0.2-0.4-0.5-0.8-0.2-0.4-0.5-0.7-0.3-0.4-0.6-0.7-0.3-0.3-0.6-0.6-0.1-0.1-0.1-0.1-0.1-0.1-0.2-0.1-0.1 0-0.1 0-0.1-0.1-0.2-0.1c-1.6 0.1-3.2 0-4.8 0.1zm-7.5 16.7c0-0.9-0.7-1.5-1.7-1.5q-2 0-4.1 0c0.6 2 2.2 3.1 4.1 3.1 1-0.1 1.7-0.7 1.7-1.6z"/><path fill-rule="evenodd" class="a" d="m62.7 16.4q0-7.3 0-14.6c0-1.3 0.6-1.8 1.9-1.8q7.3 0 14.6 0c1.3 0 1.8 0.5 1.8 1.8q0 7.3 0 14.6c0 1.4-0.5 1.9-1.9 1.9q-3.6 0-7.3 0-3.6 0-7.2 0c-1.3 0-1.9-0.5-1.9-1.9zm3.1-12.7q0 5.4 0 10.9c0 0.5 0.1 0.7 0.7 0.7q5.4-0.1 10.8 0c0.6 0 0.7-0.2 0.7-0.7 0-1.8 0-3.6 0-5.4 0-1.8 0-3.6 0-5.5 0-0.5-0.1-0.7-0.7-0.7q-5.4 0.1-10.8 0c-0.6 0-0.7 0.2-0.7 0.7z"/><path fill-rule="evenodd" class="a" d="m84 21.4c1 0 1.6 0.6 1.6 1.6q0 3.7 0 7.4c0 1-0.6 1.6-1.6 1.6q-3.8 0.1-7.5 0c-1 0-1.5-0.6-1.6-1.6q0-1.9 0-3.8 0-1.8 0-3.5 0.1-1.7 1.7-1.7 3.7-0.1 7.4 0zm-1.6 3.2c-0.4-0.5-1.3-0.2-2.1-0.2-0.7 0-1.7-0.2-2.2 0.2-0.4 0.4-0.1 1.4-0.1 2.1 0 0.8-0.3 1.7 0.1 2.1 0.4 0.5 1.4 0.1 2.1 0.1 0.8 0 1.7 0.3 2.2-0.1 0.5-0.3 0.1-1.4 0.2-2.1 0-0.8 0.2-1.7-0.2-2.1z"/><path fill-rule="evenodd" class="a" d="m49 13.6q0-2.9 0-5.8c0-1.1 0.6-1.7 1.7-1.7q2.9 0 5.9 0c1 0 1.5 0.6 1.6 1.6q0 1.5 0 3.1 0 1.3 0 2.7-0.1 1.7-1.7 1.7-2.9 0.1-5.8 0c-1.1 0-1.7-0.6-1.7-1.6zm3.1-3c0 1.6 0 1.6 1.5 1.6 1.5 0 1.5 0 1.5-1.5 0-1.6 0-1.6-1.5-1.6-1.5 0-1.5 0-1.5 1.5z"/><path class="a" d="m91.7 53.4c0 0.9-0.7 1.5-1.8 1.5q-2.5 0-5 0-2.5 0-5 0c-1.1 0-1.8-0.6-1.8-1.5 0-1 0.7-1.5 1.8-1.5q5 0 10 0c1.1 0 1.8 0.6 1.8 1.5z"/><path class="a" d="m87.2 58c0 0.9-0.7 1.5-1.7 1.5q-1.5 0-2.9 0c-0.9 0-1.9 0-2.8 0-1 0-1.6-0.6-1.6-1.5-0.1-0.9 0.5-1.5 1.5-1.5q2.9-0.1 5.8 0c1 0 1.6 0.6 1.7 1.5z"/><path class="a" d="m7.9 50.4c0.4 0 0.8 0.1 1.1 0.4 0.2 0.3 0.4 0.7 0.4 1.1 0 0.4-0.2 0.8-0.5 1.1-0.3 0.3-0.7 0.4-1.1 0.4-0.4 0-0.8-0.2-1-0.5-0.3-0.3-0.5-0.7-0.5-1.1 0.1-0.4 0.2-0.7 0.5-1 0.3-0.3 0.7-0.5 1.1-0.5z"/><path class="a" d="m58.1 47.3c0.1 0.9-0.6 1.5-1.8 1.5q-3.7 0-7.4 0-3.6 0-7.2 0c-1.2 0-1.9-0.6-1.9-1.5 0.1-1 0.7-1.5 1.9-1.5q7.3 0 14.6 0c1.2 0 1.8 0.5 1.8 1.5z"/></svg>