<svg version="1.2" xmlns="http://www.w3.org/2000/svg" viewBox="0 0 90 86" width="90" height="86"><style>.a{fill:#47b2e4}</style><path class="a" d="m32.7 74.8h24.2q0 0 0.2-0.2c-0.5-0.5-1.1-1.1-1.6-1.6q-0.2-0.2-0.4-0.5-0.1-0.2-0.1-0.5 0-0.3 0.1-0.6 0.1-0.2 0.2-0.4 0.2-0.3 0.5-0.4 0.3-0.1 0.6-0.1 0.3 0 0.5 0.2 0.3 0.1 0.4 0.4 2 2 3.9 4 0.3 0.2 0.4 0.4 0.1 0.3 0.1 0.6 0 0.3-0.1 0.6-0.1 0.3-0.4 0.5-1.8 2-3.7 3.9c-0.8 0.7-1.5 0.8-2 0.2q-0.2-0.2-0.3-0.5-0.1-0.3-0.1-0.6 0-0.3 0.2-0.5 0.1-0.3 0.4-0.5c0.5-0.5 1-1 1.6-1.7h-24.5c0.6 0.7 1.2 1.2 1.7 1.7q0.2 0.2 0.4 0.5 0.1 0.3 0.1 0.5 0 0.3-0.1 0.6-0.1 0.3-0.3 0.5c-0.5 0.6-1.2 0.6-2-0.2q-1.9-2-3.8-4-0.2-0.1-0.4-0.4-0.1-0.3-0.1-0.6 0-0.2 0.1-0.5 0.2-0.3 0.4-0.5 2-2 4-4.1 0.1-0.2 0.4-0.3 0.2-0.1 0.5-0.2 0.3 0 0.5 0.1 0.3 0.1 0.5 0.3 0.2 0.2 0.3 0.5 0.1 0.3 0 0.6 0 0.3-0.1 0.5-0.1 0.3-0.4 0.5-0.4 0.5-0.8 0.9c-0.3 0.3-0.6 0.4-1 0.9z"/><path fill-rule="evenodd" class="a" d="m30.8 57.5q0 1-0.4 2-0.4 0.9-1.3 1.6-0.8 0.6-1.8 0.9-1 0.2-2.1-0.1c-0.7-0.2-0.7 0.1-0.7 0.7q0 8.5 0 17.1c0 3.5-2.4 5.9-5.5 5.7q-0.4 0-0.9-0.1-0.4-0.1-0.8-0.2-0.4-0.2-0.8-0.5-0.4-0.2-0.7-0.5c-0.3-0.4-0.5-0.4-0.9 0q-0.5 0.5-1.2 0.9-0.6 0.3-1.4 0.4-0.8 0.2-1.5 0-0.8-0.1-1.5-0.4-0.7-0.4-1.3-0.9-0.5-0.5-0.9-1.2-0.4-0.7-0.6-1.5-0.2-0.8-0.2-1.6v-18.1q-0.4 0.1-0.8 0.2-0.4 0.1-0.9 0.1-0.4 0.1-0.8 0-0.5-0.1-0.9-0.2-0.6-0.3-1.2-0.7-0.5-0.5-0.9-1.1-0.4-0.6-0.6-1.2-0.2-0.7-0.2-1.4c0-5.1 0-10.2 0-15.2 0-1.1 0.2-2.3 0.6-3.3 0.4-1.1 1-2.1 1.8-3 0.8-0.8 1.8-1.5 2.8-1.9 1.1-0.5 2.2-0.7 3.4-0.8h0.7q-0.7-0.7-1.2-1.6-0.5-0.9-0.8-1.9-0.3-1-0.4-2-0.1-1.1 0-2.1 0-1 0.3-2 0.3-1 0.7-1.9 0.5-0.9 1.2-1.7 0.7-0.7 1.5-1.3 1.2-0.9 2.6-1.3 1.4-0.4 2.9-0.3 1.4 0.1 2.8 0.7 1.3 0.7 2.3 1.7c3.4 3.4 3.6 8.3 0.4 13.7 0.8 0.1 1.6 0 2.4 0.2q1.4 0.4 2.7 1.1 1.2 0.8 2.2 2 0.9 1.1 1.4 2.5 0.5 1.4 0.5 2.9 0.2 7.8 0 15.6zm-20.7-34.2q-0.3 0.6-0.4 1.2-0.2 0.7-0.2 1.4-0.1 0.6 0 1.3 0 0.8 0.2 1.7 0.3 0.8 0.8 1.6 0.5 0.7 1.1 1.3 0.7 0.5 1.5 0.9c4.1 1.8 8.3-1.3 8.3-6.2 0-3.1-1.5-5.5-4.1-6.4q-0.9-0.3-1.8-0.3-0.9 0-1.8 0.2-0.9 0.3-1.6 0.9-0.8 0.5-1.3 1.3-0.4 0.5-0.7 1.1zm18.2 18.9q0-1.2-0.4-2.3-0.4-1.1-1.2-2-0.8-0.8-1.9-1.3-1.1-0.5-2.3-0.6-7.1-0.2-14.2 0-1.1 0.1-2.2 0.5-1.1 0.5-1.8 1.4-0.8 0.8-1.3 1.9-0.4 1.1-0.3 2.3c0 5 0 10.1 0 15.1q-0.1 0.4 0 0.8 0.2 0.4 0.4 0.7 0.3 0.3 0.7 0.5 0.4 0.2 0.8 0.2 0.4 0 0.7-0.2 0.4-0.2 0.7-0.5 0.2-0.3 0.3-0.7 0.2-0.4 0.1-0.8 0-3.4 0-6.7 0-1.9 0-3.9 0-0.2 0.1-0.5 0.1-0.3 0.2-0.4 0.2-0.2 0.5-0.4 0.2-0.1 0.5-0.1c0.7 0 1.2 0.5 1.3 1.4 0 0.3 0 32.4 0 32.6q0 0.6 0 1.1 0 0.5 0.2 0.9 0.2 0.4 0.5 0.7 0.3 0.3 0.6 0.5 0.4 0.3 0.9 0.3 0.4 0.1 0.8 0 0.5-0.1 0.9-0.3 0.4-0.2 0.7-0.6 0.2-0.3 0.4-0.8 0.1-0.1 0.1-0.3 0-0.2 0-0.4 0.1-0.2 0.1-0.4 0-0.2 0-0.4v-16c0-1 0.4-1.7 1.2-1.7 0.8 0 1.3 0.6 1.3 1.7 0 5 0 11.5 0 16.5q0 0.7 0.2 1.3 0.3 0.6 0.8 1 0.5 0.4 1.1 0.5 0.7 0.1 1.3-0.1 0.5-0.1 0.9-0.4 0.3-0.3 0.6-0.7 0.2-0.5 0.3-0.9 0.2-0.5 0.1-1c0-5.4 0-24.5 0-29.9q0-1.7 0-3.3 0-0.3 0-0.5 0.1-0.2 0.3-0.4 0.1-0.2 0.3-0.3 0.2-0.1 0.5-0.1 0.2 0 0.4 0 0.3 0.1 0.5 0.2 0.2 0.1 0.3 0.4 0.1 0.2 0.1 0.4 0.1 0.1 0.1 0.2 0 0.2 0 0.3 0 0.1 0 0.2 0 0.2 0 0.3 0 5 0 10c0 1.4 0.8 2.2 1.9 2.2q0.4 0 0.8-0.2 0.4-0.2 0.6-0.5 0.3-0.3 0.4-0.7 0.1-0.4 0.1-0.8c0-5 0-10 0-15z"/><path fill-rule="evenodd" class="a" d="m90.1 57.2c0 3.5-2.8 5.6-6 4.6l-0.4-0.1c0 6 0 11.9 0 17.8q0 0.6 0 1.2-0.1 0.5-0.3 1-0.1 0.6-0.4 1-0.3 0.5-0.6 1-0.7 0.8-1.6 1.2-0.9 0.5-1.9 0.6-1.1 0-2-0.3-1-0.3-1.8-1c-0.3-0.3-0.5-0.6-1-0.1q-0.5 0.5-1.2 0.9-0.6 0.3-1.4 0.5-0.8 0.1-1.5 0-0.8-0.1-1.5-0.5-0.7-0.3-1.3-0.9-0.6-0.5-1-1.2-0.4-0.7-0.6-1.5-0.2-0.8-0.1-1.6c0-5.6 0-12.4 0-18.1q-0.5 0.2-1 0.3-0.6 0.1-1.1 0-0.5 0-1.1-0.2-0.5-0.1-0.9-0.4-0.6-0.3-1-0.7-0.4-0.5-0.7-1-0.3-0.5-0.4-1.1-0.2-0.6-0.2-1.2c0-5.1 0-10.3 0-15.4q0-1.7 0.7-3.3 0.6-1.6 1.8-2.8 1.2-1.2 2.7-1.9 1.6-0.7 3.3-0.8h0.9q-0.8-0.9-1.4-2-0.5-1.1-0.8-2.3-0.3-1.2-0.3-2.5 0-1.2 0.3-2.4 0.1-0.8 0.4-1.5 0.3-0.8 0.7-1.4 0.5-0.7 1-1.3 0.6-0.6 1.2-1.1 1.2-0.9 2.7-1.3 1.5-0.4 3-0.3 1.5 0.1 2.9 0.8 1.4 0.6 2.4 1.8c3 3 3.7 9.3 0.2 13.5 0.8 0.1 1.6 0 2.4 0.2q1.5 0.4 2.7 1.2 1.3 0.8 2.2 1.9 0.9 1.2 1.4 2.6 0.5 1.4 0.5 2.9c0 5.1 0 10.1 0.1 15.2zm-21.6-30.7q0 1.1 0.3 2.1 0.4 1 1 1.9 0.6 0.9 1.4 1.6 0.6 0.5 1.4 0.8 0.7 0.2 1.5 0.3 0.8 0.1 1.6-0.1 0.8-0.2 1.5-0.6 0.8-0.4 1.5-1 0.6-0.7 1-1.5 0.5-0.8 0.7-1.7 0.1-0.9 0.1-1.8 0-0.5 0-1c-0.2-3.3-3.4-6.2-6.5-5.7q-0.9 0.1-1.8 0.5-0.8 0.4-1.5 1-0.7 0.6-1.2 1.4-0.5 0.8-0.7 1.7-0.3 1.1-0.3 2.1zm19.1 15.7q0-1.2-0.4-2.3-0.4-1.2-1.3-2.1-0.8-0.8-1.9-1.3-1.1-0.5-2.3-0.5-7-0.2-13.9 0c-3.5 0-5.9 2.7-5.9 6.4q0 7.3 0 14.6 0 0.1 0 0.2 0 0.1 0 0.2 0 0.1 0 0.2 0 0.1 0 0.2 0 0.4 0.2 0.7 0.2 0.3 0.5 0.5 0.3 0.2 0.6 0.3 0.3 0.1 0.7 0.1 0.4 0 0.7-0.2 0.3-0.2 0.6-0.4 0.2-0.3 0.3-0.7 0.2-0.3 0.1-0.7 0-5.1 0-10.2 0-0.1 0-0.3 0-0.1 0.1-0.2 0-0.1 0-0.3 0-0.1 0-0.2 0.1-0.3 0.2-0.5 0.1-0.1 0.3-0.3 0.2-0.1 0.4-0.1 0.3-0.1 0.5 0 0.2 0 0.4 0.1 0.2 0.1 0.4 0.2 0.1 0.2 0.2 0.4 0.1 0.2 0.1 0.4 0 0.1 0 0.2 0 0.2 0 0.3 0 0.1 0 0.2 0 0.2 0 0.3 0 15.9 0 31.9 0 0.1 0 0.2 0 0.2 0 0.3 0 0.1 0 0.3 0 0.1 0 0.2 0 0.6 0.3 1 0.2 0.5 0.6 0.9 0.4 0.3 0.9 0.5 0.5 0.1 1 0.1c1.4-0.1 2.4-1.3 2.4-3q0-7.9 0-15.9 0-0.1 0-0.2 0-0.1 0-0.3 0-0.1 0-0.2 0-0.1 0-0.3c0-0.3 0.2-0.6 0.4-0.8 0.3-0.2 0.6-0.3 0.9-0.3 0.3 0 0.6 0.2 0.8 0.4 0.3 0.2 0.4 0.5 0.4 0.9q0 0.1 0 0.2 0 0.1 0 0.2 0 0.1 0 0.2 0 0.1 0 0.2 0 8 0 15.9c0 2.1 1.4 3.3 3.2 3q0.4-0.2 0.8-0.4 0.4-0.3 0.7-0.7 0.3-0.4 0.4-0.8 0.1-0.5 0.1-1 0-8.2 0-16.5 0-8.2 0-16.3c0-1.3 0.5-1.9 1.3-1.9q1.2 0.1 1.2 1.8 0 5.1 0 10.2 0 0.4 0.1 0.8 0.1 0.4 0.4 0.7 0.3 0.4 0.7 0.5 0.3 0.2 0.8 0.2c1.1 0 1.8-0.8 1.8-2.2 0-5 0-10 0.2-15z"/><path fill-rule="evenodd" class="a" d="m60.7 17.1c0 8.9-7.1 16.2-15.7 16.2-2.1 0-4.2-0.4-6.1-1.3-2-0.8-3.7-2.1-5.2-3.6-1.5-1.5-2.6-3.3-3.4-5.3-0.8-2-1.1-4.1-1.1-6.2 0.1-9.2 7.2-16.4 16-16.4 8.6 0 15.6 7.6 15.5 16.6zm-8.5-4q0.1-0.1 0.1-0.2 0.1-0.1 0.1-0.3 0.1-0.1 0.1-0.3 0-0.2-0.1-0.4 0-0.2-0.1-0.4-0.1-0.1-0.3-0.3-0.2-0.1-0.4-0.2-0.2-0.1-0.4 0-0.2 0-0.4 0.1-0.2 0-0.3 0.2-0.2 0.1-0.3 0.3-3.7 3.9-7.4 7.7c-0.4 0.4-0.6 0.5-0.9 0-0.6-0.7-1.2-1.3-1.9-2-0.8-0.7-1.5-0.7-2-0.1q-0.2 0.2-0.3 0.4-0.1 0.3-0.1 0.6 0 0.3 0.2 0.5 0.1 0.3 0.3 0.5 1.5 1.6 3.1 3.2 0.2 0.3 0.5 0.4 0.3 0.2 0.5 0.2 0.3 0 0.6-0.2 0.3-0.1 0.4-0.4c3-3 5.9-6.1 8.8-9.1q0.1-0.1 0.2-0.2z"/></svg>