<svg version="1.2" xmlns="http://www.w3.org/2000/svg" viewBox="0 0 100 100" width="100" height="100">
	<title>Torque-OWN-BLOCKCHAIN-Icon-Decentralized-Exchange-svg</title>
	<style>
		.s0 { fill: #47b2e4 } 
	</style>
	<path id="Layer" class="s0" d="m71.8 2.6q2 0 4 0.3 2.1 0.3 4 0.9 1.9 0.6 3.7 1.5 1.9 0.9 3.5 2.1 1.8 1.3 0.8 2.6-0.9 1.2-2.6 0c-8.1-5.8-19-5.6-26.7 0.6-7.8 6.2-10.5 16.7-6.6 25.9 3.8 9.1 13.3 14.5 23.1 13.3 9.8-1.2 17.6-8.9 19.1-18.7q0.3-2 0.2-4.1 0-2.1-0.5-4.2-0.5-2-1.4-3.9-0.8-2-2-3.7l-0.5-0.6q-0.2-0.3-0.4-0.6-0.1-0.3 0-0.6 0-0.4 0.2-0.7 0.1-0.3 0.4-0.5 0.3-0.2 0.6-0.2 0.3-0.1 0.7 0 0.3 0 0.6 0.2 0.3 0.2 0.4 0.5 0.7 0.9 1.2 1.7 0.6 0.9 1.1 1.8 0.5 1 0.9 1.9 0.4 1 0.7 2c3.3 10.2-0.2 21.4-8.7 27.9-8.4 6.5-20.1 7-29.1 1.2-9-5.8-13.4-16.7-10.9-27.1 2.4-10.4 11.2-18.2 21.9-19.3 0.9-0.1 1.8-0.2 2.3-0.2z"/>
	<path id="Layer" class="s0" d="m4.1 73.2c0-15.5 12.2-27 26.7-26.3 6.3 0.3 12.2 2.9 16.6 7.4 4.5 4.5 7.1 10.4 7.3 16.7 0.3 6.3-1.8 12.4-5.8 17.3-4 4.8-9.7 8-15.9 8.9q-2.4 0.3-4.9 0.2-2.5-0.1-4.9-0.7-2.3-0.7-4.6-1.7-2.2-1.1-4.2-2.6-0.2-0.1-0.4-0.3-0.2-0.2-0.3-0.4-0.1-0.3-0.2-0.6 0-0.2 0.1-0.5c0.2-1.2 1.5-1.6 2.7-0.7q0.9 0.7 2 1.3 1 0.6 2.1 1.1 1 0.4 2.2 0.8 1.1 0.4 2.2 0.6c8.8 1.9 17.9-1.8 22.9-9.2 5.1-7.5 5.1-17.2 0.1-24.7-5-7.5-14.1-11.2-22.9-9.4-8.8 1.9-15.6 8.9-17.3 17.7q-0.4 2.2-0.3 4.5 0 2.3 0.5 4.5 0.6 2.2 1.5 4.3 1 2 2.3 3.9c0.8 1 0.7 1.9-0.1 2.5-0.9 0.5-1.7 0.3-2.4-0.7l-0.1-0.1q-1.1-1.5-2-3.1-0.9-1.7-1.5-3.4-0.6-1.8-1-3.6-0.3-1.9-0.4-3.7z"/>
	<path id="Layer" class="s0" d="m72.6 46.9q-1.5 0-2.9-0.2-1.4-0.2-2.7-0.6-1.4-0.4-2.7-1-1.3-0.6-2.4-1.3c-1.2-0.7-1.5-1.6-0.9-2.4 0.5-0.9 1.5-1 2.6-0.3 1.9 1.3 4 2.1 6.3 2.4 2.2 0.4 4.5 0.2 6.7-0.4 2.2-0.7 4.2-1.8 6-3.3 1.7-1.5 3-3.4 4-5.4 2.6-6.1 1.8-11.9-2.6-16.9q-1.4-1.7-3.3-3-1.9-1.3-4.1-1.9-2.2-0.7-4.5-0.6-2.3 0.1-4.5 0.8c-6.3 1.9-10.1 6.4-11.1 13q-0.2 1.4-0.2 2.7 0.1 1.4 0.3 2.8 0.3 1.3 0.9 2.6 0.5 1.3 1.3 2.4 0.1 0.2 0.2 0.3 0.1 0.2 0.1 0.3 0.1 0.2 0.2 0.3 0 0.2 0 0.4 0.1 0.5-0.2 1-0.3 0.5-0.8 0.6-0.5 0.2-1.1 0-0.5-0.2-0.8-0.6-0.5-0.8-0.9-1.6-0.5-0.8-0.8-1.6-0.4-0.9-0.7-1.7-0.2-0.9-0.4-1.8c-1.7-7.6 1.5-15.4 7.9-19.8 6.5-4.3 14.9-4.3 21.3 0 6.5 4.4 9.6 12.2 7.9 19.8-1.6 7.6-7.8 13.4-15.4 14.7q-0.4 0.1-0.7 0.1-0.3 0.1-0.7 0.1-0.3 0-0.7 0-0.3 0.1-0.6 0.1z"/>
	<path id="Layer" class="s0" d="m93.2 61.5l0.3-0.2q0.3-0.2 0.6-0.2 0.3-0.1 0.5 0 0.3 0.1 0.5 0.2 0.3 0.2 0.4 0.4 0.2 0.2 0.3 0.5 0.1 0.3 0.1 0.6 0 0.2-0.1 0.5-0.2 0.3-0.4 0.5-1.5 1.6-3.1 3.1-0.3 0.3-0.6 0.4-0.3 0.1-0.6 0.1-0.4 0-0.7-0.2-0.3-0.1-0.5-0.4c-1-1-2-1.9-2.9-2.9q-0.3-0.2-0.4-0.5-0.2-0.4-0.2-0.7 0-0.3 0.1-0.6 0.1-0.4 0.4-0.6 0.2-0.2 0.5-0.3 0.3-0.1 0.6-0.1 0.4 0 0.7 0.1 0.3 0.2 0.5 0.4l0.6 0.5c0.5-2.5-1-5.6-3.4-7.1-0.3-0.2-0.6-0.3-0.8-0.5-0.3-0.2-0.6-0.5-0.7-0.9-0.1-0.4 0-0.8 0.2-1.2 0.2-0.3 0.5-0.6 0.9-0.7 0.4-0.1 0.8-0.1 1.2 0.1q1.1 0.6 2.1 1.4 0.9 0.8 1.7 1.8 0.8 1.1 1.2 2.2 0.5 1.2 0.7 2.5 0.1 0.8 0.3 1.8z"/>
	<path id="Layer" class="s0" d="m10.4 42.9q0 0.6 0.1 1.2 0.1 0.5 0.4 1.1 0.3 0.5 0.7 0.9 0.4 0.5 0.9 0.8c1.1 0.6 1.4 1.5 0.9 2.3-0.6 0.9-1.5 1-2.5 0.4q-0.9-0.5-1.6-1.2-0.7-0.7-1.2-1.6-0.4-0.9-0.7-1.8-0.2-1-0.2-2c-0.3 0-0.4 0.3-0.6 0.4q-0.3 0.2-0.5 0.3-0.3 0-0.6 0-0.3 0-0.5-0.1-0.3-0.2-0.4-0.4-0.3-0.2-0.4-0.4-0.1-0.3-0.1-0.6 0-0.2 0.1-0.5 0-0.3 0.2-0.5 1.7-1.8 3.5-3.4 0.2-0.3 0.5-0.4 0.3-0.1 0.6-0.1 0.3 0.1 0.6 0.2 0.3 0.2 0.5 0.4c1 1 1.9 1.9 2.8 2.9q0.3 0.2 0.5 0.5 0.1 0.3 0.2 0.6 0 0.3-0.1 0.7-0.1 0.3-0.3 0.5c-0.6 0.8-1.5 0.8-2.4 0z"/>
	<path id="Layer" class="s0" d="m41.6 13.1q-0.5-0.3-1-0.4-0.5-0.1-1.1-0.1-0.5 0-1.1 0.2-0.5 0.1-1 0.4c-0.2 0.1-0.4 0.3-0.6 0.5q-0.3 0.1-0.5 0.2-0.3 0.1-0.6 0-0.3 0-0.6-0.2-0.3-0.1-0.4-0.4-0.2-0.2-0.3-0.5-0.1-0.3-0.1-0.6 0.1-0.3 0.2-0.6 0.2-0.3 0.4-0.5 0.7-0.6 1.6-1 0.8-0.4 1.8-0.6 0.9-0.2 1.9-0.1 0.9 0.1 1.8 0.4 0.4 0.1 0.8 0.3c0.2-0.2 0-0.4-0.1-0.6q-0.1-0.3 0-0.6 0-0.3 0.1-0.6 0.2-0.3 0.4-0.5 0.2-0.2 0.5-0.3 0.3-0.1 0.6-0.1 0.4 0.1 0.6 0.2 0.3 0.1 0.5 0.4 0.2 0.2 0.3 0.5 0.9 2 1.6 3.9 0.2 0.3 0.2 0.7 0 0.3-0.1 0.6-0.2 0.4-0.4 0.6-0.3 0.2-0.6 0.3-1.9 0.8-3.8 1.6-0.3 0.2-0.7 0.2-0.3 0-0.6-0.1-0.3-0.1-0.6-0.3-0.2-0.3-0.4-0.6c-0.3-0.8 0-1.6 1-2.1z"/>
	<path id="Layer" class="s0" d="m59.4 90.7q0.4 0.4 0.9 0.7 0.5 0.4 1.1 0.5 0.6 0.2 1.2 0.2 0.6 0 1.2-0.2c1.1-0.2 2 0.1 2.2 1 0.3 1-0.2 1.9-1.5 2.2q-0.8 0.2-1.7 0.2-0.9 0-1.8-0.2-0.9-0.2-1.7-0.6-0.8-0.4-1.4-1l-0.7-0.5q0 0.1 0 0.3 0 0.1 0 0.2-0.1 0.1-0.1 0.3 0 0.1 0 0.2-0.1 0.3-0.2 0.5-0.2 0.2-0.4 0.4-0.3 0.1-0.5 0.2-0.3 0-0.6 0-0.3 0-0.5-0.1-0.3-0.1-0.5-0.3-0.2-0.2-0.3-0.5-0.1-0.2-0.1-0.5c-0.1-1.6-0.1-3.2 0-4.8q0-0.3 0.1-0.6 0.2-0.3 0.4-0.4 0.2-0.2 0.5-0.3 0.3-0.1 0.5-0.1c1.4 0 2.8-0.1 4.2-0.1 1.1 0 1.8 0.6 1.9 1.5 0 0.9-0.6 1.5-1.7 1.7z"/>
	<path id="Layer" fill-rule="evenodd" class="s0" d="m30.7 12.7q0.3 0.9 0.4 1.9 0 0.9-0.3 1.8-0.2 1-0.8 1.7-0.1 0.2-0.3 0.4-0.1 0.2-0.1 0.4-0.1 0.2-0.2 0.4 0 0.2 0 0.4 0 6.2 0 12.5c0 1.5-0.5 2-2.1 2h-21.1c-1.5 0-2.1-0.5-2.1-2.1q0-3.7 0-7.5c0.1-1.2 0.7-1.9 1.7-1.9 0.9 0.1 1.5 0.7 1.5 1.9q0 2.9 0 5.7c0 0.6 0.1 0.8 0.7 0.8 1-0.1 2.1-0.1 3.2 0 0.6 0 0.8-0.2 0.8-0.8q0-2.7 0-5.3c0-1.3 0.6-1.9 1.9-1.9h5.8q0.3 0 0.7 0.1 0.4 0.1 0.6 0.4 0.3 0.3 0.4 0.6 0.1 0.4 0.1 0.8c0 1.8 0 3.5 0 5.3 0 0.6 0.2 0.8 0.8 0.8q1.6 0 3.3 0c0.6 0 0.7-0.2 0.7-0.7q0-4.9 0-9.8c0-0.4-0.1-0.7-0.6-0.7-1 0-1.8-0.9-2.6-1-0.7 0-1.5 0.9-2.5 1q-0.4 0.1-0.9 0.1-0.4 0-0.8-0.1-0.5-0.1-0.9-0.3-0.4-0.2-0.7-0.5-0.1-0.1-0.3-0.1-0.1-0.1-0.2-0.1-0.2 0-0.3 0.1-0.1 0-0.2 0.1-0.6 0.5-1.3 0.7-0.7 0.2-1.4 0.2-0.7 0-1.4-0.2-0.7-0.2-1.3-0.7-0.1-0.1-0.2-0.1-0.2-0.1-0.3-0.1-0.1 0-0.3 0.1-0.1 0-0.2 0.1-0.5 0.4-1.1 0.6-0.6 0.3-1.3 0.3-0.6 0-1.2-0.1-0.7-0.2-1.2-0.5-0.6-0.3-1.1-0.7-0.5-0.5-0.8-1-0.4-0.6-0.5-1.2-0.2-0.7-0.2-1.3c0-1.6-0.1-3.2 1.5-4.2 0.2-0.2 0.1-0.5 0.1-0.7q0-0.3 0-0.5 0-0.3 0-0.6 0-0.2 0-0.5 0-0.2 0.1-0.5 0.1-0.8 0.5-1.6 0.4-0.7 1-1.3 0.7-0.5 1.5-0.8 0.8-0.3 1.6-0.3 7.9 0 15.8 0 1 0 1.9 0.3 0.9 0.4 1.5 1.1 0.7 0.6 1.1 1.5 0.3 0.9 0.3 1.9 0 0.7 0 1.4 0 0.1 0 0.2 0 0.1 0.1 0.2 0 0.1 0.1 0.2 0 0.1 0.1 0.1 0.6 0.7 1 1.6zm-12.3 14.5c0-0.7-0.2-0.9-0.9-0.9-2.3 0-2.3 0-2.3 2.3 0 2.5 0 2.5 2.5 2.4 0.5 0 0.7-0.1 0.7-0.6q-0.1-0.4-0.1-0.8 0-0.4 0-0.8 0-0.5 0-0.9 0-0.4 0.1-0.8zm-11.1-13.5c-0.6 0.2-1.7-0.4-1.6 1 0.1 1.5 0.6 2.2 1.6 2.2 1 0 1.5-0.8 1.6-2.2 0.1-1.5-1-0.8-1.6-1zm6.2 0c-0.1 0-0.3 0-0.5 0-0.8-0.1-1.2 0.1-1 0.9v0.2c0 1.4 0.5 2.1 1.6 2.1 1 0 1.5-0.7 1.6-2.2 0.1-1.6-1.1-0.7-1.7-1zm8 1c0.1-1.5-0.9-0.8-1.5-1-0.5 0.4-1.8-0.5-1.7 1 0.1 1.5 0.5 2.2 1.6 2.2 1.1 0 1.5-0.7 1.6-2.2zm4-4.1c0.3 0 0.6 0.2 0.8-0.2q0.2-0.6 0.1-1.1 0-0.6-0.4-1-0.3-0.5-0.8-0.7-0.5-0.2-1.1-0.1h-14.6c-1.8 0-2.2 0.4-2.3 2.3 0 0.7 0.3 0.8 1 0.8q4.2 0 8.5 0zm0.7 3.2c-0.5 0.3-1.7-0.6-1.6 0.9 0.1 1.5 0.5 2.2 1.6 2.3 1 0 1.5-0.8 1.6-2.3 0.1-1.5-1-0.7-1.6-0.9z"/>
	<path id="Layer" fill-rule="evenodd" class="s0" d="m95.8 89.5q0.4 0 0.7 0.1 0.3 0.1 0.6 0.4 0.2 0.2 0.3 0.5 0.1 0.3 0.1 0.7 0 0.3-0.1 0.6-0.2 0.3-0.5 0.5-0.2 0.2-0.6 0.3c-3.7 1.4-7.4 2.8-11.1 4.2q-0.5 0.2-0.9 0.3-0.5 0.1-1 0.1-0.5 0-1-0.1-0.4-0.1-0.9-0.3c-3.6-1.4-7.3-2.8-11-4.1q-0.3-0.1-0.6-0.3-0.3-0.2-0.5-0.5-0.2-0.2-0.2-0.6-0.1-0.3-0.1-0.7 0-7.4 0-14.9 0-0.3 0.1-0.6 0.1-0.4 0.3-0.7 0.2-0.3 0.4-0.5 0.3-0.2 0.7-0.3c3.9-1.4 7.8-2.9 11.8-4.4q0.2-0.1 0.4-0.1 0.3-0.1 0.5-0.1 0.3 0 0.5 0.1 0.3 0 0.5 0.1c3.9 1.5 7.9 3 11.9 4.5q0.3 0.1 0.6 0.3 0.3 0.2 0.5 0.4 0.2 0.3 0.2 0.7 0.1 0.3 0.1 0.7 0 4.2 0 8.5c0 1.3-0.7 2-1.7 2-0.9 0-1.5-0.7-1.5-2v-6.7c-3 1.2-6 2.3-9 3.4-0.4 0.1-0.5 0.2-0.5 0.5 0 4 0 8 0 12l8.4-3.1q1-0.4 2-0.7 0.3-0.2 0.6-0.2zm-14.1-6.6c0-1.8 0-1.8-1.7-2.4l-7.9-2.9c0 4.1 0 8 0 12 0 0.5 0.4 0.5 0.7 0.6l4 1.5 4.9 1.8zm1.4-4.7q0.1 0.1 0.2 0 0.1 0 0.2 0 0.1 0 0.2-0.1l7.7-2.8q-0.6-0.2-1.2-0.4-0.5-0.3-1.1-0.5-0.6-0.2-1.2-0.4-0.5-0.3-1.1-0.5-0.8-0.5-1.7-0.8-0.9-0.2-1.8-0.2-0.9 0-1.8 0.2-0.9 0.3-1.7 0.8-0.3 0.1-0.5 0.2-0.3 0.1-0.6 0.2-0.2 0.1-0.5 0.2-0.2 0.1-0.5 0.2c-0.8 0.3-1.6 0.6-2.6 1l7.8 2.9q0.1 0 0.2 0z"/>
	<path id="Layer" fill-rule="evenodd" class="s0" d="m36.7 54.6c2.3 1 4.4 2.4 6.2 4.1 1.7 1.8 3.1 3.9 4.1 6.2 0.9 2.3 1.4 4.8 1.4 7.3 0 7.6-4.6 14.6-11.7 17.5-7.1 3-15.3 1.3-20.7-4.1-5.4-5.4-7.1-13.6-4.1-20.7 2.9-7.1 9.9-11.7 17.5-11.7 2.5 0 5 0.5 7.3 1.4zm-1.3 32.1c1.9-0.8 3.7-1.9 5.2-3.4 1.4-1.4 2.6-3.1 3.4-5.1 0.8-1.9 1.2-3.9 1.2-6 0.1-6.4-3.7-12.2-9.6-14.6-5.9-2.5-12.7-1.2-17.3 3.3-4.5 4.5-5.9 11.3-3.5 17.2 2.4 5.9 8.2 9.8 14.6 9.8 2.1 0 4.1-0.4 6-1.2z"/>
	<path id="Layer" fill-rule="evenodd" class="s0" d="m81.3 26.9q0.1 0.1 0.2 0.3 0 0.1 0.1 0.3 0 0.2 0 0.3 0 0.2 0 0.3 0 0.2-0.1 0.4 0 0.1-0.1 0.2-0.1 0.2-0.2 0.3-3.8 5.3-7.5 10.6c-1 1.3-2.1 1.3-3 0-2.6-3.5-5-7-7.6-10.5q-0.2-0.2-0.3-0.5-0.1-0.4-0.1-0.7 0-0.3 0.1-0.6 0.1-0.3 0.3-0.6c2.5-3.4 5-6.9 7.5-10.4 1-1.4 2.1-1.4 3.1 0q3.7 5.2 7.4 10.3 0.1 0.2 0.2 0.3zm-4.9 3.4q-0.5 0.1-1 0.2-0.5 0.1-1.1 0.2-0.5 0.1-1 0.2-0.6 0.1-1.1 0.1-0.5-0.1-1.1-0.1-0.5-0.1-1.1-0.2-0.5-0.1-1.1-0.2-0.5-0.1-1-0.3c1.4 1.9 2.7 3.8 4 5.6 0.2 0.4 0.4 0.3 0.6 0 1.3-1.8 2.5-3.6 3.9-5.5zm-6.9-2.9q1.3 0.2 2.6 0.2 1.3 0 2.6-0.2 1.3-0.2 2.6-0.7-2.5-3.4-4.8-6.7c-0.4-0.5-0.5-0.3-0.7 0l-2.7 3.7-2.1 3q1.2 0.5 2.5 0.7z"/>
	<path id="Layer" class="s0" d="m35 76.5q0 0.7-0.3 1.4-0.2 0.7-0.7 1.3-0.4 0.6-1 1.1-0.6 0.4-1.2 0.7c-0.6 0.3-0.9 0.6-0.8 1.3q0 0.1 0 0.2 0 0.2 0 0.3 0 0.1 0 0.3 0 0.1 0 0.2 0 0.3-0.2 0.6-0.1 0.3-0.3 0.5-0.3 0.2-0.5 0.3-0.3 0.1-0.6 0c-0.9 0-1.6-0.6-1.5-1.4 0.2-1.5-0.5-2.2-1.7-2.9q-0.5-0.3-0.9-0.7-0.4-0.4-0.7-0.9-0.3-0.5-0.5-1-0.1-0.6-0.2-1.1c-0.1-1.2 0.4-2 1.4-2.2 0.9-0.2 1.6 0.5 1.8 1.7q0 0.5 0.2 0.8 0.2 0.4 0.5 0.7 0.3 0.3 0.6 0.5 0.4 0.2 0.8 0.2c0.7 0.1 1.3-0.1 1.8-0.6 0.5-0.4 0.8-1 0.8-1.7 0-0.6-0.2-1.3-0.7-1.7-0.5-0.5-1.1-0.7-1.7-0.7q-0.9 0-1.8-0.3-0.8-0.3-1.5-0.8-0.7-0.6-1.2-1.3-0.6-0.8-0.8-1.6-0.3-1-0.2-1.9 0.1-1 0.5-1.9 0.4-0.9 1.1-1.6 0.7-0.7 1.6-1.1 0.2 0 0.4-0.1 0.1-0.1 0.2-0.3 0.1-0.2 0.2-0.4 0-0.2 0-0.4-0.1-0.1-0.1-0.3 0-0.1 0-0.2 0-0.2 0-0.3 0-0.1 0.1-0.3 0-0.3 0.1-0.6 0.1-0.2 0.3-0.4 0.3-0.2 0.5-0.3 0.3-0.1 0.6-0.1c0.9 0 1.6 0.5 1.5 1.3-0.2 1.6 0.6 2.3 1.8 3q0.5 0.4 1 0.8 0.4 0.4 0.7 1 0.3 0.5 0.4 1.1 0.2 0.6 0.2 1.2c0 0.4-0.1 0.9-0.4 1.2-0.2 0.3-0.6 0.5-1.1 0.5-0.4 0.1-0.8-0.1-1.1-0.3-0.3-0.3-0.5-0.7-0.6-1.1 0-1-0.6-1.9-1.5-2.2-0.9-0.4-1.9-0.2-2.5 0.6-0.7 0.7-0.9 1.7-0.5 2.6 0.4 0.9 1.3 1.4 2.3 1.3q1.1 0.1 2.2 0.6 1 0.4 1.7 1.3 0.8 0.8 1.2 1.9 0.4 1 0.3 2.2z"/>
</svg>