<svg version="1.2" xmlns="http://www.w3.org/2000/svg" viewBox="0 0 100 92" width="100" height="92"><style>.a{fill:#47b2e4}</style><path class="a" d="m17.6 77.8q10.1 0 20.1 0c1.8 0 2.3 0.4 2.3 2 0 0.7-0.4 1.7 0.1 2.1 0.5 0.3 1.7 0.1 2.5 0.1q8.2 0 16.4 0c0.8 0 1-0.2 1-0.9q0-0.2 0-0.4-0.1-0.2-0.1-0.5 0-0.2 0.1-0.4 0-0.3 0-0.5c0-1 0.6-1.5 1.8-1.5q2.9 0 5.9 0h29.9c1.9 0 2.3 0.4 2.3 2 0 2.1 0.3 4.3-0.1 6.4-0.7 3.2-4.1 5.6-8 5.6q-13.3 0-26.6 0c-1.2 0-1.9-0.5-1.9-1.3 0-0.9 0.7-1.5 1.9-1.5h25.8c3.7 0 5.7-1.6 5.7-4.7 0-1-0.1-1.9 0-2.9 0-0.7-0.2-0.8-1-0.8q-13.2 0-26.4 0-2.6 0-5.1 0c-0.7 0-0.9 0.2-0.9 0.7q0.1 0.3 0.1 0.5 0 0.2 0 0.5 0 0.2 0 0.5 0 0.2-0.1 0.4c0 1-0.6 1.6-1.7 1.6q-11.6 0-23.1 0c-1.2 0-1.8-0.6-1.8-1.5q0-0.2 0-0.5 0-0.2 0-0.4 0-0.3 0-0.5 0-0.3 0-0.5c0-0.7-0.2-0.8-1-0.8q-11.7 0-23.5 0-4 0-8 0c-0.7 0-0.9 0.2-0.9 0.7q0 1.6 0 3.2c0 2.8 2.1 4.5 5.4 4.5h46.9q1.3 0 2.6 0c1 0.1 1.7 0.6 1.8 1.4 0 0.8-0.7 1.4-1.9 1.4q-5 0-10.1 0h-39c-5.5 0-9-2.9-9-7.6q0-2.3 0-4.7c0-1.2 0.6-1.7 2-1.7h4.3q5.6 0 11.3 0z"/><path fill-rule="evenodd" class="a" d="m93 16.1q0 0.7 0 1.3-0.1 0.6-0.1 1.2 0 0.7-0.1 1.3-0.2 0.9-0.6 1.8-0.4 0.8-1.1 1.5-0.6 0.7-1.5 1.2-0.8 0.5-1.7 0.7-0.2 0.1-0.4 0.2-0.2 0.1-0.3 0.3-0.1 0.2-0.2 0.4 0 0.2 0 0.4 0 23.2 0 46.3c0 1.6-0.4 2-2.2 2q-8.7 0-17.4 0-0.2 0-0.4 0-0.2 0.1-0.4 0.1-0.2 0.1-0.4 0.1-0.2 0.1-0.4 0.2c-4.3 2.4-8.6 4.8-13 7.2q-0.6 0.4-1.3 0.6-0.8 0.2-1.5 0.2-0.8 0-1.5-0.2-0.7-0.2-1.4-0.6c-4.3-2.4-8.6-4.8-12.9-7.1q-0.2-0.1-0.4-0.2-0.2-0.1-0.4-0.2-0.2 0-0.4 0-0.3-0.1-0.5-0.1-8.7 0-17.5 0c-1.6 0-2.1-0.4-2.1-2q0-23.2 0-46.5c0-0.6-0.1-0.9-0.8-1.1q-1.1-0.3-2-0.9-0.9-0.6-1.6-1.5-0.7-0.9-1.1-2-0.4-1-0.4-2.1c-0.1-4.7-0.1-4.7 2.6-8.5 2.1-3 4.2-5.9 6.2-8.9q0.2-0.2 0.4-0.5 0.2-0.2 0.5-0.3 0.3-0.2 0.6-0.2 0.3-0.1 0.7-0.1 16 0 32 0 15.9 0 31.9 0 0.3 0 0.7 0.1 0.3 0 0.6 0.2 0.3 0.1 0.6 0.4 0.2 0.2 0.4 0.5 4 5.8 8.1 11.6 0.2 0.2 0.3 0.4 0.1 0.3 0.2 0.5 0.1 0.3 0.1 0.6 0.1 0.2 0 0.5 0.1 0.6 0.1 1.2zm-81.6-3.3h77.3c-2.2-3.1-4.3-6.1-6.4-9.2q-0.1-0.1-0.3-0.3-0.1-0.1-0.3-0.2-0.1-0.1-0.3-0.1-0.2 0-0.4 0-31 0-62 0-0.2 0-0.4 0-0.2 0-0.3 0.1-0.2 0.1-0.4 0.2-0.1 0.2-0.2 0.3c-1.9 2.9-3.9 5.7-5.9 8.5-0.2 0.2-0.4 0.4-0.4 0.7zm66.7 3.4c0.1-0.5-0.2-0.5-0.6-0.5-1.3 0-2.5 0-3.8 0q-1.9 0-3.9 0c-0.4-0.1-0.6 0-0.6 0.5q0 1.2 0 2.4c0.1 1.1 0.7 2.2 1.5 2.9 0.8 0.8 1.9 1.2 3 1.2 1.1 0 2.1-0.4 3-1.2 0.8-0.7 1.3-1.8 1.4-2.9 0-0.8 0-1.6 0-2.4zm-11.9 0c0.1-0.5-0.1-0.6-0.5-0.6q-1.9 0-3.8 0-0.7 0-1.5 0-0.4 0-0.7 0-0.4 0-0.8 0-0.4 0-0.7 0.1-0.4 0-0.8 0c0 1.1-0.1 2.2 0 3.2 0.2 1.1 0.7 2 1.5 2.7 0.9 0.7 1.9 1.1 3 1.1 1.1-0.1 2.1-0.5 2.9-1.2 0.8-0.7 1.3-1.7 1.4-2.8 0.1-0.8 0-1.7 0-2.5zm-11.8 0c0-0.4-0.1-0.6-0.5-0.6q-2 0-3.9 0-0.8 0-1.5 0c-1 0.1-2.3-0.4-2.8 0.2-0.5 0.6-0.2 1.8-0.2 2.8 0.1 1.1 0.6 2.2 1.5 2.9 0.8 0.8 1.8 1.2 3 1.2 1.1 0 2.2-0.4 3-1.2 0.8-0.7 1.3-1.8 1.4-2.9 0-0.8 0-1.6 0-2.4zm-11.8 0c0-0.5-0.2-0.6-0.6-0.6q-2 0-3.9 0-0.7 0-1.5 0c-1 0.1-2.3-0.4-2.8 0.2-0.5 0.6-0.1 1.8-0.1 2.8 0.1 1.1 0.6 2.2 1.4 2.9 0.8 0.8 1.9 1.2 3 1.2 1.1 0 2.2-0.4 3-1.1 0.8-0.8 1.3-1.8 1.4-2.9 0.1-0.8 0-1.7 0.1-2.5zm-11.9 0c0-0.5-0.2-0.6-0.7-0.6q-1.8 0-3.7 0c-0.5 0-1 0-1.5 0-1 0-2.2-0.4-2.8 0.1-0.6 0.6-0.2 1.9-0.2 2.8 0.1 1.1 0.6 2.2 1.5 2.9 0.8 0.8 1.8 1.2 3 1.2 1.1 0 2.2-0.4 3-1.2 0.8-0.7 1.3-1.8 1.4-2.9 0-0.7 0-1.5 0-2.3zm-15.2 6.4q0.8-0.2 1.4-0.6 0.7-0.5 1.2-1.1 0.4-0.6 0.7-1.3 0-0.3 0.1-0.5 0-0.3 0-0.5 0-0.3 0-0.5 0-0.3 0-0.5 0-0.2 0-0.3 0-0.1 0-0.3 0-0.1 0-0.2 0-0.1 0-0.3c0.1-0.7-0.2-0.8-0.9-0.8q-3.6 0-7.2 0c-0.6 0-0.8-0.1-0.8 0.7q0 1.1 0 2.2 0.1 0.8 0.4 1.5 0.3 0.7 0.9 1.3 0.5 0.5 1.2 0.9 0.7 0.3 1.5 0.3 0.8 0.1 1.5 0zm56.1 46q0.2-0.2 0.4-0.4 0.1-0.2 0.2-0.5 0-0.2 0-0.5 0-10.8 0-21.6 0-0.3 0-0.5-0.1-0.3-0.2-0.5-0.2-0.2-0.4-0.4-0.2-0.2-0.4-0.3-10.1-5.5-20.1-11-0.3-0.2-0.6-0.2-0.2-0.1-0.5-0.1-0.3 0-0.6 0.1-0.2 0-0.5 0.2-9.9 5.5-19.9 10.9-0.3 0.1-0.6 0.3-0.2 0.2-0.4 0.5-0.2 0.3-0.2 0.6-0.1 0.3-0.1 0.6c0 3.6 0 7 0 10.6q0 5.3 0 10.7 0 0.3 0 0.6 0.1 0.3 0.3 0.5 0.1 0.3 0.4 0.5 0.2 0.2 0.4 0.3 10 5.5 20 11 0.3 0.2 0.6 0.2 0.2 0.1 0.5 0.1 0.3 0 0.6-0.1 0.3 0 0.5-0.2 10.1-5.6 20.2-11.1 0.2-0.1 0.4-0.3zm11.9 3.3c0.7 0 0.5-0.4 0.6-0.8q0-22.6 0-45.3 0-0.1 0-0.2-0.1-0.2-0.2-0.3 0-0.1-0.2-0.2-0.1 0-0.2-0.1-0.5-0.1-1-0.3-0.4-0.1-0.9-0.4-0.4-0.2-0.8-0.6-0.4-0.3-0.7-0.7c-0.4-0.4-0.6-0.4-1 0-0.7 0.8-1.5 1.4-2.4 1.8-1 0.4-2 0.6-3 0.6-1 0-2.1-0.2-3-0.6-0.9-0.4-1.8-1-2.5-1.8-0.4-0.4-0.6-0.3-0.9 0-0.7 0.8-1.6 1.4-2.5 1.8-1 0.4-2 0.6-3 0.6q-1.5 0-3-0.6c-0.9-0.4-1.8-1-2.5-1.8-0.3-0.3-0.5-0.3-0.8 0-0.7 0.8-1.6 1.4-2.5 1.8-1 0.4-2 0.6-3 0.6-1.1 0-2.1-0.2-3-0.6-1-0.4-1.8-1-2.5-1.8-0.4-0.4-0.6-0.3-0.9 0-0.7 0.8-1.6 1.4-2.5 1.8-0.9 0.4-2 0.6-3 0.6-1 0-2.1-0.2-3-0.6-0.9-0.4-1.8-1-2.5-1.8-0.3-0.3-0.5-0.3-0.8 0-0.7 0.8-1.6 1.4-2.5 1.8-1 0.5-2 0.7-3 0.7-1.1 0-2.1-0.2-3.1-0.7-0.9-0.4-1.8-1-2.5-1.8-0.4-0.4-0.5-0.3-0.8 0q-0.3 0.4-0.7 0.7-0.4 0.4-0.8 0.6-0.4 0.3-0.9 0.5-0.5 0.2-1 0.3c-0.5 0.1-0.6 0.4-0.6 0.9q0 22.5 0 45.1c0 0.6 0.1 0.8 0.8 0.8q5.4 0 10.7 0c0.2 0 0.5 0.1 0.6-0.2-2.5-1-3.2-2.9-3.2-5.4 0-6.9 0-13.8 0-20.7q-0.1-0.6 0.1-1.3 0.2-0.6 0.5-1.2 0.4-0.5 0.8-0.9 0.5-0.5 1.1-0.8 10.1-5.4 20.1-11 0.6-0.3 1.2-0.5 0.7-0.2 1.4-0.2 0.6 0 1.3 0.2 0.6 0.2 1.2 0.5 10.1 5.6 20.1 11.1 0.6 0.3 1.1 0.7 0.4 0.5 0.8 1 0.3 0.6 0.5 1.2 0.2 0.7 0.1 1.3 0 10.7 0 21.5 0 0.1 0 0.3 0 0.2 0 0.3 0 0.2 0 0.4-0.1 0.1-0.1 0.3c-0.3 1.6-1.5 2.6-3 3.4q5.8 0 11.5 0zm5.9-56.3c-1.3 0-2.5 0-3.8 0q-1.9 0-3.9 0c-0.5 0-0.6 0.2-0.6 0.6q0 1.2 0 2.4c0.1 1.1 0.6 2.2 1.5 2.9 0.8 0.8 1.8 1.2 3 1.2 1.1 0 2.2-0.4 3-1.2 0.8-0.7 1.3-1.8 1.4-2.9q0-1.2 0-2.4c0-0.5-0.2-0.6-0.6-0.6z"/><path class="a" d="m57.2 42.7c-0.4 0.8-1.3 0.9-2.3 0.4l-4.7-2.5h-0.2v7.1q0 3.7 0 7.3c0 0.6 0.2 0.7 0.8 0.7q2 0 4.1 0c1.1 0 1.8 0.6 1.8 1.4 0 0.9-0.7 1.4-1.8 1.4-1.3 0-2.7 0.1-4 0-0.7 0-0.9 0.2-0.9 0.8q0 6.7 0 13.3 0 0.4 0 0.7c0 0.4-0.2 0.8-0.5 1.1-0.2 0.2-0.6 0.4-1 0.4-0.4 0-0.8-0.2-1-0.4-0.3-0.3-0.5-0.7-0.5-1.1q0-0.3 0-0.6v-32.4q0-0.8 0.4-1.4 0.4-0.7 1.1-1 0.6-0.4 1.4-0.4 0.8 0 1.4 0.4 2.5 1.4 5 2.8c1 0.5 1.4 1.3 0.9 2z"/><path class="a" d="m69 47.8q0.1 0.2 0.2 0.5 0.1 0.2 0 0.5 0 0.3-0.2 0.5-0.1 0.2-0.4 0.4-0.2 0.1-0.4 0.2-0.3 0.1-0.5 0.1-0.3 0-0.6-0.1c-0.7-0.4-1.4-0.8-2.3-1.3v7.5q0 5.7 0 11.4 0.1 0.3-0.1 0.6-0.1 0.3-0.3 0.6-0.2 0.2-0.5 0.3-0.3 0.1-0.6 0.1-0.3 0-0.6-0.1-0.2-0.2-0.5-0.4-0.2-0.2-0.3-0.5-0.1-0.3 0-0.6 0-0.3 0-0.6 0-9.5 0-19 0-0.2 0-0.5-0.1-0.2-0.2-0.4-0.1-0.2-0.3-0.3-0.2-0.2-0.4-0.2-0.2-0.1-0.4-0.2-0.2-0.1-0.3-0.2-0.2-0.1-0.4-0.2-0.2-0.1-0.3-0.2-0.3-0.2-0.4-0.4-0.2-0.2-0.3-0.4 0-0.3 0-0.6 0-0.2 0.2-0.5 0.1-0.2 0.3-0.4 0.3-0.2 0.5-0.2 0.3-0.1 0.6-0.1 0.3 0 0.5 0.2 3.8 2 7.6 4.1 0.2 0.2 0.4 0.4z"/><path class="a" d="m43.3 44.4q0 0.1 0 0.2 0 0 0 0.1 0 0.1 0 0.2v24.6q0 0.3 0 0.6-0.1 0.2-0.3 0.5-0.1 0.2-0.4 0.3-0.2 0.2-0.5 0.2-0.3 0.1-0.5 0-0.3 0-0.6-0.2-0.2-0.1-0.4-0.3-0.1-0.2-0.2-0.5-1.7-4-3.4-8l-2.4-5.7h-0.1q0 5.1 0 10.3 0 0.2 0 0.5-0.1 0.2-0.2 0.4-0.2 0.3-0.4 0.4-0.2 0.2-0.4 0.3-0.4 0.1-0.7 0-0.4 0-0.7-0.2-0.3-0.3-0.4-0.6-0.2-0.3-0.2-0.7c0-2 0-3.9 0-5.9q0-5.9 0-11.9c0-1 0.5-1.6 1.3-1.7q0.3-0.1 0.5 0 0.3 0.1 0.6 0.2 0.2 0.2 0.4 0.4 0.1 0.2 0.2 0.5 2.7 6.4 5.3 12.7c0.2 0.3 0.3 0.6 0.6 1.2 0-0.5 0-0.7 0-1v-16.3q-0.1 0-0.1-0.1 0-0.1 0-0.2 0-0.1 0-0.2 0-0.1 0.1-0.2 0-0.3 0.1-0.5 0.2-0.3 0.4-0.4 0.2-0.2 0.4-0.3 0.3 0 0.5 0 0.3 0 0.5 0 0.3 0.1 0.5 0.3 0.2 0.1 0.3 0.3 0.1 0.3 0.2 0.5 0 0.1 0 0.2z"/></svg>