<svg version="1.2" xmlns="http://www.w3.org/2000/svg" viewBox="0 0 100 100" width="100" height="100">
	<title>Torque-OWN-BLOCKCHAIN-Icon-Blockchain-Wallet-svg</title>
	<style>
		.s0 { fill: #47b2e4 } 
	</style>
	<path id="Layer" class="s0" d="m50 88.2c1.3 0 2.5 0.8 3 2 0.5 1.2 0.3 2.6-0.7 3.6-0.9 0.9-2.3 1.2-3.5 0.7-1.2-0.5-2-1.7-2-3q0-0.7 0.2-1.3 0.3-0.6 0.7-1 0.5-0.5 1.1-0.7 0.6-0.3 1.2-0.3z"/>
	<path id="Layer" class="s0" d="m25.8 89.2c-0.9-0.1-1.8-0.7-2.1-1.5-0.4-0.9-0.1-1.9 0.6-2.6 0.7-0.6 1.7-0.8 2.5-0.4 0.9 0.4 1.4 1.3 1.4 2.2q0 0.5-0.2 0.9-0.2 0.4-0.6 0.7-0.3 0.3-0.7 0.5-0.4 0.2-0.9 0.2z"/>
	<path id="Layer" class="s0" d="m74 89.2c-0.9-0.1-1.8-0.7-2.1-1.6-0.3-0.9 0-1.9 0.7-2.5 0.7-0.6 1.7-0.8 2.5-0.3 0.9 0.4 1.4 1.3 1.3 2.2q0 0.5-0.2 0.9-0.2 0.4-0.5 0.7-0.4 0.3-0.8 0.4-0.4 0.2-0.9 0.2z"/>
	<path id="Layer" fill-rule="evenodd" class="s0" d="m83.8 30.2q0 17.9 0 35.8c0 3.8-2 5.8-5.7 5.8q-5.4 0-11 0c-0.7 0-0.8 0.2-0.8 0.9q0 4.3 0 8.7c-0.1 0.6 0.1 1 0.7 1.1q0.2 0 0.3 0.1 0.1 0 0.2 0.1 0.1 0 0.3 0.1 0.1 0 0.2 0.1 0.4 0.3 0.8 0.4 0.5 0.1 1 0.1 0.5 0 0.9-0.2 0.4-0.2 0.8-0.6c1.7-1.5 4.4-1.1 6.1 0.5 0.8 0.7 1.4 1.7 1.6 2.8 0.2 1.1 0 2.2-0.5 3.2-0.5 1-1.3 1.8-2.3 2.3-1 0.5-2.1 0.7-3.2 0.5q-0.8-0.2-1.5-0.6-0.8-0.4-1.3-1-0.6-0.6-0.9-1.4-0.3-0.8-0.4-1.6 0-0.3 0-0.5-0.1-0.2-0.2-0.4-0.2-0.2-0.4-0.3-0.2-0.1-0.4-0.2c-1.1-0.4-2.2-0.9-3.3-1.3q-0.3-0.1-0.6-0.3-0.3-0.2-0.4-0.4-0.2-0.3-0.3-0.6-0.1-0.3 0-0.6 0-5 0-10c0-0.7-0.2-0.9-0.9-0.9q-5.2 0-10.4 0c-0.6 0-0.8 0.2-0.8 0.8q0 6.2 0 12.3 0 0.1 0 0.3 0 0.2 0.1 0.3 0.1 0.2 0.3 0.3 0.1 0 0.3 0.1c2 0.7 3.4 2.5 3.8 4.6 0.3 2.1-0.4 4.2-2 5.6-1.7 1.3-3.9 1.8-5.9 1.1-2-0.7-3.5-2.4-3.9-4.5q-0.2-1.1 0-2.1 0.1-1.1 0.7-2 0.5-1 1.3-1.7 0.8-0.7 1.8-1 0.2-0.1 0.3-0.1 0.2-0.1 0.3-0.3 0.1-0.1 0.1-0.3 0.1-0.2 0-0.3 0-6.1 0-12.3c0-0.6-0.2-0.8-0.8-0.8q-5.2 0-10.5 0c-0.6 0-0.7 0.2-0.7 0.8q0 5 0 10 0 0.3-0.1 0.7-0.1 0.3-0.3 0.6-0.1 0.2-0.4 0.4-0.3 0.2-0.6 0.3c-1.1 0.4-2.2 0.9-3.4 1.3q-0.2 0.1-0.3 0.2-0.2 0.1-0.4 0.2-0.1 0.2-0.1 0.4-0.1 0.2-0.1 0.4 0 0.9-0.4 1.8-0.3 0.8-1 1.5-0.6 0.6-1.4 1-0.9 0.4-1.8 0.5c-1.1 0.1-2.2-0.2-3.2-0.8-1-0.6-1.7-1.6-2.1-2.6-0.3-1.1-0.3-2.3 0.1-3.4 0.4-1.1 1.1-2 2.1-2.6q0.7-0.5 1.5-0.6 0.8-0.2 1.6-0.2 0.9 0.1 1.6 0.5 0.8 0.3 1.4 0.9 0.1 0.2 0.3 0.3 0.2 0.1 0.4 0.1 0.2 0.1 0.4 0 0.2 0 0.4-0.1c0.9-0.5 2.3-0.6 2.8-1.4 0.5-0.7 0.2-2 0.2-3q0-3.2 0-6.4c0-0.7-0.2-0.8-0.8-0.8q-5.7 0-11.4 0c-2.7 0-4.6-1.4-5.3-3.7q-0.1-0.3-0.1-0.5 0-0.3-0.1-0.5 0-0.3 0-0.5 0-0.3 0-0.5v-35.8c0.1-3.5 1.6-5.4 5.1-5.8 0.6-0.1 0.5-0.5 0.5-0.8q0-1.2 0.3-2.3 0.2-1.2 0.6-2.3 0.5-1.1 1-2.1 0.6-1 1.4-1.9 0.9-1.1 2-2 1.1-0.9 2.4-1.5 1.2-0.7 2.6-1.1 1.4-0.4 2.8-0.5 0.1 0 0.2 0 0.2-0.1 0.3-0.1 0.1-0.1 0.2-0.2 0.1-0.1 0.2-0.2 1.1-1.4 2.4-2.5 1.3-1.2 2.8-2.1 1.5-0.8 3.2-1.4 1.7-0.6 3.4-0.8c0.1 0 0.3-0.1 0.3-0.2h4.1q0.2 0.1 0.5 0.1 0.3 0.1 0.5 0.2 0.3 0 0.6 0.1 0.2 0 0.5 0 1.5 0.4 2.9 1 1.5 0.6 2.8 1.4 1.3 0.8 2.4 1.8 1.2 1.1 2.1 2.3 0.1 0.1 0.2 0.2 0.1 0.1 0.3 0.2 0.1 0.1 0.2 0.1 0.2 0.1 0.3 0.1c6.9 0.9 11.7 5.4 12.9 12.1q0.1 0.2 0.1 0.5 0 0.2 0 0.4 0 0.3 0.1 0.5 0 0.2 0 0.5c0 0.4 0.1 0.5 0.5 0.5 3.5 0.4 5.1 2.3 5 5.7zm-9-9.5q-0.7-1.8-1.9-3.2-1.3-1.5-2.9-2.5-1.6-1-3.5-1.4c1.7 4.9 1.8 6 1.3 10.8-0.1 0.5 0 0.6 0.5 0.6q3.3 0 6.6 0c0.5 0 0.6-0.1 0.6-0.6q-0.1-1.9-0.7-3.7zm-33.6-12.6c-1.6 1.2-3 2.6-4.1 4.3-1.1 1.7-1.8 3.5-2.2 5.5-0.3 2-0.3 4 0.1 5.9q0 0.2 0.1 0.3 0.1 0.2 0.2 0.3 0.1 0.1 0.3 0.1 0.2 0.1 0.3 0c1.6 0 3 0 4.6 0 1.5 0 3 0 4.5 0 0.7 0.1 0.9-0.2 0.8-0.8 0-0.5 0.2-1.2 0-1.5-0.3-0.4-1-0.1-1.4-0.2q-0.3 0-0.6-0.1-0.2-0.2-0.4-0.4-0.2-0.2-0.3-0.5-0.1-0.2 0-0.5 0-0.3 0.1-0.5 0.1-0.3 0.2-0.5 0.2-0.2 0.5-0.3 0.2-0.1 0.5-0.1 0.1 0 0.2 0 0.1 0 0.2 0 0.1 0 0.3 0 0.1 0 0.2 0c0.4 0.1 0.6-0.1 0.6-0.5q0-1.7 0-3.3c0-0.5 0.1-1.3-0.1-1.6-0.2-0.4-1-0.1-1.4-0.2q-0.3 0-0.5-0.1-0.3-0.1-0.4-0.3-0.2-0.2-0.3-0.4-0.1-0.3-0.1-0.5 0-0.3 0.1-0.5 0-0.2 0.2-0.4 0.1-0.2 0.4-0.4 0.2-0.1 0.4-0.1 0.1 0 0.2 0 0.2 0 0.3 0 0.1 0 0.2 0 0.1 0 0.2 0c1.5 0 1.5 0 1.7-1.4q0-0.1 0-0.1 0 0 0 0 0-0.1 0-0.1 0 0 0 0 0-0.3 0.1-0.5 0.2-0.2 0.3-0.4 0.2-0.1 0.5-0.2 0.2-0.1 0.5-0.1 0.2 0 0.4 0.1 0.3 0.1 0.5 0.2 0.1 0.2 0.3 0.4 0.1 0.2 0.1 0.5 0 0.1 0 0.3 0 0.1 0 0.3 0.1 0.1 0.1 0.3-0.1 0.1-0.1 0.3c0 0.3 0.1 0.4 0.5 0.4 0.3 0 0.5 0 0.5-0.4q0-0.2 0-0.3 0-0.1 0-0.2 0-0.2 0-0.3 0-0.1 0-0.2 0-0.3 0.1-0.6 0.1-0.2 0.3-0.4 0.2-0.2 0.5-0.3 0.2-0.1 0.5-0.1 0.2 0 0.5 0.1 0.2 0.1 0.4 0.3 0.2 0.2 0.3 0.4 0.1 0.3 0.1 0.5 0 0.1 0 0.3 0 0.1 0 0.3 0 0.1 0 0.2 0 0.2 0 0.3 0 0.2 0 0.3 0 0.2 0.1 0.3 0.1 0.2 0.2 0.3 0.2 0.1 0.3 0.1c0.8 0.4 1.5 0.9 2 1.6 0.5 0.7 0.9 1.5 1 2.4 0.2 0.8 0.2 1.7-0.1 2.5-0.2 0.8-0.6 1.6-1.2 2.2-0.3 0.4-0.4 0.6 0 0.9q0.3 0.3 0.5 0.6 0.2 0.3 0.4 0.7 0.2 0.3 0.3 0.7 0.1 0.4 0.1 0.8c0.1 0.7 0.4 0.7 0.9 0.7q2.7 0 5.3 0c2 0 2 0 2.2-2 0.3-2.4 0-4.9-0.8-7.2-0.9-2.3-2.3-4.4-4.1-6-1.9-1.7-4.1-2.9-6.4-3.5-2.4-0.6-4.9-0.7-7.3-0.1-2 0.4-3.8 1.3-5.4 2.4zm12.1 10.3c0.5-0.4 0.8-1 0.8-1.7 0.1-0.6 0-1.3-0.4-1.8-0.4-0.5-0.9-0.9-1.5-1.1q-0.2-0.1-0.4-0.1-0.3 0-0.5-0.1-0.2 0-0.4 0-0.2 0-0.4 0c-1.9 0-1.9 0-1.9 1.8q0 0.6 0 1.1c0.1 0.9-0.5 2.1 0.2 2.6 0.6 0.4 1.8 0.1 2.8 0.1 0.6-0.1 1.2-0.3 1.7-0.8zm0.8 5.9c0.1-0.3-0.2-0.7-0.4-1-0.7-1.3-2-1.3-3.3-1.3-2 0-2 0-1.8 2 0 0.4 0.1 0.5 0.5 0.5 0.8 0 1.6 0 2.2 0q0.9 0 1.8 0c0.3 0 0.8 0.2 1-0.2zm-24.1-9.8q-1.6 1-2.9 2.4-1.2 1.5-1.9 3.3-0.7 1.8-0.8 3.7c0 0.6 0.3 0.6 0.7 0.6q2.7 0 5.5 0c1.6 0 1.6 0 1.4-1.6q0 0 0-0.1 0-0.1 0-0.2 0 0 0-0.1 0-0.1 0-0.1-0.1-1.2-0.1-2.4 0.1-1.2 0.3-2.4 0.1-1.2 0.5-2.3 0.3-1.2 0.8-2.2-1.8 0.4-3.5 1.4zm51.1 25.6c-0.1-1.3 0-2.6 0-3.9 0-1.5-0.1-1.5-1.6-1.5-1.4 0-2.1-0.4-2.1-1.4 0-0.9 0.6-1.4 2.1-1.4 1.6 0 1.6 0 1.6-1.5 0-2.4-0.7-3.1-3.1-3.1-4.6 0-51.7 0-56.4 0q-0.3-0.1-0.7 0-0.4 0.1-0.8 0.3-0.3 0.2-0.6 0.5-0.2 0.3-0.4 0.6-0.1 0.2-0.1 0.4-0.1 0.2-0.1 0.4 0 0.2 0 0.4 0 0.2 0 0.4v35.7q0 0.1 0 0.3 0 0.1 0 0.3 0 0.1 0.1 0.3 0 0.1 0 0.3 0 0.3 0.2 0.6 0.1 0.3 0.3 0.5 0.2 0.2 0.5 0.4 0.3 0.1 0.6 0.2 0.2 0 0.4 0.1 0.2 0 0.4 0 0.2 0 0.4 0 0.2 0 0.4 0h55.2c3.3 0 3.9-0.6 3.8-3.9 0-0.5-0.1-0.8-0.7-0.7q-0.2 0-0.4 0-0.2 0-0.4 0-0.2 0-0.4 0-0.2 0-0.4 0c-0.3 0-0.7-0.2-1-0.4-0.2-0.3-0.4-0.6-0.4-1 0-0.4 0.2-0.7 0.4-1 0.3-0.2 0.7-0.4 1-0.4q0.2 0 0.4 0 0.2 0 0.4 0 0.2 0 0.4 0 0.2 0 0.4 0c0.5 0.1 0.7-0.1 0.7-0.7q0-2.5 0-5.1c0-0.6-0.2-0.7-0.8-0.7q-2.7 0-5.5 0-0.4 0-0.8 0-0.4 0-0.8 0-0.4 0-0.8-0.1-0.4 0-0.8-0.1c-1.6-0.4-3.1-1.3-4.1-2.7-1-1.3-1.4-3-1.3-4.7 0.2-1.7 1-3.2 2.2-4.4 1.2-1.1 2.8-1.8 4.5-1.9 2.3 0 4.6 0 7 0 0.8 0 1.2-0.1 1.1-1.1zm-0.1 4.6c0-0.5-0.1-0.7-0.7-0.7-1.2 0-3.4 0-4.6 0-1.1 0-2.2 0-3.2 0-0.9 0.2-1.9 0.7-2.5 1.4-0.7 0.8-1 1.7-1 2.7 0 1 0.3 2 1 2.8 0.6 0.7 1.6 1.2 2.5 1.3 2.7 0.3 5.4 0.1 8 0.1 0.6 0.1 0.6-0.2 0.6-0.6 0-2.3 0-4.7-0.1-7z"/>
	<path id="Layer" class="s0" d="m26.3 48.2q0 1.7 0 3.4c0 1.1-0.5 1.6-1.3 1.6-0.9 0-1.4-0.6-1.4-1.6q0-3.5 0-6.9c0-1 0.5-1.6 1.3-1.6 0.9 0 1.4 0.5 1.4 1.6 0.1 1.1 0 2.3 0 3.5z"/>
	<path id="Layer" class="s0" d="m53.7 31.9q1.7 0 3.4 0 0.3 0 0.6 0.1 0.3 0.1 0.5 0.2 0.2 0.2 0.3 0.5 0.2 0.3 0.2 0.5 0 0.3-0.1 0.6-0.1 0.3-0.3 0.5-0.3 0.2-0.5 0.3-0.3 0.1-0.6 0.1-3.5 0-6.9 0-0.3 0-0.6-0.1-0.3-0.1-0.5-0.3-0.2-0.2-0.3-0.4-0.2-0.3-0.2-0.6c0-0.8 0.7-1.4 1.7-1.4 1 0 2.2 0 3.3 0z"/>
	<path id="Layer" class="s0" d="m53.8 61.6q1.6 0 3.3 0c0.4 0 0.8 0.1 1.1 0.3 0.3 0.3 0.5 0.7 0.5 1.1 0 0.4-0.2 0.8-0.5 1-0.3 0.3-0.7 0.4-1.1 0.4q-3.4 0-6.8 0-0.3 0-0.6-0.1-0.3-0.1-0.5-0.3-0.2-0.2-0.3-0.4-0.2-0.3-0.2-0.6c0-0.8 0.7-1.4 1.6-1.4 1 0 2.3 0 3.5 0z"/>
	<path id="Layer" class="s0" d="m39.4 34.7q-1.7 0-3.3 0c-1.1 0-1.7-0.6-1.7-1.4 0.1-0.9 0.7-1.4 1.7-1.4q3.3 0 6.6 0c1 0 1.6 0.5 1.7 1.4 0 0.8-0.6 1.4-1.7 1.4-1.1 0-2.2 0-3.3 0z"/>
	<path id="Layer" class="s0" d="m68 31.9q1.7 0 3.4 0c0.4 0 0.8 0.1 1.1 0.4 0.3 0.2 0.5 0.6 0.5 1 0 0.4-0.2 0.8-0.5 1-0.3 0.3-0.7 0.4-1.1 0.4q-3.4 0-7 0c-0.3 0-0.7-0.2-0.9-0.4-0.3-0.3-0.4-0.6-0.4-1 0-0.4 0.1-0.7 0.4-1 0.2-0.2 0.6-0.4 0.9-0.4 1.3 0 2.5 0 3.6 0z"/>
	<path id="Layer" class="s0" d="m39.5 61.6q1.7 0 3.4 0c0.3 0 0.7 0.2 0.9 0.4 0.3 0.3 0.4 0.6 0.4 1 0 0.4-0.1 0.7-0.4 1-0.2 0.2-0.6 0.4-0.9 0.4q-3.5 0-7 0-0.3 0-0.6-0.1-0.2-0.1-0.4-0.3-0.2-0.2-0.4-0.5-0.1-0.2-0.1-0.5 0-0.3 0.2-0.6 0.1-0.2 0.3-0.4 0.2-0.2 0.5-0.3 0.3-0.1 0.6-0.1 1.7 0 3.5 0z"/>
	<path id="Layer" class="s0" d="m68 61.6q1.7 0 3.4 0c1.1 0 1.6 0.5 1.6 1.3q0 0.3-0.1 0.6-0.1 0.3-0.4 0.5-0.2 0.2-0.5 0.3-0.3 0.1-0.6 0.1-3.4 0-6.8 0c-0.4 0-0.8-0.1-1.1-0.4-0.3-0.2-0.5-0.6-0.5-1 0-0.4 0.2-0.8 0.5-1.1 0.3-0.2 0.7-0.3 1.1-0.3q1.7 0 3.4 0z"/>
	<path id="Layer" class="s0" d="m27.6 32q0.6 0 1.2 0 0.3 0 0.5 0.1 0.2 0.1 0.4 0.3 0.1 0.2 0.2 0.4 0.1 0.2 0.1 0.4 0 0.3 0 0.5-0.1 0.3-0.3 0.5-0.1 0.2-0.3 0.3-0.2 0.1-0.5 0.1-0.2 0.1-0.4 0.1-0.2 0-0.4 0-0.2 0-0.4 0-0.3 0-0.5 0c-0.6 0-1 0.2-0.9 0.9q0 0.2 0 0.4 0 0.1 0 0.3 0 0.2 0 0.4 0 0.2 0 0.4 0 0.2-0.1 0.5-0.1 0.2-0.3 0.4-0.2 0.2-0.5 0.3-0.2 0.1-0.5 0.1-0.2 0-0.5-0.1-0.2-0.1-0.4-0.3-0.2-0.1-0.3-0.4-0.1-0.2-0.1-0.5-0.1-0.3-0.1-0.6 0-0.4 0-0.7 0-0.3 0.1-0.6 0-0.3 0-0.7 0.1-0.5 0.3-0.9 0.3-0.4 0.6-0.8 0.4-0.3 0.8-0.5 0.5-0.2 0.9-0.3c0.5-0.1 1-0.1 1.4-0.1z"/>
	<path id="Layer" class="s0" d="m27.6 64.4q-0.5 0.1-1 0-0.4 0-0.9-0.2-0.5-0.2-0.8-0.5-0.4-0.3-0.7-0.7c-0.9-1.3-0.7-2.8-0.5-4.3q0.1-0.2 0.2-0.4 0.1-0.1 0.3-0.3 0.2-0.1 0.4-0.1 0.2 0 0.4 0 0.2 0 0.5 0.1 0.2 0 0.3 0.2 0.2 0.1 0.3 0.3 0.1 0.2 0.2 0.4 0 0.2 0 0.4 0 0.3 0 0.5 0.1 0.2 0 0.4 0 0.2 0 0.4c0 0.8 0.3 1 1 1q0.1-0.1 0.3-0.1 0.2 0 0.4 0 0.1 0 0.3 0 0.2 0 0.4 0.1c0.3-0.1 0.7 0.1 0.9 0.3 0.3 0.3 0.4 0.6 0.5 1 0 0.4-0.2 0.7-0.4 1-0.3 0.2-0.6 0.4-1 0.4q-0.1 0-0.2 0-0.2 0-0.3 0.1-0.2 0-0.3 0-0.1 0-0.3 0z"/>
</svg>