<svg version="1.2" xmlns="http://www.w3.org/2000/svg" viewBox="0 0 90 90" width="90" height="90"><style>.a{fill:#47b2e4}</style><path class="a" d="m55.1 67.3c0.6-1.7 1.3-3 3.5-3q6.4 0 12.8 0c1.1 0 2.5 0.1 2.3 1.6 0 1.3-1.3 1.2-2.3 1.2-3.6 0-7.3 0.1-11 0-1.5 0-2.5 0.4-3 2q-2.2 7.5-4.6 15c-0.6 1.9-0.1 2.7 2 2.7q8.9-0.2 17.9 0 0.6 0 1.1-0.1 0.5-0.1 1-0.5 0.4-0.3 0.7-0.8 0.3-0.4 0.4-1c1-3.5 2.2-6.9 3.4-10.4 0.3-0.9 0.6-2.1 1.9-1.7 1.3 0.4 1 1.6 0.7 2.5-1.2 3.8-2.5 7.6-3.6 11.5-0.7 2.4-2 3.3-4.5 3.3-18.1-0.1-36.1 0-54.2-0.1-5.4 0-7.8-2.9-7.2-8.2 0.6-5.3 1.4-10.7 2.4-16q0.2-1.4 0.9-2.7 0.6-1.2 1.6-2.3 1-1 2.2-1.7 1.3-0.7 2.7-1c1.1-0.3 2.7-1.1 3.2 0.5 0.6 1.8-1.2 1.8-2.2 2.1-3 0.9-5.1 2.6-5.6 5.7-0.9 5.3-1.7 10.6-2.4 15.9-0.4 3.2 1.1 4.9 4.3 4.9q11.4 0 22.8-0.2c1.9 0 3.9-0.2 3.9-2.7 0-2.5-1.9-2.8-3.9-2.8-5.5 0-11-0.1-16.5 0-2.7 0.1-3.5-1.1-3-3.6q0-0.2 0.1-0.5 0-0.3 0.1-0.5 0-0.3 0.1-0.6 0.1-0.3 0.1-0.5c0.6-1.8-0.5-5.2 2.2-5 2.2 0.3 0.9 3.4 0.6 5.1-0.5 2.3 0.4 2.7 2.4 2.7 3.9 0 7.8 0.2 11.7 0 4.2-0.2 7.9 0.4 9.7 6.1 2.1-6.5 3.7-11.7 5.3-16.9z"/><path class="a" d="m81.4 23.3c0 1 0.2 2.2-1 2.5-1.6 0.3-1.6-1.1-1.7-2.2-0.4-2.9-1.8-5-4.8-5.7q-0.8-0.2-1.6-0.1-0.9 0-1.7 0.2-0.8 0.2-1.5 0.6-0.7 0.4-1.3 1c-0.7 0.6-1.5 1-2.2 0.1-0.8-0.8-0.2-1.5 0.4-2.2q0.7-0.6 1.4-1.1 0.8-0.5 1.6-0.9 0.9-0.3 1.8-0.5 0.9-0.1 1.8-0.1c4.8 0.1 8.8 3.9 8.8 8.4z"/><path class="a" d="m5 46.5q-0.1 0.4-0.4 0.6-0.3 0.3-0.6 0.4-0.3 0.1-0.7 0.1-0.4 0-0.7-0.1-0.4-0.1-0.6-0.4-0.3-0.2-0.4-0.6-0.2-0.3-0.1-0.7-0.1-0.4 0.1-0.7 0.1-0.4 0.4-0.6 0.2-0.3 0.6-0.4 0.3-0.1 0.7-0.1 0.4 0 0.7 0.1 0.4 0.1 0.6 0.4 0.3 0.2 0.4 0.6 0.1 0.4 0.1 0.7 0 0.4-0.1 0.7z"/><path class="a" d="m51.8 11.1q0.4-0.1 0.8 0 0.3 0.1 0.6 0.4 0.3 0.2 0.4 0.6 0.1 0.3 0.1 0.7c0.1 0.4-0.1 0.9-0.4 1.2-0.3 0.4-0.8 0.6-1.2 0.6-0.5 0.1-1-0.1-1.3-0.4-0.4-0.3-0.6-0.7-0.6-1.2 0-1.1 0.5-1.9 1.6-1.9z"/><path class="a" d="m87.7 43.5q0 0.4-0.2 0.7-0.1 0.4-0.4 0.6-0.3 0.2-0.7 0.3-0.4 0.1-0.7 0-0.4-0.1-0.7-0.2-0.2-0.2-0.5-0.4-0.2-0.3-0.2-0.6-0.1-0.3-0.1-0.6 0-0.4 0.2-0.7 0.1-0.4 0.4-0.6 0.3-0.3 0.6-0.4 0.4-0.1 0.7-0.1c1.1 0.3 1.8 0.9 1.6 2z"/><path class="a" d="m83.9 8.3q-0.3-0.2-0.6-0.4-0.2-0.3-0.3-0.7-0.1-0.3-0.1-0.7 0-0.4 0.2-0.7 0.2-0.3 0.5-0.6 0.2-0.2 0.6-0.3 0.4-0.1 0.7 0 0.4 0 0.7 0.1 0.3 0.2 0.5 0.4 0.2 0.3 0.3 0.6 0.1 0.3 0.1 0.6 0 0.4-0.1 0.7-0.1 0.4-0.4 0.7-0.3 0.2-0.6 0.3-0.4 0.2-0.8 0.1-0.3 0-0.7-0.1z"/><path fill-rule="evenodd" class="a" d="m11.4 3.8c8.2-4.8 16.6-4.4 24.5 0.9 8.8 5.8 12.6 18.8 8.2 27.2-0.4 0.9-0.8 2-2 1.6-1.2-0.3-1-1.4-0.6-2.3q0.1-0.4 0.2-0.7 0-0.4-0.1-0.8-0.1-0.3-0.3-0.6-0.2-0.3-0.5-0.6c-2.7-2.3-5.6-3.4-9.1-1.9q-1 0.5-1.9 1-0.9 0.6-1.8 1.3-0.9 0.6-1.7 1.4-0.8 0.8-1.5 1.6c-3.1 3.6-6.3 7.1-11.4 8.8 1.7 1.5 3.3 1.7 4.8 2.3 0.8 0.3 1.7 0.8 1.3 1.8-0.4 1.1-1.3 1-2.2 0.8q-1.1-0.2-2.1-0.6c-8.8-3.3-14-9.9-15-19-1.1-9.6 2.8-17.3 11.2-22.2zm17.3 0.9c-1.3-1.9-2.6 0.4-3.8 1.2-3.1 2.3-6.5 3.2-10 1.7-3-1.3-4.8-0.2-6.8 2.9 5-0.1 9.4 1 13.8-0.3q0.6-0.2 1.1-0.4 0.6-0.2 1.1-0.5 0.6-0.2 1.1-0.5 0.5-0.4 0.9-0.7c1.3-0.8 3.6-2 2.6-3.4zm-12.3 0.5q0.9 0.2 1.8 0.3 0.9 0 1.8-0.2 0.9-0.2 1.7-0.6 0.8-0.4 1.5-1c-2.8-0.5-4.8-0.3-6.8 1.5zm17.3 1.4q-0.2-0.3-0.6-0.4-0.3-0.1-0.7-0.1-0.4 0.1-0.7 0.3-0.3 0.2-0.4 0.5c-4.5 5.8-10.7 7.3-17.6 6.6q-0.8-0.2-1.6-0.2-0.7-0.1-1.5 0-0.8 0-1.6 0.1-0.7 0.1-1.5 0.3c-1.2 0.4-2.9 1-2.9 2.4 0 1.3 1.6 1.7 2.8 2.1q1.7 0.6 3.5 0.8 1.9 0.2 3.7 0.1 1.8-0.1 3.6-0.6 1.8-0.5 3.4-1.4c5.7-2.8 11.4-5.5 18.5-3.3q-0.5-1.1-1.2-2.1-0.6-1.1-1.4-2-0.8-0.9-1.8-1.7-0.9-0.8-2-1.4zm-24.3 31c3.1 1.1 6.2-0.3 8.6-2.7 2.4-2.3 4.7-5 7.2-7.3 5.2-4.9 9.4-5.6 15.3-2.7 0.7 0.3 1.6 1.7 2.3 0.2 0.6-1.3 0.4-2.8-1.3-3.3-3.7-1.3-7.4-1.5-11 0.2q-0.5 0.3-0.9 0.5-0.5 0.3-0.9 0.5-0.4 0.3-0.9 0.5-0.4 0.3-0.8 0.6c-6.9 4.3-14 8-23 5.5 1.1 3.6 2.2 6.8 5.4 7.9zm-4.7-10.9q1.1 0.5 2.3 0.8 1.2 0.2 2.5 0.3 1.2 0 2.4-0.1 1.3-0.2 2.5-0.5 1-0.3 2.1-0.7 1-0.3 2-0.8 1-0.4 2-0.9 0.9-0.5 1.9-1.1c5.9-3.9 11.8-7.5 19.4-5.2-3.3-3-7.2-3.2-11.1-2.2q-0.9 0.3-1.8 0.6-0.8 0.3-1.7 0.7-0.8 0.4-1.6 0.8-0.8 0.4-1.6 0.8-2 1-4.2 1.6-2.2 0.7-4.4 0.9-2.2 0.2-4.5 0-2.2-0.1-4.4-0.7c-1-0.3-2.7-2.6-3.4 0-0.6 2-1.2 4.5 1.6 5.7z"/><path fill-rule="evenodd" class="a" d="m37 36.5c2.4 0.6 4.6 1.5 7.2 1.2 1.6-0.2 1.7 1.1 2.1 2.4 0.7 2.3-0.5 4.6 0 6.9 0.9 3.6 0.7 6.6-3.6 8.2-1.4 0.5-3.5 2.3-0.8 4 5.1 3.2 5.2 8.4 5.9 13.5 0.1 0.9 0 1.8-1.1 1.9-1.2 0.1-1.4-0.8-1.5-1.6-0.4-2-0.7-4.1-1.2-6.1-1.1-4.4-4.2-6.4-8.6-5.9q-0.8 0.1-1.6 0-0.8-0.1-1.6-0.3-0.8-0.3-1.5-0.7-0.7-0.4-1.3-1c-0.7-0.6-1.2-1.4-0.4-2.2 0.6-0.7 1.3-0.4 2 0.1q0.4 0.4 0.9 0.7 0.5 0.3 1.1 0.5 0.6 0.2 1.2 0.2 0.6 0.1 1.2 0c1.5-0.3 3-1.2 3.2-2.6 0.1-2-1.9-1.4-3-1.8q-0.3 0-0.7-0.1-0.3-0.1-0.6-0.1-0.3-0.1-0.6-0.2-0.4 0-0.7 0c-3.4-0.6-4.4-2.6-3.8-5.8 0.5-3.2 2.2-4.5 5.3-4 2.4 0.3 4.8 0.8 7.2 1.2 1.1 0.2 2 0 2.1-1.3 0.1-1 0.5-2.6-0.8-2.9-3.3-0.5-6.5-2.5-10-1.2-5.3 1.9-7.3 8-4.5 13.2 0.5 0.8 1.2 1.5 0.3 2.2-1 0.9-1.8 0-2.4-0.7-1.6-1.5-1.6-3.5-1.6-5.5 0-8.4 5.2-13.6 12.2-12.2zm5.3 11.3c-2.6-0.5-5.3-0.9-7.9-1.3-1.5-0.3-2.2 0.2-2.5 1.7q-0.1 0.5-0.1 0.9 0.1 0.5 0.3 0.9 0.3 0.3 0.7 0.6 0.4 0.2 0.9 0.2c2.6 0.4 5.2 0.8 7.8 1.3q0.4 0.1 0.8 0 0.5 0 0.8-0.3 0.3-0.2 0.5-0.6 0.2-0.3 0.3-0.8c0.2-1.3-0.1-2.4-1.7-2.6z"/><path fill-rule="evenodd" class="a" d="m56.7 16.5c1.2-1.2 5.8-0.9 6.5 0.4 1.4 2.5-2.2 1.3-2.4 2.8q2.7 1.6 5.6 3 2.8 1.4 5.8 2.6 2.9 1.2 5.9 2.1 3.1 0.9 6.1 1.6c0-1.5-2.1-1.9-1.2-3.4q0.1-0.1 0.3-0.2 0.1-0.1 0.3-0.1 0.1-0.1 0.3-0.1 0.2-0.1 0.4-0.1c1.7 0 5.2 3.4 4.8 4.8-0.7 2.7-3 2-4.9 1.9q-0.1 0-0.3 0-0.2 0-0.4-0.1-0.2 0-0.3 0-0.2-0.1-0.4-0.2c-2.2-0.8-4-0.3-6.1 1-4.5 3-11 1.5-12.5-3.5-1.3-3.9-3.6-6.2-6.7-8.4-1.4-0.9-2.8-2.3-0.8-4.1zm18.8 13.2l-9.7-4c2.2 5.4 5.4 6.6 9.7 4z"/><path fill-rule="evenodd" class="a" d="m83.1 57.2q1.3-0.1 2.6 0.4 1.2 0.4 2.2 1.3 1 1 1.5 2.2 0.6 1.2 0.6 2.5 0 1.4-0.5 2.6-0.5 1.2-1.4 2.2-1 0.9-2.2 1.5-1.3 0.5-2.6 0.5c-1.7-0.1-3.3-0.8-4.5-2-1.2-1.2-1.9-2.8-1.9-4.5 0-1.7 0.6-3.3 1.7-4.6 1.2-1.2 2.8-2 4.5-2.1zm0.4 10.3q0.8 0.1 1.5-0.2 0.7-0.3 1.2-0.9 0.5-0.5 0.7-1.2 0.3-0.7 0.2-1.5c0-2.3-1.5-3.4-3.5-3.8-2.4 0.3-4 1.4-4 3.7 0 2.4 1.5 4 3.9 3.9z"/><path fill-rule="evenodd" class="a" d="m70 40.1q0.9 0 1.8 0.3 0.9 0.4 1.5 1 0.7 0.7 1.1 1.5 0.3 0.9 0.3 1.8c0.2 2.7-2.1 4.9-5.2 4.9-2.5-0.3-4.1-1.8-4.3-4.6q0-1 0.3-1.9 0.3-0.9 1-1.6 0.7-0.7 1.6-1.1 0.9-0.4 1.9-0.3zm-0.2 6.5q0.4 0.1 0.7 0 0.3-0.1 0.6-0.4 0.3-0.2 0.4-0.5 0.2-0.3 0.2-0.7 0.1-0.4 0-0.7-0.1-0.4-0.3-0.7-0.3-0.3-0.6-0.4-0.4-0.2-0.8-0.2-0.3-0.1-0.7 0-0.3 0.1-0.6 0.4-0.2 0.2-0.4 0.5-0.2 0.3-0.2 0.7c0 1.2 0.5 1.9 1.7 2z"/><path fill-rule="evenodd" class="a" d="m9.9 49.4c2.8 0.1 4.4 1.8 4.6 4.6q0.1 1-0.3 1.9-0.3 0.9-1 1.6-0.7 0.6-1.6 1-0.9 0.4-1.9 0.4c-2.8-0.3-4.4-1.8-4.7-4.2 0-3.3 2.1-5.4 4.9-5.3zm-0.2 6.6q0.4 0 0.7-0.1 0.4-0.1 0.7-0.4 0.2-0.2 0.4-0.6 0.1-0.3 0.1-0.7 0-0.3-0.1-0.7-0.1-0.3-0.3-0.6-0.3-0.3-0.6-0.4-0.4-0.1-0.8-0.1-0.3-0.1-0.7 0.1-0.3 0.1-0.6 0.3-0.2 0.2-0.4 0.6-0.1 0.3-0.1 0.7c0 1.1 0.6 1.8 1.7 1.9z"/></svg>