<svg version="1.2" xmlns="http://www.w3.org/2000/svg" viewBox="0 0 80 90" width="80" height="90"><style>.a{fill:#47b2e4}</style><path fill-rule="evenodd" class="a" d="m79 50.6q-0.2 0.3-0.3 0.6-0.2 0.4-0.3 0.7-0.1 0.4-0.2 0.7-0.1 0.4-0.2 0.7-0.5 2-1.2 3.9-0.6 1.9-1.4 3.8-0.7 1.9-1.5 3.8-0.9 1.9-1.8 3.7-0.3 0.5-0.6 1.1-0.3 0.5-0.7 1-0.3 0.5-0.7 1-0.4 0.5-0.8 1-0.6 0.9-1.5 1.5-0.8 0.7-1.8 1.1-1 0.5-2 0.7-1.1 0.2-2.1 0.2c-2 0-3.9 0-5.9 0-2.5 0-3.5 0.8-4.1 3q-0.2 0.9-0.3 1.7-0.1 0.9-0.1 1.7-0.1 0.9 0 1.7 0 0.9 0.1 1.7c0 0.6 0.1 1.1 0.1 1.6 0.1 1.7-0.6 2.5-2.5 2.5h-36.9c-2.4 0-3.2-1-2.5-3.1 1.9-6.1 3.8-12.1 5.1-18.3q0.3-1.2 0.3-2.4 0-1.2-0.2-2.4-0.2-1.2-0.6-2.3-0.4-1.1-1-2.1-0.5-0.9-1.1-1.8-0.6-0.9-1.2-1.8-0.5-0.8-1.2-1.7-0.6-0.8-1.2-1.7-1.4-1.9-2.6-3.9-1.3-2.1-2.3-4.2-1-2.2-1.8-4.5-0.8-2.2-1.3-4.5c-2.2-10.2 1-18.6 9.1-25.6 8.9-7.7 19.6-10.6 31.6-9.5q1.8 0.1 3.6 0.4 1.9 0.3 3.6 0.8 1.8 0.4 3.6 1 1.7 0.7 3.4 1.4c6.9 3.5 11.2 9 13.7 15.7q0.6 1.7 1.1 3.5 0.5 1.7 0.8 3.5 0.3 1.7 0.5 3.5 0.1 1.8 0.1 3.6 0 0.2 0.1 0.5 0 0.2 0.1 0.4 0 0.2 0.1 0.4 0.1 0.2 0.3 0.4 3.2 4.6 6.5 9.2c1.3 2 1.6 4 0.1 6.1zm-22.2-39.5q-0.5 0.1-1 0.3-0.4 0.1-0.9 0.3-0.5 0.2-1 0.4c-5.5 2.3-9 6-9.6 11.8-0.7 6.6-2.3 12.9-7.2 18.3l9.2 4.2q0.2 0 0.3 0.1 0.1 0 0.3 0 0.1 0 0.2 0 0.2-0.1 0.3-0.1 2.8-0.3 5.6-0.9 2.8-0.6 5.5-1.6 2.7-0.9 5.3-2.1 2.5-1.3 4.9-2.8c0.7-0.5 0.8-0.7 0.3-1.3q-0.4-0.4-0.7-0.8-0.2-0.5-0.4-1-0.2-0.5-0.3-1-0.1-0.5-0.1-1 0-1.4-0.1-2.8 0-1.3-0.2-2.7-0.2-1.3-0.5-2.7-0.3-1.3-0.7-2.6-0.4-1.7-1.1-3.3-0.7-1.6-1.5-3.2-0.9-1.5-2-2.9-1-1.3-2.3-2.6-0.1-0.1-0.3-0.2-0.1-0.1-0.3-0.1-0.2-0.1-0.4-0.1-0.1 0-0.3 0.1-0.5 0.1-1 0.3zm-14 38c-5.1-2.4-10.4-4.2-14.9-7.5-1.1-0.8-1.8-0.8-2.7 0.2q-0.3 0.3-0.5 0.6-0.2 0.3-0.3 0.6-0.1 0.4-0.1 0.7 0 0.4 0 0.7c0.5 2.3 0.9 4.6 1.4 6.9q0.1 0.5 0.4 0.9 0.2 0.5 0.6 0.8 0.4 0.3 0.9 0.5 0.4 0.2 0.9 0.2 0.4 0 0.8 0 0.3 0 0.7 0.1 0.3 0 0.7 0 0.3 0 0.7-0.1 0.4 0 0.8 0.1 0.5 0 0.8 0.2 0.4 0.3 0.7 0.6 0.3 0.3 0.5 0.7c1.6 3 3.3 6 5.1 9.1 0.1-0.4 0.2-0.5 0.2-0.7 1.3-4.4 2.6-8.8 4-13.3 0.2-0.7-0.1-1-0.7-1.3zm-27.2 5.9c0.3 0.4 0.5 0.3 0.9 0 1.3-1.2 2.7-2.4 4.1-3.5q0.2-0.1 0.3-0.3 0.2-0.1 0.2-0.3 0.1-0.2 0.1-0.4 0-0.3-0.1-0.5c-0.3-1.5-0.6-3.1-1-4.7q-0.2-1.3 0-2.5 0.3-1.3 0.9-2.4 0.7-1.1 1.8-1.9 1-0.8 2.3-1.2 0.6-0.2 1.2-0.3 0.6-0.1 1.2 0 0.6 0 1.2 0.3 0.6 0.2 1 0.6c0.9 0.7 1.9 1.2 2.9 1.9q0.2 0.1 0.3 0.2 0.1 0 0.3 0 0.1 0 0.2-0.1 0.2 0 0.2-0.2 0.4-0.3 0.8-0.7 0.3-0.3 0.6-0.7 0.3-0.4 0.6-0.8 0.3-0.5 0.6-0.9 0.8-1.4 1.5-2.9 0.6-1.5 1.1-3.1 0.5-1.5 0.8-3.1 0.3-1.7 0.4-3.3c0.6-6.6 3.8-11.5 10.1-14.8 1.3-0.6 2.6-1.2 4.1-1.8-0.3-0.1-0.5-0.2-0.6-0.3q-2.3-1-4.8-1.7-2.4-0.7-4.9-1.1-2.5-0.4-5.1-0.6-2.5-0.1-5 0.2-3.2 0.1-6.3 0.8-3.2 0.8-6.1 2.1-2.9 1.3-5.6 3.1-2.6 1.8-4.9 4.1c-3.9 4-6.4 8.5-6.6 14q0 1.6 0.1 3.2 0.2 1.7 0.5 3.3 0.3 1.6 0.8 3.1 0.5 1.6 1.2 3.1c2.1 5.1 5.5 9.5 8.7 14.1zm33.4 20.3q-1-0.1-1.9-0.3-1-0.2-1.9-0.4-1-0.2-1.9-0.5-0.9-0.3-1.8-0.6-0.6-0.2-1.2-0.5-0.5-0.3-1-0.7-0.5-0.4-0.9-0.9-0.4-0.5-0.7-1.1c-2.1-3.9-4.4-7.8-6.5-11.8q-0.1-0.2-0.3-0.4-0.2-0.2-0.4-0.3-0.2-0.1-0.4-0.1-0.3-0.1-0.5 0-0.9 0.1-1.7-0.1-0.9-0.1-1.7-0.4-0.8-0.3-1.6-0.7-0.7-0.5-1.3-1.1c-0.4-0.5-0.7-0.4-1 0-1.3 1-2.5 2.1-3.8 3.1q-0.1 0.1-0.2 0.3-0.1 0.1-0.2 0.3 0 0.1 0 0.3 0 0.2 0.1 0.3 0.5 1.2 0.8 2.4 0.3 1.2 0.4 2.4 0.1 1.3 0 2.5-0.1 1.3-0.3 2.5c-1.1 5.3-2.7 10.5-4.4 15.7-0.2 0.7-0.1 0.9 0.8 0.9q15.4 0 30.8 0c0.8 0 1-0.2 1-0.9-0.3-3.4-0.2-6.7 1.7-9.9zm26.4-28.5c-1.2-1.7-2.4-3.4-3.5-5-0.2 0.1-0.3 0.1-0.5 0.2q-2.5 1.7-5.2 3-2.8 1.4-5.6 2.5-2.9 1-5.9 1.7-3 0.7-6 1c-0.7 0.1-0.9 0.5-1.1 1q-2.4 8.3-4.8 16.5c-0.5 1.9-0.5 2 1.5 2.5q2.2 0.6 4.5 1 2.3 0.4 4.6 0.6 2.3 0.2 4.7 0.3 2.3 0 4.6-0.1 0.4 0 0.7-0.1 0.4-0.1 0.7-0.2 0.3-0.1 0.6-0.3 0.3-0.2 0.6-0.5 0.5-0.5 1-1.1 0.5-0.6 0.9-1.2 0.4-0.6 0.8-1.3 0.4-0.6 0.7-1.3-1 0.1-1.9 0.3-1 0.1-2 0.1-0.9 0.1-1.9 0.1-1 0.1-2 0.1c-1.7 0-3.4-0.1-5.2-0.3q-0.4 0-0.7-0.1-0.4-0.2-0.7-0.5-0.3-0.3-0.4-0.7-0.1-0.4 0-0.8 0-0.4 0.2-0.8 0.2-0.3 0.5-0.6 0.3-0.2 0.7-0.3 0.4-0.1 0.8-0.1c0.5 0.1 1.1 0.1 1.6 0.1q1.6 0.1 3.1 0.1 1.6 0 3.1-0.1 1.5-0.1 3.1-0.3 1.5-0.2 3-0.6c0.3 0 0.7 0 0.9-0.4 0.9-2.4 1.7-4.7 2.4-7.2-0.4 0.1-0.6 0.2-0.8 0.3q-2 0.8-4.1 1.4-2.1 0.6-4.2 1-2.1 0.5-4.3 0.8-2.1 0.3-4.3 0.4c-1.6 0.2-2.7-0.6-2.8-1.8-0.1-1.2 0.9-2 2.5-2.1q1.7-0.1 3.3-0.3 1.7-0.2 3.4-0.5 1.6-0.4 3.2-0.8 1.7-0.4 3.3-0.9 0.8-0.3 1.6-0.5 0.8-0.3 1.6-0.7 0.8-0.3 1.5-0.7 0.8-0.4 1.5-0.8c0.8-0.5 1.3-1.1 0.7-2z"/></svg>