<svg version="1.2" xmlns="http://www.w3.org/2000/svg" viewBox="0 0 94 88" width="94" height="88"><style>.a{fill:#47b2e4}</style><path fill-rule="evenodd" class="a" d="m47 39.9q-0.2 0-0.4 0-0.1-0.1-0.3-0.1-0.2-0.1-0.4-0.1-0.1-0.1-0.3-0.2-7.8-3.9-15.6-7.8l-4.8-2.4-0.6-0.3-3-1.6 4.6-2.1c1.4-0.6 2.6-1.2 3.9-1.8-1.9-2.7-3.7-5.5-5.8-8.6q-0.1-0.2-0.2-0.4-0.2-0.2-0.5-0.3-0.2-0.2-0.5-0.2-0.2-0.1-0.5-0.1c-1.5 0.1-3 0-4.3 0q-0.4 0.9-1 1.7-0.6 0.8-1.4 1.4-0.7 0.6-1.6 1.1-0.9 0.5-1.8 0.7-1 0.3-2 0.4-1 0.1-2-0.1-1-0.1-1.9-0.5-0.9-0.4-1.8-0.9-0.8-0.5-1.5-1.2-0.7-0.7-1.2-1.5-0.6-0.8-0.9-1.7-0.4-0.9-0.5-1.9l-0.1-0.2-0.1-0.2v-2q0-1 0.3-1.9 0.2-1 0.7-1.9 0.4-0.9 1.1-1.6 0.6-0.8 1.4-1.4c1.1-0.8 2.3-1.4 3.7-1.7 1.3-0.3 2.7-0.4 4.1-0.1 1.3 0.3 2.6 0.9 3.7 1.7 1.1 0.8 2.1 1.9 2.7 3.1 0.2 0.3 0.2 0.3 0.6 0.3 0.3 0 2.3 0 2.7 0q0.6 0 1.1 0 0.6 0 1.1 0.1 0.6 0 1.1 0.1 0.9 0.2 1.8 0.5 0.8 0.3 1.6 0.8 0.8 0.5 1.4 1.1 0.7 0.6 1.2 1.4c1.5 2.2 3.1 4.5 4.5 6.7l2.4 3.6 3-1.3q2-0.9 4-1.9 0.5-0.3 1.1-0.4 0.5-0.1 1.1-0.1 0.6 0 1.2 0.1 0.5 0.1 1 0.4 2.1 1 4.1 1.9c1 0.4 1.9 0.9 2.9 1.3l1.9-2.6q2.2-3.5 4.5-6.9 0.7-1.1 1.7-2.1 1-0.9 2.3-1.6 1.2-0.6 2.5-0.9 1.4-0.3 2.7-0.2 1 0 1.9 0c0.6 0 1.3 0 2 0q0.5-1.1 1.3-1.9 0.7-0.9 1.7-1.6 0.9-0.7 2-1.1 1.1-0.4 2.2-0.6 0.9-0.1 1.8-0.1 1 0.1 1.8 0.3 0.9 0.3 1.8 0.6 0.8 0.4 1.5 1 0.7 0.5 1.3 1.1 0.6 0.6 1.1 1.3 0.5 0.7 0.8 1.5 0.3 0.8 0.5 1.6 0 0.1 0 0.2 0 0.1 0 0.2 0 0.1 0 0.1 0 0.1 0 0.2l0.1 0.2v2.5q-0.1 0.7-0.3 1.3-0.2 0.7-0.5 1.3-0.3 0.6-0.7 1.2-0.3 0.6-0.7 1.1c-1 1.2-2.3 2.1-3.8 2.6-1.4 0.6-3 0.8-4.5 0.6-1.6-0.2-3-0.8-4.3-1.7-1.2-0.9-2.3-2.1-2.9-3.5q-2.4 0-4.5 0-0.2 0-0.4 0-0.3 0.1-0.5 0.2-0.1 0.1-0.3 0.2-0.2 0.2-0.3 0.4c-2 2.9-3.9 5.9-5.8 8.8l3.9 1.8 3.3 1.5-1.1 1.5q-0.1 0.2-0.2 0.3-0.2 0.1-0.3 0.2-0.2 0.2-0.3 0.2-0.2 0.1-0.4 0.2l-0.1 0.1-5.5 2.7q-7.4 3.7-14.9 7.5-0.1 0.1-0.3 0.1-0.2 0.1-0.4 0.2-0.1 0-0.3 0-0.2 0.1-0.4 0.1zm-18.5-12.3l2.8 1.4q7.8 3.9 15.7 7.8 7.4-3.7 14.9-7.4l3.6-1.8c-1.3-0.6-2.5-1.2-3.8-1.8q-0.5-0.1-0.8-0.4-0.4-0.4-0.5-0.8-0.1-0.5 0-0.9 0.1-0.5 0.4-0.9 3.3-4.8 6.5-9.7 0.3-0.5 0.8-0.9 0.4-0.4 0.9-0.7 0.5-0.3 1.1-0.4 0.6-0.1 1.2-0.1c1.4 0 2.9 0 4.4 0q0.4-0.1 0.8 0 0.5 0.1 0.8 0.4 0.4 0.2 0.7 0.5 0.2 0.4 0.4 0.8c0.5 0.9 1.2 1.7 2 2.3 0.9 0.7 1.9 1 2.9 1.2 1.1 0.1 2.1 0 3.1-0.4 1-0.4 1.9-1 2.5-1.8q0.3-0.4 0.6-0.8 0.2-0.4 0.4-0.8 0.2-0.5 0.4-0.9 0.1-0.5 0.2-1v-1.2q0-0.2-0.1-0.3 0-0.1 0-0.3 0-0.1 0-0.2 0-0.2 0-0.3 0 0 0-0.1-0.1-0.6-0.3-1.1-0.3-0.5-0.6-0.9-0.3-0.5-0.7-0.9-0.3-0.4-0.8-0.7-0.5-0.3-1.1-0.6-0.5-0.3-1.1-0.5-0.6-0.1-1.2-0.2-0.7 0-1.3 0.1-0.8 0.1-1.5 0.4-0.8 0.3-1.4 0.7-0.7 0.5-1.2 1.1-0.5 0.6-0.9 1.3-0.1 0.4-0.4 0.8-0.3 0.3-0.7 0.5-0.4 0.2-0.8 0.3-0.4 0.1-0.8 0.1-1 0-1.9 0c-0.6 0-1.3 0-2 0q-1-0.1-2 0.1-1 0.2-1.9 0.7-0.8 0.4-1.6 1.1-0.7 0.7-1.2 1.6-2.2 3.4-4.6 6.8l-1.7 2.7c-1.1 1.6-1.9 1.9-3.7 1-1-0.5-1.9-0.9-2.9-1.3-1.4-0.6-2.8-1.2-4.1-1.9q-0.2-0.1-0.4-0.2-0.3 0-0.5 0-0.2 0-0.5 0-0.2 0.1-0.4 0.2-2.1 1-4.1 1.9l-3 1.3c-1.9 0.9-2.7 0.7-3.8-1.1q-1.3-1.8-2.5-3.6c-1.4-2.2-2.9-4.5-4.4-6.6q-0.4-0.5-0.8-1-0.5-0.4-1-0.7-0.5-0.3-1.1-0.6-0.6-0.2-1.2-0.3-0.5 0-0.9-0.1-0.5 0-1-0.1-0.5 0-0.9 0-0.5 0-1 0.1h-1.7q-0.5 0-0.9-0.1-0.5-0.1-0.9-0.4-0.5-0.2-0.8-0.6-0.3-0.3-0.6-0.8-0.6-1.2-1.8-2.1c-0.8-0.6-1.6-1-2.6-1.2-0.9-0.2-1.9-0.1-2.8 0.1-0.9 0.2-1.8 0.6-2.5 1.2q-0.6 0.4-1 0.9-0.4 0.5-0.7 1.1-0.3 0.5-0.5 1.2-0.2 0.6-0.2 1.2c0 0.1 0 1.5 0 1.5q0.1 0.1 0.1 0.2 0 0 0 0.1 0 0 0 0.1 0.1 0.6 0.3 1.3 0.3 0.6 0.6 1.2 0.4 0.5 0.9 1 0.5 0.4 1 0.8 0.6 0.4 1.2 0.6 0.7 0.3 1.4 0.4 0.6 0.1 1.3 0 0.7 0 1.4-0.2 0.6-0.2 1.2-0.5 0.7-0.4 1.2-0.8 0.5-0.5 0.9-1.1 0.4-0.5 0.7-1.2 0.2-0.3 0.4-0.6 0.2-0.3 0.5-0.5 0.3-0.1 0.7-0.2 0.3-0.1 0.7-0.1c1.3 0 2.9 0 4.5 0q0.6 0 1.3 0.1 0.6 0.1 1.2 0.4 0.6 0.4 1 0.8 0.5 0.5 0.8 1c2.2 3.3 4.2 6.3 6.2 9.2q0.2 0.2 0.3 0.5 0.1 0.2 0.2 0.5 0 0.2 0 0.5 0 0.3 0 0.5-0.1 0.3-0.3 0.5-0.1 0.3-0.3 0.4-0.2 0.2-0.4 0.4-0.2 0.1-0.5 0.2c-1.2 0.5-2.3 1-3.5 1.6z"/><path fill-rule="evenodd" class="a" d="m9.9 87.8q-0.9 0-1.8-0.2-0.8-0.2-1.7-0.5-0.8-0.3-1.6-0.8-0.7-0.5-1.4-1.1-0.5-0.5-1-1.1-0.4-0.6-0.8-1.3-0.3-0.6-0.6-1.3-0.2-0.8-0.3-1.5 0 0-0.1-0.1 0 0 0-0.1l-0.1-0.3v-2.3q0.1-0.7 0.3-1.3 0.2-0.7 0.5-1.3 0.3-0.6 0.7-1.2 0.3-0.5 0.7-1.1 0.8-0.9 1.7-1.6 1-0.6 2.1-1.1 1.1-0.4 2.2-0.5 1.2-0.2 2.4 0 1.1 0.2 2.2 0.6 1.1 0.4 2 1.1 1 0.7 1.7 1.6 0.8 0.8 1.2 1.9 1.9 0 3.6 0c0.1 0 1.3 0 1.4 0q0.2-0.1 0.3-0.1 0.2-0.1 0.3-0.2 0.1-0.1 0.2-0.3 0.2-0.3 0.4-0.6l5.4-8.1-0.5-0.3c-1.6-0.8-3-1.6-4.6-2.3q-0.7-0.3-1.3-0.8-0.6-0.5-1-1.1-0.4-0.6-0.6-1.4-0.1-0.7-0.1-1.5 0-8.8 0-17.7v-8.2l1-0.4q0.2-0.1 0.5-0.1 0.2 0 0.5 0 0.2 0.1 0.5 0.2 0.2 0.1 0.4 0.2l12.6 6.3 7.1 3.5q0.4 0.2 0.6 0.4 0.3 0.2 0.5 0.5 0.2 0.3 0.3 0.7 0.1 0.4 0.1 0.7 0 10.4 0 20.8c0 0 0 5.7 0 5.8q0 0.1 0 0.1 0 0.1 0 0.1l-0.3 2.2-2.5-1.2-1.5-0.7-1.1-0.6c-1-0.5-2-1-3.1-1.5q-1.4 2.1-2.8 4.2-1.6 2.5-3.3 5-0.6 1.1-1.6 2-0.9 0.9-2.1 1.5-1.1 0.6-2.4 0.9-1.3 0.3-2.6 0.2c-0.7 0-3.5 0-4.2 0q-0.5 1-1.2 1.8-0.7 0.9-1.5 1.5-0.9 0.7-1.9 1.2-0.9 0.4-2 0.6-0.2 0.1-0.5 0.1-0.2 0-0.4 0.1-0.2 0-0.4 0-0.3 0-0.5 0zm-6.4-8.7q0.1 0.1 0.1 0.1 0 0.1 0 0.1 0 0.1 0 0.2 0.1 0.5 0.2 1 0.2 0.4 0.4 0.9 0.3 0.4 0.6 0.8 0.3 0.5 0.7 0.8 0.5 0.5 1.2 0.9 0.7 0.4 1.4 0.6 0.7 0.3 1.5 0.3 0.8 0 1.5-0.1 0.8-0.2 1.5-0.5 0.7-0.3 1.3-0.8 0.6-0.5 1-1.1 0.5-0.6 0.8-1.3 0.1-0.3 0.4-0.6 0.2-0.3 0.5-0.5 0.3-0.2 0.7-0.3 0.3-0.1 0.7-0.1 1.2 0 2.4 0h2.2q0.9 0.1 1.8-0.1 0.9-0.2 1.7-0.7 0.8-0.4 1.5-1 0.6-0.7 1.1-1.5 1.7-2.5 3.4-5c1.1-1.6 2-3.1 3.1-4.7q0.2-0.3 0.5-0.6 0.4-0.3 0.8-0.4 0.4-0.1 0.9-0.1 0.4 0.1 0.8 0.3 1.7 1 3.5 1.8l1.1 0.6c0-6.9 0-17.2 0-24.1l-7-3.4-11-5.6c0 5.9 0 16.7 0 22.6q-0.1 0.3 0 0.6 0 0.4 0.2 0.7 0.2 0.2 0.4 0.4 0.3 0.3 0.6 0.4c1.6 0.7 3.2 1.5 4.7 2.3l2 1 1.5 0.8-7.2 10.9q-0.2 0.4-0.5 0.7-0.3 0.5-0.7 0.8-0.4 0.4-0.8 0.6-0.5 0.2-1 0.4-0.5 0.1-1.1 0.1c-1.1 0-3.4 0-4.6 0q-0.4 0-0.9-0.1-0.4-0.1-0.7-0.3-0.4-0.3-0.7-0.6-0.3-0.3-0.4-0.7-0.3-0.7-0.8-1.3-0.6-0.7-1.2-1.1-0.6-0.5-1.4-0.8-0.7-0.2-1.5-0.3-0.8-0.2-1.6-0.1-0.7 0.1-1.5 0.4-0.7 0.3-1.4 0.8-0.6 0.4-1.1 1-0.3 0.4-0.6 0.8-0.2 0.4-0.4 0.9-0.2 0.4-0.4 0.9-0.1 0.4-0.2 0.9c0 0.1 0 1.4 0 1.4z"/><path fill-rule="evenodd" class="a" d="m84.1 87.8q-0.1 0-0.3 0-0.1 0-0.3 0-0.1-0.1-0.3-0.1-0.2 0-0.3 0-1.2-0.1-2.2-0.6-1.1-0.4-2.1-1.1-0.9-0.7-1.7-1.5-0.7-0.9-1.2-2-0.9 0-1.7 0-0.6 0-1.2 0-0.6 0.1-1.2 0-0.5 0-1.1 0-0.6-0.1-1.2-0.2-0.9-0.1-1.8-0.4-0.8-0.4-1.6-0.8-0.8-0.5-1.4-1.2-0.7-0.6-1.2-1.4c-2-2.9-4-6-6.6-9.9-1.5 0.8-3 1.5-4.4 2.2l-2.9 1.5-0.7-0.9q-0.2-0.2-0.3-0.4-0.1-0.2-0.1-0.4-0.1-0.2-0.1-0.4 0-0.3 0-0.5c0-0.3 0-26.3 0-26.5q0.1-0.4 0.3-0.7 0.2-0.3 0.4-0.6 0.3-0.2 0.6-0.4 7.8-3.8 15.5-7.7l4.7-2.4q0.1 0 0.2 0 0-0.1 0.1-0.1 0 0 0.1 0 0.1 0 0.1-0.1l0.8-0.2 0.7 0.6q0.2 0.2 0.3 0.4 0.1 0.2 0.2 0.4 0 0.2 0.1 0.5 0 0.2-0.1 0.5c0 5.4 0 18.9 0 24.3q0.1 0.7-0.1 1.4-0.2 0.7-0.6 1.3-0.4 0.6-0.9 1.1-0.6 0.5-1.2 0.8-2.4 1.1-4.8 2.3l-0.5 0.3 0.7 1.2q2.6 3.8 5.1 7.6 0.1 0.1 0.2 0.2 0.2 0.1 0.3 0.2 0.2 0.1 0.3 0.1 0.2 0 0.4 0c1.3 0 3.2 0 4.6 0 0.6-1.3 1.5-2.5 2.7-3.4 1.2-0.8 2.6-1.5 4-1.7 1.5-0.3 2.9-0.2 4.4 0.2 1.4 0.5 2.7 1.2 3.7 2.3q0.6 0.5 1 1.1 0.5 0.6 0.8 1.2 0.4 0.7 0.6 1.4 0.3 0.7 0.4 1.4c0 0.1 0 0.2 0.1 0.3v2.6q-0.1 0.6-0.3 1.3-0.2 0.6-0.5 1.2-0.2 0.6-0.6 1.2-0.4 0.6-0.8 1.1-0.6 0.8-1.4 1.4-0.8 0.7-1.7 1.1-1 0.4-2 0.7-0.9 0.2-2 0.2zm-8.3-8.3q0.4 0 0.8 0.1 0.4 0.1 0.8 0.3 0.3 0.3 0.6 0.6 0.3 0.3 0.4 0.7 0.3 0.7 0.8 1.3 0.6 0.6 1.2 1.1 0.6 0.5 1.4 0.7 0.7 0.3 1.5 0.4 0.8 0.1 1.6 0 0.7 0 1.5-0.3 0.7-0.3 1.4-0.8 0.6-0.4 1.1-1 0.3-0.4 0.6-0.8 0.2-0.4 0.4-0.9 0.2-0.4 0.4-0.9 0.1-0.4 0.2-0.9c0 0 0-1.3 0-1.4q-0.1-0.1-0.1-0.1 0-0.1 0-0.1 0-0.1 0-0.2-0.1-0.5-0.2-0.9-0.2-0.5-0.4-1-0.3-0.4-0.6-0.8-0.3-0.5-0.7-0.8c-0.7-0.7-1.6-1.2-2.6-1.5-1-0.3-2-0.4-3-0.2-1 0.2-2 0.6-2.8 1.3-0.8 0.6-1.4 1.5-1.8 2.4q-0.1 0.3-0.4 0.6-0.2 0.3-0.5 0.5-0.3 0.2-0.7 0.3-0.3 0.1-0.7 0.1-2.1 0-4.3 0h-0.6q-0.5 0-1.1-0.1-0.5-0.1-1-0.4-0.4-0.2-0.8-0.6-0.4-0.3-0.7-0.8-2.6-3.8-5.1-7.6l-2.7-4 3.6-1.8q2.4-1.2 4.8-2.4 0.3-0.1 0.5-0.3 0.2-0.2 0.4-0.4 0.2-0.3 0.2-0.5 0.1-0.3 0-0.6 0-8.1 0-16.3v-6.5l-3 1.5c-5 2.5-10 5-15.1 7.5v24c1.6-0.8 3-1.5 4.6-2.3q0.4-0.3 0.8-0.3 0.5-0.1 1 0 0.4 0.1 0.8 0.4 0.3 0.3 0.6 0.7c2.7 4.1 4.8 7.3 6.8 10.3q0.4 0.5 0.8 0.9 0.4 0.5 0.9 0.8 0.6 0.3 1.1 0.5 0.6 0.2 1.2 0.3 0.5 0.1 1.1 0.1 0.5 0.1 1 0.1 0.5 0 1 0 0.5 0 1.1 0z"/></svg>