<svg version="1.2" xmlns="http://www.w3.org/2000/svg" viewBox="0 0 100 100" width="100" height="100">
	<title>Torque-OWN-BLOCKCHAIN-Icon-Blockchain-Consulting-svg</title>
	<style>
		.s0 { fill: #47b2e4 } 
	</style>
	<g id="surface1">
		<path id="Layer" fill-rule="evenodd" class="s0" d="m66.2 55.2l1 0.9c-0.9 0.3-1.3 1.2-2.1 1l-0.2-0.1h0.1c-1.8-3.3-6-7.5-9.7-8.3-4.7-0.8-8.7-3.7-10.9-8-0.7-1.5-1.2-3-1.4-4.7-0.6 0.3-1.1 0.5-1.7 0.7-2.5 1-5.3 1.2-8 0.7q-1.6-0.3-3.1-1.1c-0.6-0.3-0.8-0.2-0.9 0.5-0.4 2.1-1.2 4.1-2.5 5.8-2.3 3.3-5.8 5.4-9.7 6.1-5.6 1.1-9.7 5.9-9.9 11.5-0.2 5-0.1 9.9-0.1 14.9 0 0.3 0.2 0.6 0.5 0.7q1.9 0.6 3.8 1.2c5.2 1.8 10.7 3.1 16.3 3.7 6.7 0.8 13.5 0.6 20.2-0.4l-0.1-0.1h0.1c0.7 0.4 1.2 1.1 1.3 1.9-4.9 0.9-9.9 1.3-14.9 1.1-9.7-0.3-19.3-2.2-28.3-5.8-0.7-0.2-1.1-0.8-1-1.5 0-5 0-10.1 0-15.1 0.1-7 5-12.9 11.8-14.2 5.1-0.8 9.1-4.5 10.3-9.5v-0.1c0.5-1.3 0.2-2.8-0.9-3.6-2.8-2.6-4.4-6.2-4.3-10q0-4 0-7.9c0.1-7.4 5.7-13.5 13.1-14.2 7.3-0.6 14 4.4 15.3 11.7q0.3 1.7 0.3 3.5c-0.1 2.9 0.1 5.8-0.2 8.7-0.4 3.4-2 6.6-4.6 8.8-0.6 0.4-0.8 1.1-0.7 1.7 0.6 5.3 4.6 9.6 9.8 10.7 4.1 0.7 7.8 3.1 10.1 6.6q0.7 1.1 1.2 2.2zm-18.2-28.9c0.8-4.4 0.9-8.8 0.1-13.2-1-5.4-5.6-9.4-11-9.6q-0.3-0.1-0.5-0.1c-3.2-0.1-6.4 1.1-8.8 3.3-2.3 2.3-3.7 5.4-3.8 8.6q0 4.1 0 8.2 0 1.5 0.4 2.9c1.3 5.2 6.5 9.3 11.6 9.1 5.7 0.2 10.7-3.6 12-9.2z"/>
		<path id="Layer" class="s0" d="m11.3 75.3v1.7q-0.1-0.2-0.2-0.3c-0.1-0.5-0.1-1 0-1.4-1 0-1.2-0.4-1.2-1.4q0-4.4 0-8.8c0-1 0.2-1.3 1.2-1.4q-0.2-0.8 0-1.6l0.1-0.2c-1.1 0-1.4-0.4-1.3-1.7 0-0.9 0.4-1.2 1.4-1.1h0.2c0.4 0.4 0.6 0.9 0.6 1.4-0.1 0.6-0.3 1.1-0.8 1.4v1.8c0.5 0.2 0.8 0.8 0.8 1.4 0 2.9 0 5.9 0 8.9 0 0.5-0.3 1-0.7 1.3z"/>
		<path id="Layer" class="s0" d="m33.3 37.4v0.2h-0.1z"/>
		<path id="Layer" class="s0" d="m19.3 48.4q0.9-0.3 1.6-0.7-0.8 0.3-1.6 0.7z"/>
		<path id="Layer" fill-rule="evenodd" class="s0" d="m84.7 98.7h-0.5l-0.1-0.2c-0.3-0.2-0.4-0.6-0.4-1 0-3 0-7 0-10q0-0.1 0-0.3c0.1-0.5 0.4-0.8 0.8-1q1.9-1 3.7-2.1l4.3-2.4 0.2-0.1q0.3-0.2 0.6-0.3c0.3-0.3 0.8-0.3 1.1 0q0.2 0.1 0.2 0.2l0.3 0.1v10.7l-0.1 0.2c-0.3 0.6-0.9 1.2-1.5 1.5l-4.4 2.6-3 1.8q-0.6 0.3-1.2 0.3zm0.4-11.3q0 4.5 0 9v0.6l3-1.8 4.4-2.5q0.6-0.3 1-0.8v-9.2l-0.3 0.1q-2.1 1.2-4.3 2.4l-3.6 2.1z"/>
		<path id="Layer" fill-rule="evenodd" class="s0" d="m84.5 87.8q-0.4 0-0.6-0.2-4.2-2.4-8.4-4.8l-0.1-0.1q-0.5-0.1-0.8-0.5l-0.2-0.3 0.1-0.4c0.2-0.4 0.5-0.8 1-1l6.9-4.1 0.3-0.2 0.1-0.1c0.4-0.5 1.1-0.8 1.8-0.8 0.7 0 1.3 0.3 1.8 0.8l1.2 0.7 2.7 1.7 2 1.2 1.5 0.8c0.4 0.2 0.8 0.6 1 1l0.3 0.7-0.7 0.3q-0.8 0.3-1.5 0.7l-0.6 0.4-4.4 2.4-3 1.7q-0.2 0.1-0.4 0.1zm-0.2-0.7l0.1-0.3 0.2-0.3h-0.1l-0.1 0.3zm0.1-0.3v0.1zm-8.1-5.1l8.1 4.7 2.7-1.6q2.2-1.2 4.4-2.4l0.6-0.4 0.6-0.4-1.2-0.7-2-1.2-2.7-1.7-1.4-0.9c-0.2-0.3-0.5-0.4-0.8-0.4-0.4 0-0.7 0.1-0.9 0.4l-0.2 0.2-0.4 0.2z"/>
		<path id="Layer" fill-rule="evenodd" class="s0" d="m57.1 87.8h-0.1q-0.8-0.2-1.4-0.7l-0.5-0.2-3.5-2-4-2.3q-0.3-0.1-0.5-0.4l-0.3-0.4 0.2-0.4c0.4-0.5 0.9-1 1.5-1.2l0.4-0.2 4.3-2.6 2-1.2h0.1c0.5-0.6 1.1-0.9 1.8-0.9 0.7 0 1.4 0.3 1.9 0.8 0.7 0.5 1.5 1 2.3 1.5l1.2 0.7 2.3 1.4 1.5 0.9c0.4 0.2 0.7 0.5 0.9 1l0.2 0.4-0.4 0.4q-0.6 0.4-1.2 0.8l-0.4 0.2-1.5 0.9-5.9 3.2h-0.1q-0.3 0.2-0.7 0.3zm-8.2-6.2l3.5 2 3.5 2q0.2 0.1 0.5 0.2 0.4 0.3 0.8 0.5h0.1l5.9-3.4 1.5-0.8 0.5-0.3 0.3-0.1-1.3-0.8-2.3-1.4-1.2-0.7q-1.3-0.8-2.5-1.6l-0.1-0.1c-0.2-0.2-0.5-0.4-0.9-0.4-0.3 0-0.6 0.2-0.8 0.4l-0.1 0.2q-0.2 0.1-0.3 0.2l-2 1.1q-2.2 1.3-4.4 2.6l-0.4 0.3z"/>
		<path id="Layer" fill-rule="evenodd" class="s0" d="m57.1 98.7q-0.6 0-1-0.3l-8.2-4.8c-0.7-0.4-1.1-1.1-1-1.9v-9.3q0-0.5 0.2-1l0.4-0.5 0.5 0.2q0.9 0.3 1.7 0.9l0.6 0.3q2.2 1.2 4.4 2.5l3.1 1.8c0.2 0.3 0.4 0.6 0.3 1v9.8c0.1 0.4 0 0.8-0.3 1.1l-0.2 0.1h-0.2zm-8.9-15.9c0 2.1 0 6.9 0 9 0 0.2 0.1 0.5 0.4 0.6l8 4.7v-9.5l-2.7-1.6-4.4-2.4q-0.3-0.2-0.6-0.4z"/>
		<path id="Layer" fill-rule="evenodd" class="s0" d="m57.3 98.7h-0.2l-0.6-0.1v-12l1.7-1 7.5-4.3h0.1q0.3-0.2 0.7-0.2l0.5-0.1 0.2 0.4c0.2 0.3 0.3 0.7 0.3 1.1v9.1c0 0.8-0.4 1.6-1.1 2l-4.7 2.7-3.3 2q-0.5 0.4-1.1 0.4zm0.6-11.2v9.4l3.1-1.8 4.6-2.7c0.3-0.2 0.5-0.5 0.5-0.8v-8.8l-7.2 4.1z"/>
		<path id="Layer" fill-rule="evenodd" class="s0" d="m70.8 76.8q-0.6 0-1.1-0.4l-8.1-4.8c-0.6-0.3-1-1-1-1.8q0-0.7 0-1.4v-0.3q-0.2-0.3-0.2-0.6 0-1 0-2 0-0.3 0.2-0.6v-4.3c-0.1-0.4 0-0.8 0.3-1.2l0.1-0.1 0.1-0.1c0.4-0.2 0.9-0.2 1.3 0.1l1.7 1 5 2.8 0.5 0.3 1.1 0.6h0.1q0.5 0.3 0.8 0.7v0.1q0 0.1 0.1 0.3 0 0.5 0 1c0 2.9 0 6.2 0 9.1v0.1c0 0.4-0.1 0.8-0.4 1.1l-0.1 0.2h-0.3zm-8.9-9.3l0.1 0.1c0 0.5 0 1.7 0 2.2 0 0.3 0.1 0.5 0.4 0.6l7.9 4.7q0-4.3 0-8.6c0-0.2 0-0.8 0-1q-0.1-0.1-0.2-0.1h-0.1l-1.1-0.7-0.5-0.2q-2.5-1.5-5-2.9l-1.4-0.8v4.6l-0.1 0.2q0 0.9 0 1.9z"/>
		<path id="Layer" fill-rule="evenodd" class="s0" d="m84.4 98.7q-0.5 0-1-0.4l-8.1-4.7c-0.6-0.4-1-1.1-1-1.9v-9.4q0-0.5 0.3-1l0.3-0.4 0.5 0.2q0.9 0.3 1.6 0.8l0.6 0.3q1.9 1.1 3.8 2.2l3.9 2.2v12l-0.6 0.1zm-8.7-15.9v9c0 0.2 0.1 0.5 0.3 0.6l7.8 4.6v-9.5l-3.2-1.8q-1.9-1.2-3.8-2.2l-0.6-0.4z"/>
		<path id="Layer" fill-rule="evenodd" class="s0" d="m71 76.8h-0.2l-0.6-0.1v-11.7c0-0.3 0.3-0.6 0.6-0.8l8.7-5c0.3-0.3 0.8-0.3 1.2 0l0.1 0.1 0.1 0.1c0.2 0.3 0.3 0.8 0.3 1.2v4.3q0.1 0.3 0.1 0.6 0 1 0 2 0 0.3-0.1 0.5v1.7c0 0.8-0.4 1.6-1.1 2l-8 4.7q-0.5 0.4-1.1 0.4zm0.6-11.4v9.6l7.7-4.6c0.3-0.1 0.5-0.4 0.5-0.7v-2.1l0.1-0.1q0-1 0-2l-0.1-0.1v-4.6z"/>
		<path id="Layer" fill-rule="evenodd" class="s0" d="m70.3 66.3l-0.1-0.9q-0.2-0.5-0.2-1v-9.6c0-0.4 0.1-0.8 0.4-1.1l0.1-0.2h0.3c0.5 0 1 0.1 1.4 0.4l0.1 0.1 7.6 4.5 0.1 0.1c0.4 0.2 0.8 0.6 1 1l0.2 0.7-0.6 0.2q-0.8 0.4-1.5 0.8l-0.7 0.4q-2.6 1.5-5.2 3zm1.1-11.2v8.9l1-0.6 5.2-3 0.7-0.3 0.7-0.4-7.5-4.5z"/>
		<path id="Layer" fill-rule="evenodd" class="s0" d="m71.6 66.4l-7.8-4.5-2.2-1.3h-0.1-0.1-1l0.4-0.9c0.1-0.5 0.4-0.8 0.8-1q4.1-2.4 8-4.8h0.1c0.3-0.2 0.8-0.4 1.3-0.3l0.6 0.1v0.6zm-8.9-6.7l1.8 1 5.6 3.2v-8.6z"/>
		<path id="Layer" fill-rule="evenodd" class="s0" d="m55.1 77.8c0-2.5 0-8.8 0-11.3 0-0.5 0.2-1.1 0.6-1.4 0.4-0.4 0.9-0.7 1.5-0.7h4.8v4.2h-2.7v9.2l-1.5-0.7c-0.6-0.4-0.6-0.4-1.4 0zm5.5-12h-3.4q-0.2 0-0.5 0.2-0.2 0.2-0.1 0.5 0 3.8 0 7.5v1.5c0.4-0.2 0.8-0.2 1.2 0v-7.1c0-0.4 0.1-0.7 0.3-0.9 0.3-0.3 0.6-0.4 0.9-0.3 0.6 0 1 0 1.6 0z"/>
		<path id="Layer" fill-rule="evenodd" class="s0" d="m86.6 77.8l-1.3-0.7c-0.7-0.4-0.7-0.4-1.4 0l-1.4 0.7c0-2 0-7.3 0-9.3q-0.7 0-1.4 0h-1.3v-4.1h4.6c0.6 0 1.2 0.2 1.6 0.6 0.5 0.4 0.7 1 0.6 1.6 0 0 0 11.2 0 11.2zm-2-2.5q0.3 0.1 0.6 0.2v-8.9c0-0.5-0.2-0.8-0.8-0.8h-3.2v1.3c0.5 0 1 0 1.4 0 0.4 0 0.7 0.1 1 0.3 0.3 0.3 0.4 0.7 0.4 1 0 2 0 4.1 0 6.2v0.9q0.2-0.1 0.6-0.2z"/>
	</g>
</svg>