<svg version="1.2" xmlns="http://www.w3.org/2000/svg" viewBox="0 0 96 95" width="96" height="95"><style>.a{fill:#47b2e4}</style><path fill-rule="evenodd" class="a" d="m92.2 51c1.8 4 2.1 8.5 0.7 12.7-1.4 4.1-4.3 7.6-8.2 9.7-3.8 2.1-8.3 2.7-12.6 1.6-4.2-1-7.9-3.7-10.3-7.4-0.3-0.5-0.5-0.5-1-0.1q-2.6 2-5.3 4-0.1 0-0.2 0.1-0.1 0.1-0.2 0.3 0 0.1 0 0.2 0 0.2 0.1 0.3 0.2 0.6 0.3 1.2 0.2 0.7 0.3 1.3 0 0.7 0.1 1.3 0 0.7 0 1.3 0 0.1 0.1 0.3 0 0.1 0.1 0.2 0 0.1 0.1 0.2 0.2 0.1 0.3 0.1l10.6 5.2q0.1 0.1 0.2 0.2 0.1 0 0.3 0 0.1 0 0.2 0 0.1-0.1 0.2-0.2 0.7-0.6 1.6-0.9 1-0.3 1.9-0.3 1-0.1 1.9 0.2 1 0.3 1.8 0.8 0.8 0.5 1.4 1.2 0.6 0.7 1 1.6 0.3 0.8 0.4 1.7 0.1 1-0.1 1.9-0.1 0.9-0.6 1.8-0.4 0.9-1.1 1.6-0.6 0.7-1.5 1.1-0.8 0.5-1.8 0.6 0 0 0 0-0.1 0.1-0.1 0.1 0 0-0.1 0 0 0 0 0h-1.9c-4-0.7-6-3.5-5.4-7.7 0-0.4 0-0.8-0.5-1-2.9-1.3-5.8-2.9-8.8-4.2-0.5-0.2-0.5 0-0.6 0.4q-0.3 0.8-0.6 1.6-0.3 0.8-0.7 1.6-0.5 0.8-0.9 1.5-0.5 0.8-1.1 1.5-0.8 1.1-1.9 2-1 0.9-2.2 1.7-1.2 0.8-2.4 1.3-1.3 0.6-2.7 1c-0.8 0.2-1.7 0.1-2.6 0.3h-4.1q-1.1-0.1-2.2-0.3-1.1-0.3-2.2-0.7-1-0.4-2-1-1-0.6-1.9-1.3-1.4-1-2.5-2.2-1.2-1.3-2-2.7-0.9-1.5-1.5-3.1-0.6-1.6-0.9-3.3c-0.1-0.7-0.4-1-1.2-1q-2.8 0-5.6 0-0.3 0-0.5 0.1-0.2 0-0.4 0.1-0.2 0.2-0.4 0.4-0.1 0.1-0.2 0.4-0.4 0.9-1.1 1.6-0.7 0.7-1.5 1.2-0.9 0.5-1.9 0.8-0.9 0.2-1.9 0.1-1.1-0.1-2.1-0.5-1-0.4-1.8-1.2-0.8-0.7-1.3-1.7-0.5-1-0.6-2.1 0 0 0 0 0-0.1 0-0.1 0 0 0 0-0.1 0-0.1-0.1v-1.8q0.1-1 0.5-1.9 0.4-0.9 1-1.6 0.7-0.7 1.5-1.2 0.9-0.5 1.9-0.7 1-0.3 2.1-0.2 1.2 0.1 2.2 0.6 1 0.5 1.7 1.3 0.8 0.8 1.3 1.8 0.1 0.3 0.3 0.5 0.1 0.2 0.4 0.4 0.2 0.1 0.5 0.2 0.3 0.1 0.6 0 2.7 0 5.3 0c1.1 0 1.1 0 1.3-1.1 0.5-3.2 1.9-6.1 4-8.6 2.1-2.4 4.8-4.3 7.9-5.3 3.1-1 6.4-1.1 9.5-0.4 3.1 0.7 6 2.3 8.3 4.5q0.4 0.3 0.7 0.7 0.3 0.4 0.6 0.7 0.3 0.4 0.6 0.8 0.3 0.4 0.5 0.8c0.4 0.7 0.8 0.6 1.3 0.2 1.5-1.2 2.9-2.3 4.4-3.4q0.2-0.1 0.4-0.3 0.1-0.1 0.2-0.4 0.1-0.2 0.1-0.4 0-0.3-0.1-0.5-0.4-1.3-0.5-2.7-0.2-1.4-0.1-2.7 0.1-1.4 0.4-2.8 0.2-1.3 0.7-2.6 0.7-1.8 1.7-3.4 1.1-1.6 2.4-2.9 1.4-1.4 3-2.4 1.6-1 3.4-1.6 0.1 0 0.2-0.1 0 0 0.1 0 0.1 0 0.1 0 0.1-0.1 0.2-0.1c0.6-0.1 0.5-0.4 0.2-0.8q-1.3-1.8-2.6-3.5-1.5-2-3-4.1-0.1-0.2-0.3-0.4-0.2-0.1-0.4-0.2-0.2 0-0.4 0-0.3 0.1-0.5 0.2-0.9 0.6-1.9 1-1 0.4-2.1 0.6-1.1 0.3-2.1 0.4-1.1 0.1-2.2 0.1-1.7 0-3.3-0.4-1.7-0.3-3.2-0.9-1.5-0.7-2.9-1.6-1.4-0.9-2.6-2.1-0.9-0.8-1.6-1.8-0.8-0.9-1.4-1.9-0.6-1.1-1.1-2.2-0.4-1.1-0.8-2.2c-0.1-0.6-0.3-0.9-0.9-0.4q-2.8 2.4-5.6 4.8-0.2 0.1-0.3 0.3-0.1 0.1-0.1 0.3 0 0.2 0.1 0.3 0 0.2 0.1 0.3 0.8 1 1.3 2 0.6 1.1 1 2.2 0.4 1.1 0.7 2.3 0.2 1.2 0.3 2.4 0 0.1 0.1 0.3 0 0.1 0.1 0.3 0.1 0.1 0.2 0.2 0.1 0.1 0.3 0.2 3.7 2.9 7.3 5.8 0.2 0.1 0.4 0.2 0.2 0 0.4 0 0.2 0 0.4 0 0.1-0.1 0.3-0.2 0.9-0.5 1.9-0.6 0.9-0.2 1.9-0.1 1 0.1 1.9 0.5 0.9 0.4 1.7 1.1c1.7 1.6 2.5 4 2 6.2-0.5 2.3-2.2 4.2-4.4 4.9-2.2 0.7-4.7 0.2-6.4-1.4-1.7-1.6-2.5-4-2-6.3q0.1-0.2 0.1-0.4 0-0.3 0-0.5-0.1-0.2-0.3-0.4-0.1-0.2-0.3-0.3c-1.8-1.3-3.5-2.7-5.3-4.1-0.4-0.4-0.6-0.3-0.7 0.3q-0.3 1.1-0.7 2.1-0.4 1.1-0.9 2-0.5 1-1.2 1.9-0.6 0.9-1.4 1.7-1.1 1.2-2.3 2.2-1.3 0.9-2.7 1.6-1.4 0.8-2.9 1.2-1.5 0.5-3.1 0.6-1.7 0.2-3.4 0.1-1.8-0.1-3.4-0.6-1.7-0.5-3.2-1.3-1.6-0.8-2.9-1.9c-3.7-3-6-6.7-6.4-11.5q0-0.1 0-0.1 0 0 0 0 0 0 0-0.1-0.1 0-0.1 0v-4.1c0.5-1.4 0.6-2.8 1.1-4.1 2.6-6.2 7.2-10 13.9-11.1 0.6-0.1 0.8-0.3 0.8-1q0-3.3 0-6.6 0-0.2 0-0.3 0-0.2-0.1-0.3-0.1-0.1-0.2-0.2-0.2-0.1-0.3-0.2c-2.1-0.7-3.7-2.6-4-4.8-0.4-2.2 0.4-4.5 2.1-5.9 1.8-1.5 4.1-1.9 6.2-1.1 2.1 0.7 3.7 2.6 4.1 4.8q0.2 1.1 0 2.2-0.1 1.1-0.7 2.1-0.5 0.9-1.4 1.7-0.8 0.7-1.9 1.1-0.1 0-0.3 0.1-0.1 0.1-0.2 0.2 0 0.1-0.1 0.2 0 0.2 0 0.3 0 3.4 0 6.9c0 0.5 0.2 0.7 0.7 0.8q1.2 0.1 2.3 0.4 1.1 0.3 2.2 0.8 1.1 0.4 2 1 1 0.6 1.9 1.3c0.5 0.4 0.7 0.3 1.1 0q4.2-3.6 8.4-7.2 0.1-0.1 0.2-0.2 0.1-0.1 0.2-0.2 0-0.2 0.1-0.3 0-0.2 0-0.3c0.3-4.2 2.2-8.2 5.2-11.1 3-3 7-4.7 11.2-5 4.2-0.2 8.4 1.1 11.7 3.7 3.3 2.6 5.6 6.3 6.3 10.5q0.1 0.1 0.1 0.2 0.1 0.2 0.2 0.3 0 0.1 0.1 0.2 0.2 0 0.3 0.1 5.4 2.6 10.8 5.2 0.1 0.1 0.3 0.1 0.1 0.1 0.3 0 0.1 0 0.3 0 0.1-0.1 0.3-0.2c1.3-1 3-1.4 4.7-1.1 1.6 0.3 3.1 1.2 4.1 2.6 0.9 1.3 1.3 3 1.1 4.7-0.3 1.6-1.2 3.1-2.6 4.1q-0.8 0.5-1.7 0.9-0.9 0.3-1.9 0.3-1 0-1.9-0.2-1-0.3-1.8-0.8-0.8-0.5-1.4-1.3-0.6-0.8-1-1.7-0.3-0.9-0.4-1.8 0-1 0.2-1.9c0.1-0.6 0.1-0.9-0.5-1.1-3.1-1.5-6.1-3-9.3-4.5q0 0.9-0.1 1.7-0.2 0.9-0.4 1.7-0.2 0.8-0.5 1.7-0.3 0.8-0.7 1.5-0.3 0.7-0.7 1.4-0.4 0.6-0.8 1.2-0.4 0.6-0.9 1.2-0.5 0.6-1.1 1.1c-0.4 0.4-0.4 0.6-0.1 1.1q3.7 4.8 7.3 9.7 0.1 0.2 0.3 0.3 0.1 0.1 0.3 0.2 0.1 0 0.3 0.1 0.2 0 0.4 0c7.1 0.2 12.4 3.5 15.6 9.9zm-4.2-28.7q-0.5 0.2-1 0.7-0.4 0.4-0.7 1-0.2 0.5-0.2 1.2c-0.1 1.2 0.7 2.4 1.9 2.9 1.1 0.5 2.5 0.3 3.4-0.6 0.9-0.9 1.2-2.3 0.7-3.4-0.4-1.2-1.6-2-2.9-2q-0.6 0-1.2 0.2zm-42.3 24.4c-0.7 0.6-1 1.4-1 2.3 0 0.9 0.4 1.7 1 2.3 0.6 0.6 1.5 0.9 2.3 0.8 0.9 0 1.6-0.4 2.2-1 0.5-0.6 0.8-1.3 0.8-2.1 0-0.9-0.3-1.6-0.9-2.2-0.5-0.6-1.3-0.9-2.1-1-0.9 0-1.7 0.3-2.3 0.9zm-30.7-39.4q0.2 0.6 0.7 1.1 0.4 0.4 1 0.7 0.5 0.2 1.2 0.2c1.3 0.1 2.4-0.7 2.9-1.8 0.6-1.2 0.3-2.6-0.6-3.5-0.8-0.9-2.2-1.2-3.4-0.8-1.2 0.5-2 1.6-2 2.9q0 0.6 0.2 1.2zm7.8 43.9c1.5-0.5 1.5-0.5 1.4-2v-1.2c0-1.5-0.7-2.2-2.1-2.2q-2.1 0-4.2 0c-1.5 0-3 0-4.5 0q-0.4 0-0.7 0.1-0.4 0.1-0.7 0.4-0.2 0.3-0.4 0.7-0.1 0.3 0 0.7c0 0.7 0 1.5 0 2.2q-0.1 0.2 0 0.4 0 0.1 0.1 0.3 0.1 0.1 0.2 0.2 0.2 0.1 0.3 0.1 1.3 0.6 2.6 0.8 1.3 0.3 2.7 0.4 1.3 0 2.7-0.2 1.3-0.2 2.6-0.7zm4.6-2.8c4.4-3.5 5.9-10.2 3.7-15.9-1.1-2.8-3.1-5.1-5.7-6.7-2.6-1.6-5.6-2.4-8.6-2.1-3 0.2-5.9 1.4-8.2 3.4-2.3 1.9-3.9 4.6-4.6 7.5-1.3 5.7 1.3 11.4 4.3 13.6 0.2-0.1 0.1-0.3 0.1-0.5 0.1-2.9 1.6-4.8 4.6-5q1.3-0.1 2.5-0.1 1.3 0 2.5 0 1.3 0 2.6 0 1.2 0 2.4 0.1 0.8 0.1 1.5 0.4 0.7 0.3 1.3 0.8 0.6 0.5 1 1.2 0.3 0.7 0.5 1.4 0 0.3 0 0.5 0 0.2 0.1 0.5 0 0.2 0 0.4 0 0.2 0 0.5zm34.8-20c0-0.5 0-1 0-1.4q0.1-0.4-0.1-0.7-0.1-0.3-0.3-0.6-0.3-0.2-0.6-0.4-0.3-0.1-0.7-0.1-4.7-0.1-9.4 0-0.4 0-0.7 0.1-0.3 0.2-0.5 0.4-0.2 0.2-0.3 0.5-0.1 0.3-0.1 0.6 0 1.3 0 2.5c0 0.6 0.2 0.8 0.6 1q0.7 0.3 1.5 0.5 0.7 0.2 1.4 0.4 0.7 0.1 1.5 0.2 0.7 0 1.5 0 0.6 0 1.2 0 0.5-0.1 1.1-0.2 0.6-0.1 1.2-0.2 0.6-0.2 1.1-0.4c1.6-0.5 1.6-0.5 1.6-2.2zm3.1-0.7q1.7-1.4 2.8-3.3 1.1-1.9 1.6-4 0.5-2.1 0.3-4.3-0.2-2.1-1-4.2c-1.1-2.8-3.1-5.2-5.7-6.8-2.7-1.6-5.7-2.4-8.8-2.1-3 0.3-5.9 1.5-8.2 3.6-2.3 2-3.9 4.8-4.5 7.8-1.1 5.4 1.3 10.9 4.5 13.2q0-0.4 0-0.7c0.2-2.9 1.8-4.8 4.8-4.9 3.1-0.1 6.3 0 9.4 0q0.2 0 0.5 0 0.3 0 0.6 0.1 0.2 0.1 0.5 0.2 0.3 0.1 0.5 0.2c2.1 1.1 2.8 2.8 2.7 5.2zm-57.4 52.6q0.6-0.2 1-0.7 0.5-0.4 0.7-1 0.2-0.6 0.2-1.2 0-0.6-0.2-1.2-0.2-0.6-0.7-1.1-0.4-0.4-1-0.7-0.6-0.2-1.2-0.2-0.6 0-1.2 0.3-0.6 0.2-1 0.7-0.5 0.4-0.7 1-0.3 0.6-0.3 1.2 0 0.6 0.3 1.2 0.2 0.6 0.7 1 0.4 0.4 1 0.7 0.5 0.2 1.2 0.2 0.6 0 1.2-0.2zm36.8 7q0.1-0.4 0-0.8-0.2-0.4-0.5-0.7-0.3-0.3-0.7-0.4-0.4-0.1-0.8-0.1-2.2 0-4.3 0-2.3 0-4.6 0-0.3 0-0.7 0.1-0.4 0.1-0.6 0.4-0.3 0.2-0.4 0.6-0.2 0.4-0.1 0.7c0 0.7 0.1 1.2 0 2-0.1 0.8 0.3 1.2 1 1.4q1.2 0.5 2.5 0.8 1.3 0.2 2.6 0.3 1.3 0 2.6-0.2 1.2-0.2 2.5-0.7c1.5-0.5 1.5-0.5 1.5-2.1q0-0.7 0-1.3zm7.8-11.5c-0.5-4.5-3.2-8.5-7.1-10.8-4-2.2-8.8-2.5-12.9-0.6-4.2 1.9-7.2 5.6-8.1 10.1-1.2 5.3 1.3 11 4.4 13.3q0-0.5 0-0.8 0-1 0.4-1.9 0.4-0.9 1.1-1.6 0.7-0.7 1.6-1.1 0.9-0.3 1.9-0.3c3.1 0 6.1 0 9.1 0q0.8 0 1.5 0.2 0.7 0.2 1.3 0.6 0.6 0.4 1 0.9 0.5 0.6 0.8 1.3 0.1 0.3 0.2 0.6 0.1 0.4 0.1 0.8 0.1 0.3 0.1 0.7 0 0.3 0 0.7c3.4-3.1 5.1-7.6 4.6-12.1zm17.9 9.8q-0.6 0.2-1 0.6-0.4 0.5-0.7 1-0.2 0.6-0.2 1.2c-0.1 0.9 0.2 1.7 0.8 2.4 0.6 0.6 1.5 1 2.3 1 0.9 0 1.7-0.4 2.3-1 0.6-0.7 0.9-1.5 0.9-2.4q0-0.6-0.3-1.2-0.2-0.6-0.7-1-0.4-0.4-1-0.7-0.6-0.2-1.2-0.2-0.6 0-1.2 0.3zm12.4-16.1v-1c-0.1-1.6-0.7-2.2-2.2-2.2-1.4 0-2.8 0-4.2 0q-2.2 0-4.4 0-0.4-0.1-0.8 0-0.4 0.2-0.7 0.4-0.3 0.3-0.4 0.7-0.1 0.4-0.1 0.9 0 1 0 2.1 0 0.2 0 0.3 0.1 0.2 0.2 0.3 0.1 0.2 0.2 0.3 0.1 0 0.3 0.1 1.2 0.5 2.5 0.8 1.3 0.3 2.7 0.3 1.3 0.1 2.7-0.1 1.3-0.2 2.6-0.7c1.5-0.5 1.5-0.5 1.6-2.2zm6.9-16c-1-2.9-3-5.3-5.5-7-2.6-1.7-5.6-2.5-8.6-2.3-3.1 0.2-6 1.3-8.3 3.3-2.4 1.9-4 4.6-4.7 7.6-1.4 5.6 1.1 11.4 4.3 13.7v-0.7c0.1-3 1.8-4.9 4.8-5 3.1-0.1 6.2 0 9.3 0q0.3 0 0.6 0.1 0.3 0 0.5 0.1 0.3 0 0.6 0.1 0.2 0.1 0.5 0.2c2 1.1 2.8 2.9 2.7 5.2 4.2-3.2 5.8-9.9 3.8-15.3z"/><path fill-rule="evenodd" class="a" d="m40.9 66.9q1.2 0.5 2.1 1.3 0.9 0.9 1.4 2.1 0.5 1.2 0.5 2.4c0 2.6-1.6 4.9-3.9 5.9-2.4 0.9-5.1 0.4-6.9-1.4-1.8-1.8-2.4-4.5-1.4-6.8 0.9-2.4 3.2-4 5.8-4q1.2 0 2.4 0.5zm-1.1 8.7q0.5-0.2 1-0.7 0.4-0.4 0.7-1 0.2-0.6 0.2-1.2c0-1.3-0.8-2.4-2-2.9-1.2-0.5-2.5-0.2-3.4 0.7-0.9 0.9-1.2 2.3-0.7 3.4 0.5 1.2 1.7 2 2.9 2q0.7 0 1.3-0.3z"/><path fill-rule="evenodd" class="a" d="m20.4 27.3q1.2 0.5 2 1.4 0.9 0.9 1.4 2 0.5 1.2 0.5 2.4c0 1.7-0.6 3.3-1.8 4.5-1.2 1.2-2.8 1.9-4.5 1.9-1.7 0-3.3-0.7-4.5-1.8-1.1-1.2-1.8-2.8-1.8-4.5q0-1.3 0.4-2.4 0.5-1.2 1.4-2.1 0.9-0.9 2.1-1.4 1.1-0.5 2.4-0.5 1.3 0 2.4 0.5zm0.5 7.1c0.5-1.2 0.3-2.6-0.6-3.5-0.9-0.9-2.3-1.2-3.5-0.7-1.2 0.5-1.9 1.6-2 2.9q0 0.6 0.3 1.2 0.2 0.6 0.6 1 0.5 0.5 1 0.7 0.6 0.3 1.2 0.3c1.3 0 2.5-0.8 3-1.9z"/><path fill-rule="evenodd" class="a" d="m79 47.9q1.1 0.5 2 1.4 0.9 0.9 1.4 2 0.5 1.2 0.5 2.4c0 2.6-1.6 4.9-3.9 5.9-2.4 0.9-5.1 0.4-6.9-1.4-1.8-1.8-2.4-4.6-1.4-6.9 1-2.4 3.3-3.9 5.9-3.9q1.2 0 2.4 0.5zm-1.2 8.7q0.6-0.2 1-0.7 0.4-0.4 0.7-1 0.2-0.6 0.2-1.2 0-0.7-0.3-1.2-0.2-0.6-0.7-1-0.4-0.5-1-0.7-0.5-0.2-1.2-0.3-0.6 0.1-1.2 0.3-0.6 0.2-1 0.7-0.4 0.4-0.7 1-0.2 0.6-0.2 1.2 0 0.7 0.2 1.2 0.3 0.6 0.7 1.1 0.5 0.4 1.1 0.6 0.5 0.3 1.2 0.3 0.6 0 1.2-0.3z"/><path fill-rule="evenodd" class="a" d="m58.3 6.7q1.2 0.5 2.1 1.4 0.9 0.9 1.4 2.1 0.5 1.1 0.5 2.4c0 2.5-1.6 4.8-3.9 5.8-2.4 1-5.1 0.4-6.9-1.4-1.8-1.8-2.4-4.5-1.4-6.9 1-2.3 3.3-3.9 5.8-3.9q1.3 0 2.4 0.5zm-2.4 9q0.7 0 1.2-0.2 0.6-0.3 1.1-0.7 0.4-0.5 0.7-1 0.2-0.6 0.2-1.3 0-0.6-0.3-1.2-0.2-0.5-0.7-1-0.4-0.4-1-0.7-0.6-0.2-1.2-0.2-0.6 0-1.2 0.2-0.6 0.3-1 0.7-0.4 0.5-0.7 1-0.2 0.6-0.2 1.2 0 0.6 0.2 1.2 0.2 0.6 0.7 1.1 0.4 0.4 1 0.7 0.6 0.2 1.2 0.2z"/></svg>