<svg id="Layer_1" data-name="Layer 1" xmlns="http://www.w3.org/2000/svg" viewBox="0 0 100 100"><defs><style>.cls-1{fill:#47b2e4;}</style></defs><path class="cls-1" d="M50,88.23a3.25,3.25,0,1,1-3.23,3.24A3.25,3.25,0,0,1,50,88.23Z"/><path class="cls-1" d="M25.8,89.15a2.32,2.32,0,1,1,2.37-2.22A2.31,2.31,0,0,1,25.8,89.15Z"/><path class="cls-1" d="M74,89.15A2.32,2.32,0,1,1,76.42,87,2.29,2.29,0,0,1,74,89.15Z"/><path class="cls-1" d="M78.82,24.51c-.38,0-.54-.15-.55-.54a12.7,12.7,0,0,0-.15-1.85c-1.19-6.72-6-11.25-12.89-12.13a1.43,1.43,0,0,1-1-.6A18.11,18.11,0,0,0,54,2.93a10.13,10.13,0,0,1-2.11-.43H47.77c0,.14-.15.16-.28.18A17.89,17.89,0,0,0,35.71,9.53a1.17,1.17,0,0,1-.94.45A14.25,14.25,0,0,0,25,15.12a14.07,14.07,0,0,0-3.31,8.56c0,.36.12.76-.54.84-3.48.42-5,2.23-5.05,5.74V66.07a6.88,6.88,0,0,0,.21,2c.68,2.35,2.6,3.71,5.33,3.72q5.67,0,11.32,0c.6,0,.8.14.79.76,0,2.14,0,4.27,0,6.4,0,1,.31,2.31-.15,3.09s-1.9.86-2.85,1.34a1.08,1.08,0,0,1-1.43-.28,5,5,0,0,0-6.15-.6,5.1,5.1,0,0,0,3.17,9.4,5,5,0,0,0,4.58-4.77,1.14,1.14,0,0,1,.92-1.21c1.14-.4,2.22-.93,3.36-1.32a1.85,1.85,0,0,0,1.35-2c0-3.34,0-6.68,0-10,0-.6.14-.79.77-.79q5.23,0,10.48,0c.64,0,.84.17.83.82,0,4.09,0,8.17,0,12.25a.88.88,0,0,1-.69,1,6,6,0,0,0-3.85,6.81,6,6,0,1,0,8-6.81.87.87,0,0,1-.7-1c0-4.08,0-8.16,0-12.25,0-.67.2-.81.84-.81,3.46,0,6.92,0,10.38,0,.71,0,.87.2.87.88,0,3.34,0,6.68,0,10a1.75,1.75,0,0,0,1.28,1.89c1.13.39,2.22.92,3.35,1.32a1.25,1.25,0,0,1,1,1.35,5,5,0,0,0,4.11,4.62,5.12,5.12,0,0,0,4.37-8.82c-1.72-1.55-4.4-1.94-6.13-.45a2.66,2.66,0,0,1-3.47.27,3.67,3.67,0,0,0-.95-.37c-.61-.15-.8-.48-.79-1.12q.06-4.36,0-8.72c0-.71.19-.87.88-.87,3.68,0,7.36,0,11,0s5.72-2,5.72-5.75q0-17.91,0-35.81C83.86,26.76,82.27,24.94,78.82,24.51Zm-3.32-.1c0,.44-.11.6-.56.59q-3.34,0-6.68,0c-.46,0-.54-.11-.49-.58.56-4.8.42-5.9-1.26-10.85A11.54,11.54,0,0,1,75.5,24.41ZM46.57,5.67A15.33,15.33,0,0,1,65.19,22.54c-.23,2-.23,2-2.17,2-1.76,0-3.52,0-5.29,0-.53,0-.82-.06-.89-.72A4.58,4.58,0,0,0,55.47,21c-.35-.35-.28-.53,0-.88a5.52,5.52,0,0,0-1.65-8.7.88.88,0,0,1-.6-1,5.9,5.9,0,0,0,0-1.11,1.31,1.31,0,0,0-1.34-1.27,1.34,1.34,0,0,0-1.4,1.31,5.79,5.79,0,0,0,0,1c0,.4-.18.45-.51.45s-.44-.1-.43-.42a6.1,6.1,0,0,0-.05-1.21,1.26,1.26,0,0,0-1.34-1.15,1.29,1.29,0,0,0-1.35,1.16,1.1,1.1,0,0,0,0,.18c-.17,1.43-.17,1.43-1.66,1.43a4.67,4.67,0,0,0-.92,0,1.31,1.31,0,0,0-1.12,1.39,1.32,1.32,0,0,0,1.26,1.35c.48.08,1.19-.22,1.4.14s.09,1.08.09,1.63c0,1.08,0,2.17,0,3.25,0,.44-.11.62-.57.57a4,4,0,0,0-.92,0,1.34,1.34,0,0,0-1.28,1.35A1.38,1.38,0,0,0,44.36,22c.48.06,1.15-.24,1.39.15s0,1,.08,1.55-.15.86-.81.84c-1.52-.05-3,0-4.55,0s-3,0-4.54,0a.78.78,0,0,1-.92-.73A15.4,15.4,0,0,1,46.57,5.67Zm5,13.51c-.95.05-2.13.32-2.79-.13s-.12-1.66-.18-2.54c0-.37,0-.74,0-1.11,0-1.77,0-1.77,1.85-1.77a6.7,6.7,0,0,1,1.75.14,2.77,2.77,0,0,1-.63,5.41Zm2.48,5.16c-.17.36-.61.14-.93.15-.62,0-1.24,0-1.85,0s-1.42,0-2.13,0c-.4,0-.52-.13-.55-.53-.16-2-.18-2,1.83-2,1.32,0,2.55.08,3.32,1.35C53.94,23.63,54.22,24,54.06,24.34ZM33.55,13.06A18.22,18.22,0,0,0,32,22.36a5.29,5.29,0,0,0,0,.56c.22,1.58.22,1.58-1.42,1.58-1.82,0-3.65,0-5.47,0-.43,0-.66-.05-.66-.6A11.56,11.56,0,0,1,33.55,13.06ZM81.08,51.7c0,.39,0,.65-.53.64-2.65-.06-5.32.14-8-.1a4.14,4.14,0,0,1,0-8.2c1-.09,2.1,0,3.15,0h.92c1.24,0,2.47,0,3.71,0,.54,0,.68.18.67.69C81.07,47,81.08,49.36,81.08,51.7ZM80,41.22c-2.35,0-4.7-.07-7,0a6.93,6.93,0,0,0-1.26,13.69,13.21,13.21,0,0,0,3.14.2c1.86,0,3.71,0,5.57,0,.56,0,.75.13.73.72q0,2.55,0,5.1c0,.52-.14.73-.68.69a11.75,11.75,0,0,0-1.57,0,1.38,1.38,0,1,0,0,2.76,10.43,10.43,0,0,0,1.58,0c.6-.06.7.19.71.74.06,3.33-.49,3.91-3.8,3.91H22.18a6.25,6.25,0,0,1-1.56-.12A2.08,2.08,0,0,1,19,67.19a6.85,6.85,0,0,1-.08-1.2V30.27a3.85,3.85,0,0,1,.18-1.55,2.46,2.46,0,0,1,2.56-1.44c4.64,0,9.28,0,13.92,0H78c2.38,0,3.11.72,3.11,3.09,0,1.55,0,1.55-1.56,1.55s-2.16.43-2.13,1.42.67,1.36,2.12,1.37,1.57,0,1.57,1.53c0,1.3-.07,2.6,0,3.89C81.17,41.08,80.82,41.24,80,41.22Z"/><path class="cls-1" d="M26.34,48.16c0,1.14,0,2.29,0,3.43s-.52,1.62-1.36,1.64-1.41-.58-1.42-1.67c0-2.28,0-4.57,0-6.85,0-1.05.51-1.63,1.36-1.64s1.4.57,1.42,1.66S26.34,47,26.34,48.16Z"/><path class="cls-1" d="M53.69,31.92c1.14,0,2.28,0,3.42,0a1.43,1.43,0,0,1,1.58,1.33,1.41,1.41,0,0,1-1.5,1.43q-3.46,0-6.93,0a1.42,1.42,0,0,1-1.53-1.39c0-.81.64-1.36,1.64-1.37S52.59,31.92,53.69,31.92Z"/><path class="cls-1" d="M53.77,61.61c1.11,0,2.22,0,3.33,0a1.39,1.39,0,1,1,0,2.76q-3.42,0-6.84,0A1.42,1.42,0,0,1,48.73,63c0-.81.63-1.37,1.62-1.38S52.63,61.61,53.77,61.61Z"/><path class="cls-1" d="M39.36,34.71c-1.09,0-2.17,0-3.25,0s-1.71-.59-1.68-1.43.63-1.34,1.66-1.34c2.2,0,4.39,0,6.59,0,1,0,1.65.5,1.68,1.32s-.6,1.43-1.66,1.45S40.47,34.71,39.36,34.71Z"/><path class="cls-1" d="M68,31.92c1.15,0,2.29,0,3.44,0a1.39,1.39,0,1,1,0,2.76q-3.48,0-7,0a1.38,1.38,0,1,1,0-2.76C65.71,31.91,66.86,31.92,68,31.92Z"/><path class="cls-1" d="M39.52,61.61c1.11,0,2.22,0,3.34,0a1.38,1.38,0,1,1,0,2.76q-3.48,0-7,0A1.38,1.38,0,0,1,34.43,63,1.39,1.39,0,0,1,36,61.62C37.16,61.6,38.34,61.61,39.52,61.61Z"/><path class="cls-1" d="M68.05,61.61c1.11,0,2.23,0,3.34,0S73,62.13,73,62.93a1.42,1.42,0,0,1-1.57,1.45q-3.42,0-6.86,0a1.39,1.39,0,1,1,.05-2.76C65.76,61.6,66.91,61.61,68.05,61.61Z"/><path class="cls-1" d="M27.63,32c.4,0,.8,0,1.2,0A1.24,1.24,0,0,1,30,33.25a1.22,1.22,0,0,1-1.09,1.38,7.76,7.76,0,0,1-1.67.07c-.67,0-1,.19-.93.89a9.14,9.14,0,0,1,0,1.48,1.31,1.31,0,0,1-1.4,1.31,1.27,1.27,0,0,1-1.33-1.26,10.2,10.2,0,0,1,.05-2.59A3.12,3.12,0,0,1,26.24,32c.46-.07.92-.06,1.38-.09Z"/><path class="cls-1" d="M27.62,64.37A3.51,3.51,0,0,1,24.18,63c-.92-1.33-.72-2.84-.47-4.3a1.14,1.14,0,0,1,1.31-.8,1.19,1.19,0,0,1,1.24,1,7.87,7.87,0,0,1,.07,1.75c0,.7.27.95.93.91a10.75,10.75,0,0,1,1.39,0,1.37,1.37,0,0,1,.08,2.74A10.25,10.25,0,0,1,27.62,64.37Z"/></svg>