<svg version="1.2" xmlns="http://www.w3.org/2000/svg" viewBox="0 0 90 90" width="90" height="90"><style>.a{fill:#47b2e4}</style><path class="a" d="m65.8 36c7.4-0.1 14.1 4.4 16.9 11.3 2.7 6.8 1 14.7-4.4 19.8-5.3 5.1-13.3 6.3-20 3.2-6.7-3.1-10.8-10.1-10.3-17.4q0.1-1.2 0.3-2.3 0.2-1.2 0.6-2.3 0.3-1.1 0.8-2.1 0.5-1.1 1.2-2c0.7-1 1.4-1.3 2.2-0.8 0.8 0.5 0.9 1.4 0.3 2.4-3.8 5.9-3 13.5 1.8 18.5 4.8 5.1 12.4 6.1 18.4 2.6 6-3.5 8.8-10.7 6.7-17.4-2-6.6-8.4-11-15.3-10.5q-0.9 0.1-1.9 0.2-0.9 0.2-1.8 0.5-0.9 0.3-1.8 0.7-0.8 0.4-1.6 0.9-0.2 0.2-0.3 0.3-0.2 0.1-0.4 0.1-0.1 0.1-0.3 0.1-0.2 0.1-0.4 0-0.2 0-0.4 0-0.3-0.1-0.5-0.3-0.1-0.1-0.3-0.3-0.1-0.2-0.1-0.5-0.1-0.2-0.1-0.4 0-0.3 0.1-0.5 0.1-0.2 0.2-0.4 0.2-0.2 0.4-0.3 0.9-0.6 1.8-1.1 0.9-0.5 1.9-0.8 0.9-0.4 2-0.7 1-0.2 2-0.4 0.3 0 0.6 0 0.2-0.1 0.5-0.1 0.3 0 0.6 0 0.3 0 0.6 0z"/><path class="a" d="m35.1 28.5h-12q-0.1 0-0.2 0-0.1 0-0.1 0-0.1 0-0.2 0-0.1 0-0.2 0c-0.4 0-0.8-0.2-1.1-0.4-0.3-0.3-0.4-0.7-0.4-1.1 0-0.4 0.1-0.8 0.4-1.1 0.3-0.2 0.7-0.4 1.1-0.4q0.1 0 0.2 0 0.1 0 0.2 0 0 0 0.1 0 0.1 0 0.2 0h24.8c0.4 0 0.8 0.2 1.1 0.4 0.3 0.3 0.4 0.7 0.4 1.1 0 0.4-0.1 0.8-0.4 1.1-0.3 0.2-0.7 0.4-1.1 0.4z"/><path class="a" d="m39.7 22.5h-7.9c-1.2 0-1.8-0.6-1.8-1.5 0-0.9 0.7-1.5 1.8-1.5q8 0 15.9 0c1.1 0 1.8 0.6 1.8 1.5 0 0.9-0.7 1.5-1.8 1.5z"/><path class="a" d="m42 34.5h-4.2c-1.1 0-1.8-0.6-1.8-1.5 0-0.9 0.7-1.5 1.8-1.5h8.3c1.2 0 1.9 0.5 1.9 1.5 0 0.9-0.7 1.5-1.9 1.5z"/><path class="a" d="m10.5 82.5q0 0.3-0.1 0.6-0.1 0.3-0.3 0.5-0.3 0.2-0.5 0.3-0.3 0.1-0.6 0.1c-0.6 0-1.2-0.4-1.4-0.9-0.2-0.6-0.1-1.2 0.4-1.7 0.4-0.4 1-0.5 1.6-0.3 0.6 0.3 0.9 0.8 0.9 1.4z"/><path class="a" d="m13.5 82.5c0-0.6 0.4-1.2 0.9-1.4 0.6-0.2 1.2-0.1 1.7 0.3 0.4 0.5 0.5 1.1 0.3 1.7-0.2 0.5-0.8 0.9-1.4 0.9q-0.3 0-0.6-0.1-0.3-0.1-0.5-0.3-0.2-0.3-0.3-0.5-0.1-0.3-0.1-0.6z"/><path class="a" d="m75 81c0.6 0 1.2 0.4 1.4 0.9 0.2 0.6 0.1 1.2-0.4 1.7-0.4 0.4-1 0.5-1.6 0.3-0.6-0.3-0.9-0.8-0.9-1.4q0-0.3 0.1-0.6 0.1-0.3 0.3-0.5 0.3-0.2 0.5-0.3 0.3-0.1 0.6-0.1z"/><path class="a" d="m82.5 82.4c0 0.7-0.4 1.2-0.9 1.5-0.6 0.2-1.3 0.1-1.7-0.3-0.4-0.5-0.6-1.1-0.3-1.7 0.2-0.6 0.8-0.9 1.4-0.9q0.3 0 0.5 0.1 0.3 0.1 0.5 0.3 0.2 0.2 0.3 0.5 0.1 0.3 0.2 0.5z"/><path fill-rule="evenodd" class="a" d="m90 77.9q0 0.8 0 1.5 0 0.8-0.1 1.6 0 0.7-0.1 1.5-0.2 1.6-1 2.9-0.8 1.4-2 2.5-1.2 1-2.7 1.5-1.5 0.6-3 0.6c-3.9 0-45 0-48.9 0q-0.1 0-0.2 0-0.1 0-0.2 0-0.1 0-0.2 0-0.1 0-0.2 0c-0.4 0-0.8-0.2-1.1-0.4-0.3-0.3-0.4-0.7-0.4-1.1 0-0.4 0.1-0.8 0.4-1.1 0.3-0.2 0.7-0.4 1.1-0.4 0.3 0 48.6 0 48.9 0 4.2 0 6.7-2.4 6.6-6.7 0-0.7 0.3-1.7-0.1-2.2-0.5-0.5-1.5-0.1-2.3-0.1q-14.8 0-29.7 0c-0.8 0-0.9 0.2-0.9 1 0.1 1.5-0.4 2-2 2h-14c-1.5 0-2-0.5-2-2 0.1-0.9-0.2-1.1-1-1.1q-15.5 0-31 0c-0.8 0-1.1 0.3-1 1 0.1 1 0 2 0.1 2.9q0.2 1.1 0.7 2.1 0.5 0.9 1.3 1.7 0.9 0.7 1.9 1 1 0.4 2.1 0.4c5.2 0 11.1 0 16.4 0 0.4 0 0.7 0.2 1 0.4 0.3 0.3 0.5 0.7 0.5 1.1 0 0.4-0.2 0.8-0.5 1.1-0.3 0.2-0.6 0.4-1 0.4q-1.4 0-2.7 0-6.7 0-13.4 0c-1.2 0-2.4-0.2-3.6-0.6-1.1-0.5-2.2-1.1-3.1-2-0.8-0.9-1.5-1.9-2-3.1-0.4-1.2-0.6-2.4-0.6-3.6q0-1.9 0-3.9c0-1.3 0.5-1.8 1.8-1.8 0.9 0 2 0.3 2.5-0.2 0.6-0.5 0.2-1.7 0.2-2.6q0-7.9 0-16 0-0.1 0-0.2 0-0.1 0-0.2 0-0.1 0-0.2 0-0.1 0-0.2c0-0.4 0.1-0.8 0.4-1.1 0.3-0.2 0.7-0.4 1.1-0.4 0.4 0 0.8 0.2 1 0.4 0.3 0.3 0.5 0.7 0.5 1.1q0 0.1 0 0.2 0 0.1 0 0.2 0 0.1 0 0.2 0 0.1 0 0.2c0 6 0 11.9 0 17.9 0 0.8 0.2 0.9 0.8 0.9q14.3 0 28.5 0c1.7 0 2.2 0.4 2.2 2.1-0.1 0.7 0.1 0.9 0.8 0.9q5.2 0 10.4 0c0.3 0 0.8 0.2 0.8-0.5 0.2-2.5 0.2-2.5 2.7-2.5h0.3q-1.2-0.8-2.4-1.7-1.1-0.9-2.2-1.9-1-1.1-2-2.2-0.9-1.2-1.7-2.4-0.6-1-1.2-2.1-0.5-1.1-0.9-2.2-0.5-1.1-0.8-2.3-0.3-1.2-0.4-2.4c-0.1-0.6-0.3-0.8-1-0.8q-6.2 0-12.4 0-0.2 0-0.3 0-0.2 0-0.4 0.1-0.1 0.1-0.2 0.2-0.2 0.1-0.2 0.3-0.4 0.7-0.9 1.2-0.5 0.5-1.2 0.8-0.7 0.3-1.5 0.4-0.7 0-1.4-0.2c-1-0.2-1.8-0.8-2.5-1.6-0.6-0.8-0.9-1.7-0.9-2.7 0-1 0.4-2 1-2.8 0.6-0.8 1.5-1.3 2.4-1.6q0.8-0.1 1.5-0.1 0.8 0.1 1.4 0.4 0.7 0.3 1.3 0.8 0.5 0.6 0.8 1.2 0.1 0.2 0.2 0.3 0.1 0.1 0.2 0.2 0.1 0 0.3 0.1 0.1 0 0.2 0 6.3 0 12.5 0c0.5 0 0.7-0.1 0.7-0.7q0-0.9 0.1-1.8 0.1-0.9 0.3-1.8 0.2-0.9 0.4-1.8 0.2-0.8 0.5-1.7 0.1-0.1 0.1-0.3 0.1-0.1 0-0.3 0-0.1-0.1-0.2-0.1-0.2-0.2-0.3c-1.1-1-2-2.5-3.3-3-1.5-0.5-3.4-0.1-5.2-0.1-0.5 0-0.5 0.4-0.7 0.7-0.7 1.3-2 2.1-3.5 2.2-1.5 0.2-3-0.5-3.9-1.7-0.9-1.1-1.2-2.7-0.7-4.1 0.4-1.5 1.6-2.5 3-2.9q0.8-0.2 1.5-0.2 0.7 0.1 1.4 0.3 0.7 0.3 1.2 0.8 0.6 0.5 0.9 1.2 0.1 0.1 0.2 0.3 0.2 0.2 0.4 0.3 0.1 0.1 0.3 0.1 0.2 0 0.4 0 2.5 0 5.1 0 0.2 0 0.4 0 0.2 0.1 0.4 0.1 0.2 0.1 0.4 0.2 0.2 0.2 0.3 0.3c0.9 0.9 1.8 1.7 2.6 2.6 0.4 0.3 0.5 0.4 0.8-0.1q0.9-1.5 1.9-2.8 1.1-1.4 2.3-2.6 1.2-1.1 2.6-2.1 1.4-1 2.9-1.8 0.1-0.1 0.2-0.1 0.1-0.1 0.2-0.2 0.1-0.1 0.1-0.3 0-0.1 0-0.2 0-6.8 0-13.6c0-0.5-0.2-0.6-0.5-0.8q-0.7-0.4-1.3-0.9-0.5-0.6-0.8-1.3-0.3-0.7-0.4-1.5 0-0.7 0.2-1.5 0.2-0.7 0.6-1.3 0.4-0.6 1-1 0.6-0.5 1.3-0.7 0.7-0.3 1.4-0.3c1 0.1 2 0.4 2.8 1 0.8 0.6 1.3 1.5 1.6 2.4 0.2 1 0.1 2-0.3 2.9-0.4 1-1.1 1.7-2 2.2q-0.1 0-0.3 0.1-0.1 0.1-0.2 0.3 0 0.1-0.1 0.2 0 0.2 0 0.4c0 3.9 0 7.9 0 11.9 0 0.6 0.1 0.8 0.8 0.6q0.5-0.2 1.1-0.4 0.5-0.1 1.1-0.2 0.5-0.1 1.1-0.2 0.6-0.1 1.2-0.1c0.7 0 0.9-0.3 0.9-1q0-10.9 0-21.9-0.1-0.5-0.1-1.1 0.1-0.5 0.2-1.1 0.1-0.5 0.2-1.1 0.2-0.5 0.5-1h-45.2c-2.5 0-3.6 1.1-3.6 3.7q0 27.7 0 55.3c0 0.9 0.2 1.1 1.1 1.1q10.9 0 21.8 0 0.1 0 0.3 0 0.1 0 0.2 0 0.1 0 0.2 0 0.1 0 0.3 0c0.3 0 0.6 0.2 0.9 0.5 0.2 0.2 0.3 0.6 0.3 1 0 0.3-0.1 0.7-0.3 0.9-0.3 0.3-0.6 0.5-0.9 0.5q-0.1 0-0.2 0-0.2 0-0.3 0-0.1 0-0.2 0-0.1 0-0.2 0h-23.8c-1.7 0-2.1-0.4-2.1-2.1 0-12 0-23.9 0-35.9 0-1-0.3-1-1.1-0.9q-1 0.2-2 0.8-0.9 0.5-1.6 1.3-0.7 0.8-1 1.9-0.4 1-0.4 2 0 7.8 0 15.6 0 0.3 0 0.6 0.1 0.4 0 0.7-0.2 0.3-0.4 0.5-0.2 0.2-0.5 0.4-0.3 0.1-0.6 0.1-0.3 0-0.6-0.1-0.3-0.2-0.5-0.4-0.2-0.2-0.3-0.5-0.1-0.3-0.1-0.6c0-1.2 0-14.8 0-16 0-5.2 3.3-8.9 8.5-9.4 0.7 0 0.5-0.4 0.5-0.8q0-8.3 0-16.6c0-4.1 2.5-6.6 6.5-6.6h50c4 0 6.5 2.5 6.5 6.6v6.5c-0.1 1.3-0.6 1.9-1.9 1.9q-3.2 0-6.5 0c-0.5 0-0.7 0.1-0.7 0.6q0 3.9 0 7.7c0 0.6 0.3 0.7 0.8 0.7q3.9 0 7.9 0c1.2-0.1 2.5 0.1 3.6 0.6 1.2 0.4 2.3 1.1 3.2 2 0.8 0.9 1.5 1.9 2 3.1 0.5 1.2 0.7 2.4 0.6 3.7q0 2.9 0 5.8 0 0.2 0 0.4 0.1 0.2 0.1 0.4 0.1 0.2 0.2 0.4 0.1 0.2 0.2 0.3 1 1.6 1.8 3.4 0.8 1.7 1.4 3.6 0.5 1.8 0.7 3.7 0.2 1.9 0.1 3.9 0 0.1 0 0.2-0.1 0.2-0.1 0.3 0 0.2 0 0.3 0 0.1-0.1 0.3c0 0.4-0.2 0.7-0.5 1-0.3 0.2-0.7 0.3-1.1 0.3-0.4 0-0.8-0.2-1-0.5-0.2-0.4-0.4-0.7-0.3-1.1q0-0.6 0-1.2 0-0.6 0-1.1 0-0.6 0-1.2 0-0.5-0.1-1.1c-0.9-7.9-6.2-14.6-13.7-17.3-7.4-2.7-15.8-1-21.5 4.5-5.8 5.4-8 13.6-5.8 21.2 2.3 7.6 8.6 13.3 16.4 14.7 2.3 0.5 4.7 0.5 7.1 0.1 2.3-0.3 4.6-1.1 6.7-2.3 2.1-1.1 4-2.6 5.6-4.4 1.6-1.7 2.8-3.8 3.7-6 0.3-0.8 0.7-1.4 1.7-1.3q0.2 0 0.5 0.1 0.2 0 0.4 0.2 0.2 0.2 0.3 0.4 0.1 0.2 0.2 0.4 0 0.2 0 0.3 0 0.2 0 0.3 0 0.2-0.1 0.3 0 0.2-0.1 0.3-0.2 0.6-0.5 1.1-0.3 0.6-0.6 1.2-0.3 0.5-0.6 1.1-0.3 0.5-0.7 1-0.1 0.1-0.1 0.3-0.1 0.1-0.2 0.2 0 0.2 0 0.3 0 0.2-0.1 0.3 0 2.9 0 5.8c0 0.6 0.2 0.7 0.7 0.7q1.2 0 2.4 0 0.2 0 0.5 0.1 0.3 0.1 0.5 0.3 0.2 0.2 0.3 0.4 0.1 0.3 0.1 0.6 0.1 0.7 0.1 1.5zm-22.6-66.5c0 0.5 0.1 0.6 0.6 0.6q2.4 0 4.8 0c0.5 0 0.6-0.1 0.6-0.6q0-1.4 0-2.8 0-1.3 0-2.7 0-0.6-0.2-1.1-0.3-0.5-0.7-0.9-0.4-0.5-1-0.7-0.5-0.2-1.1-0.2-0.6 0-1.1 0.2-0.5 0.3-0.9 0.7-0.4 0.4-0.7 0.9-0.2 0.6-0.2 1.1c-0.1 1.9 0 3.7-0.1 5.5zm0.1 18c0 0.6 0.2 0.7 0.6 0.7q2 0.2 4 0.7 1.9 0.5 3.8 1.4 1.8 0.8 3.4 1.9 1.7 1.1 3.2 2.5c0-1.3 0-2.4 0-3.5q0-1.2-0.5-2.4-0.4-1.1-1.3-1.9-0.9-0.9-2-1.4-1.1-0.4-2.3-0.4-3.3 0-6.6 0c-2.4 0-2.4 0-2.3 2.4zm-12-15.2q0.1 0.3 0.3 0.5 0.2 0.2 0.5 0.3 0.3 0.1 0.6 0.1 0.3 0 0.5-0.1 0.3-0.1 0.5-0.3 0.2-0.2 0.3-0.5 0.1-0.3 0.1-0.6 0-0.2-0.1-0.5-0.1-0.3-0.3-0.5-0.2-0.2-0.5-0.3-0.2-0.1-0.5-0.1-0.3 0-0.6 0.1-0.3 0.1-0.5 0.3-0.2 0.2-0.3 0.4-0.1 0.3-0.2 0.6 0 0.3 0.2 0.6zm-24.9 27.7q0.3-0.2 0.5-0.4 0.2-0.2 0.3-0.5 0.1-0.2 0.1-0.5c0-0.6-0.4-1.2-1-1.4-0.6-0.2-1.2-0.1-1.6 0.4-0.4 0.4-0.5 1.1-0.3 1.6 0.3 0.6 0.8 0.9 1.4 0.9q0.3 0 0.6-0.1zm-5.2 14.2c0.2-0.6 0.1-1.2-0.3-1.7-0.5-0.4-1.1-0.5-1.7-0.3-0.5 0.2-0.9 0.8-0.9 1.4q0 0.3 0.1 0.6 0.1 0.3 0.3 0.5 0.2 0.2 0.5 0.3 0.3 0.1 0.6 0.1c0.6 0 1.2-0.4 1.4-0.9zm57 18.4c0-0.9 0-1.9 0-3.1q-0.5 0.5-1.1 1-0.5 0.5-1.2 0.9-0.6 0.5-1.2 0.9-0.6 0.4-1.3 0.8c1.7 0 3 0 4.4 0 0.4 0 0.5-0.2 0.4-0.5z"/><path fill-rule="evenodd" class="a" d="m49.5 14.7c0 1.3-0.6 1.8-1.8 1.8h-24.8c-1.4 0-1.9-0.5-1.9-1.9q0-2.6 0-5.3c0-1.2 0.5-1.8 1.8-1.8h24.7c1.5 0 2 0.5 2 2 0 1.7 0 3.5 0 5.2zm-5.3-1.2c2.3 0 2.3 0 2.3-2.2 0-0.6-0.2-0.8-0.8-0.8-3.4 0-16.1 0-19.6 0-2.1 0-2.1 0-2.1 2.2 0 0.7 0.1 0.8 0.8 0.8q9.7 0 19.4 0z"/><path fill-rule="evenodd" class="a" d="m74.9 53.5q0.1 0.2 0.1 0.5 0 0.2-0.1 0.5-0.1 0.3-0.2 0.5l-7.4 10.3q-0.1 0.2-0.3 0.3-0.1 0.1-0.3 0.2-0.1 0.1-0.3 0.1-0.2 0.1-0.4 0.1-0.2 0-0.4-0.1-0.2 0-0.4-0.1-0.1-0.1-0.3-0.3-0.1-0.1-0.2-0.3-3.7-5.1-7.4-10.2-0.1-0.2-0.2-0.5-0.1-0.2-0.1-0.5 0-0.3 0.1-0.5 0.1-0.3 0.2-0.5c2.5-3.4 4.9-6.8 7.3-10.3q0.2-0.3 0.6-0.5 0.3-0.2 0.8-0.2 0.4 0 0.7 0.2 0.4 0.2 0.6 0.5 3.7 5.2 7.3 10.3 0.2 0.2 0.3 0.5zm-8.6 8c1.2-1.7 2.4-3.4 3.8-5.4q-1 0.4-2 0.6-1 0.1-2 0.2-1 0-2-0.2-1-0.2-2-0.6l-0.1 0.3q1.9 2.5 3.7 5.1c0.2 0.2 0.3 0.3 0.6 0zm-5.2-8.7q1.2 0.5 2.4 0.7 1.2 0.2 2.5 0.2 1.2 0 2.4-0.2 1.3-0.2 2.4-0.7c-1.5-2.1-3-4.2-4.5-6.4-0.4-0.4-0.5-0.1-0.7 0.1l-2.6 3.7-1.9 2.6z"/></svg>