<svg version="1.2" xmlns="http://www.w3.org/2000/svg" viewBox="0 0 96 96" width="96" height="96"><style>.a{fill:#47b2e4}</style><path fill-rule="evenodd" class="a" d="m94.7 64.5c0.6 0.8 0.8 1.8 0.8 2.8-0.1 1-0.4 1.9-1.1 2.7-0.6 0.7-1.4 1.3-2.4 1.6-0.9 0.2-1.9 0.2-2.8-0.1q-0.8-0.3-1.4-0.8-0.5-0.4-1-1.1-0.4-0.6-0.6-1.3-0.2-0.8-0.2-1.5 0-0.1 0-0.1 0-0.1 0-0.1 0-0.1 0-0.1 0-0.1 0-0.1c0-0.6 0.8-1.2 0.1-1.7-1.1-0.9-1.7-2.5-3.6-2.5-3.9 0.1-7.7 0-11.5 0-0.6 0-0.8 0.1-0.9 0.8q-0.1 1.4-0.7 2.6-0.6 1.3-1.6 2.2-1 1-2.2 1.6-1.3 0.6-2.6 0.7c-0.7 0-0.8 0.2-0.8 0.8q0 4 0 7.9c0 0.6 0.1 0.9 0.8 0.9q3.3 0 6.6 0 0.2 0 0.4 0 0.2-0.1 0.3-0.2 0.2-0.1 0.3-0.2 0.1-0.1 0.2-0.3 0.3-0.7 0.9-1.3 0.6-0.5 1.3-0.9 0.8-0.3 1.6-0.3 0.8-0.1 1.6 0.1c1 0.3 1.9 0.9 2.5 1.7 0.7 0.8 1 1.9 1 2.9 0 1.1-0.3 2.1-1 2.9-0.6 0.9-1.5 1.5-2.5 1.7q-0.8 0.2-1.6 0.2-0.8-0.1-1.5-0.4-0.8-0.3-1.3-0.9-0.6-0.6-1-1.3 0-0.1-0.1-0.2-0.1-0.2-0.3-0.2-0.1-0.1-0.2-0.2-0.2 0-0.4 0-4.9 0-9.8 0c-0.7 0-0.8-0.2-0.8-0.9q0-5.5 0-11c0-0.7-0.2-0.8-0.9-0.8-2.3 0-2.3-0.2-2.3 2.3 0 2.5 0 2.5-2.5 2.5-0.6-0.1-0.7-0.2-0.7-0.7q0-1.7 0-3.4c0-0.5 0-0.7-0.6-0.7-2.6-0.1-2.6-0.1-2.6 2.4q0 4.3 0 8.6 0 0.2 0.1 0.4 0 0.2 0.1 0.3 0.1 0.2 0.3 0.4 0.1 0.1 0.3 0.2 3.4 2 6.7 4.2 0.1 0.1 0.3 0.2 0.2 0 0.3 0 0.2 0 0.4 0 0.2-0.1 0.3-0.2 0.7-0.4 1.5-0.6 0.8-0.1 1.6 0 0.8 0.1 1.5 0.5 0.7 0.3 1.3 0.9c0.7 0.8 1.2 1.8 1.3 2.9 0.1 1-0.1 2.1-0.6 3-0.6 0.9-1.4 1.6-2.4 2-1 0.4-2.1 0.4-3.2 0.1q-0.7-0.2-1.4-0.7-0.7-0.4-1.1-1.1-0.5-0.7-0.7-1.4-0.2-0.8-0.2-1.6 0.1-0.3 0-0.5 0-0.2-0.1-0.4-0.1-0.2-0.3-0.3-0.1-0.2-0.3-0.2c-2.7-1.7-5.4-3.4-8.1-5q-0.2-0.1-0.3-0.3-0.1-0.1-0.2-0.3-0.1-0.2-0.2-0.4 0-0.2 0-0.4 0-5.9 0-11.8c0-0.8-0.3-0.9-1-0.9-2.2 0-2.2 0.1-2.2 2.3q0 3.2 0 6.5c0 0.5-0.1 0.7-0.7 0.7-2.5 0.1-2.5 0.1-2.5-2.4q0-3.2 0-6.4c0-0.5-0.1-0.7-0.7-0.7-2.5 0-2.5-0.1-2.5 2.5q0 4.2 0 8.4 0 0.2 0 0.4 0 0.3-0.1 0.5-0.1 0.2-0.2 0.4-0.2 0.2-0.3 0.3c-1.9 1.8-3.7 3.7-5.6 5.5q-0.1 0.1-0.2 0.3-0.1 0.1-0.2 0.3 0 0.2 0 0.4 0 0.2 0 0.4c0.7 2.1-0.2 4.3-2.1 5.4-1.9 1.1-4.3 0.8-5.8-0.7-1.5-1.6-1.8-4-0.7-5.9 1.2-1.8 3.4-2.7 5.5-2q0.2 0 0.3 0.1 0.2 0 0.3-0.1 0.2 0 0.3-0.1 0.2-0.1 0.3-0.2c1.6-1.7 3.2-3.3 4.6-4.9q0.2-0.1 0.2-0.2 0.1-0.1 0.2-0.3 0.1-0.1 0.1-0.3 0-0.1 0-0.3 0-4.5 0-9c0-0.5 0-0.8-0.7-0.8q-1.4-0.1-2.7-0.7-1.2-0.6-2.2-1.6-1-1-1.6-2.3-0.6-1.2-0.7-2.6c0-0.6-0.2-0.7-0.7-0.7q-2.9 0-5.8 0-0.1 0-0.3 0-0.1 0-0.2 0.1-0.2 0.1-0.3 0.2-0.1 0.1-0.2 0.3-2.2 3.4-4.5 6.7-0.1 0.1-0.1 0.3-0.1 0.1-0.1 0.3 0 0.1 0.1 0.3 0 0.1 0.1 0.2 0.5 0.7 0.7 1.5 0.3 0.8 0.2 1.6-0.1 0.8-0.4 1.6-0.3 0.7-0.9 1.3c-0.7 0.8-1.7 1.3-2.7 1.5-1.1 0.1-2.2-0.1-3.1-0.6-0.9-0.5-1.7-1.3-2.1-2.3-0.4-1-0.5-2-0.2-3.1q0.2-0.8 0.6-1.4 0.5-0.7 1.1-1.2 0.7-0.5 1.5-0.7 0.7-0.3 1.5-0.2 0.2 0 0.4-0.1 0.1 0 0.3-0.1 0.1-0.1 0.2-0.2 0.1-0.1 0.2-0.3c1.8-2.7 3.7-5.5 5.5-8.2q0.1-0.2 0.2-0.3 0.1-0.2 0.3-0.3 0.2 0 0.4-0.1 0.2 0 0.3 0 3.6 0 7.2 0c0.7 0 0.8-0.2 0.8-0.9 0-2.3 0-2.3-2.3-2.3-2.1 0-9.1 0-11.1 0-0.6 0-0.9-0.1-0.9-0.8 0-2.4 0-2.4 2.4-2.4 3.7 0 7.3 0 11 0 0.8 0 0.9-0.2 0.9-1 0-2.2 0-2.2-2.1-2.2q-0.2 0-0.4 0-0.2 0-0.4 0-0.2 0-0.4 0-0.2 0-0.4 0c-0.9 0.2-1-0.3-1-1.1 0.1-2.1 0-2.1 2.1-2.1h0.6c0.7 0 1.8 0.3 2-0.1q0-0.3 0.1-0.7 0-0.3 0-0.7 0.1-0.3 0.1-0.6-0.1-0.4-0.1-0.7c0-0.4-0.3-0.3-0.5-0.3h-8.1q-0.1 0-0.2 0-0.1 0-0.2 0.1-0.1 0-0.2 0.1-0.1 0-0.2 0.1-3.1 2.6-6.2 5.2-0.2 0.1-0.3 0.3-0.1 0.1-0.1 0.3-0.1 0.1-0.1 0.3 0 0.2 0.1 0.4 0.2 0.7 0.1 1.4 0 0.8-0.3 1.5-0.2 0.7-0.7 1.2-0.5 0.6-1.1 1c-1.3 0.8-2.9 1-4.3 0.4-1.4-0.5-2.5-1.7-2.8-3.2-0.4-1.4-0.1-3 0.8-4.2 1-1.2 2.4-1.8 4-1.8q0 0 0.1 0 0.1 0.1 0.2 0.1 0.1 0 0.2 0 0.1 0 0.1 0c1.2 0.7 1.9 0.1 2.8-0.6 2-1.8 4.2-3.6 6.3-5.4q0.1-0.1 0.3-0.2 0.1-0.1 0.3-0.1 0.2-0.1 0.3-0.1 0.2 0 0.4 0 4.3 0 8.6 0c0.6 0 0.8-0.1 0.8-0.8 0-2.4 0-2.4-2.5-2.4-1.5 0-3.2 0.4-4.5-0.2-1.3-0.5-2.2-2-3.3-3q-0.2-0.3-0.5-0.6c-0.8-0.9-1.5-1.5-3-1.1-1.9 0.6-4-0.8-4.9-2.7-0.4-0.9-0.5-2-0.3-3 0.3-0.9 0.8-1.8 1.6-2.5 0.7-0.7 1.7-1.1 2.7-1.1 1-0.1 2 0.1 2.9 0.6q0.6 0.4 1.1 1 0.5 0.6 0.8 1.3 0.2 0.6 0.3 1.4 0 0.7-0.2 1.5-0.1 0.2-0.1 0.4 0 0.3 0.1 0.5 0 0.3 0.2 0.5 0.1 0.2 0.3 0.3c1.1 1 2.1 2.1 3.1 3.1q0.1 0.1 0.2 0.2 0.1 0.1 0.2 0.1 0.2 0.1 0.3 0.1 0.1 0 0.3 0c1.5 0 3 0 4.5 0 0.5 0 0.6-0.1 0.6-0.6q0.1-1.4 0.7-2.7 0.6-1.3 1.6-2.3 1-1 2.3-1.6 1.3-0.6 2.7-0.7c0.5 0 0.6-0.1 0.6-0.6q0-4.7 0-9.3 0-0.2 0-0.3 0-0.1-0.1-0.3-0.1-0.1-0.1-0.2-0.1-0.1-0.2-0.2c-1.6-1.6-3.2-3.2-4.8-4.8q-0.1-0.1-0.3-0.3-0.1-0.1-0.3-0.1-0.2-0.1-0.4-0.1-0.2 0-0.4 0.1-0.7 0.2-1.5 0.2-0.7 0-1.4-0.3-0.7-0.2-1.3-0.7-0.6-0.4-1-1.1c-0.6-0.8-0.9-1.8-0.8-2.8 0-1 0.4-2 1-2.8 0.6-0.7 1.5-1.3 2.4-1.6 1-0.3 2-0.2 3 0.1q0.7 0.3 1.2 0.8 0.6 0.4 1.1 1 0.4 0.7 0.6 1.4 0.2 0.7 0.2 1.4 0 0.1 0 0.1 0 0.1 0 0.1 0 0.1 0 0.1 0 0.1 0 0.1c-0.7 1.3 0.1 2.1 1 2.9 1.6 1.6 3.1 3.2 4.7 4.8q0.2 0.1 0.3 0.3 0.2 0.2 0.2 0.4 0.1 0.2 0.2 0.4 0 0.2 0 0.4 0 5 0 10c0 0.7 0.1 0.9 0.8 0.9 2.4 0 2.4 0 2.4-2.3 0-2.5 0-2.5 2.5-2.5 0.6 0 0.6 0.2 0.6 0.8q0 1.6 0 3.3c0 0.5 0.1 0.7 0.7 0.7 2.5 0.1 2.5 0.1 2.5-2.4q0-4.1 0-8.3 0-0.1 0-0.3 0-0.1-0.1-0.3-0.1-0.1-0.2-0.2-0.1-0.1-0.3-0.2-0.7-0.3-1.3-0.9-0.5-0.6-0.9-1.3-0.3-0.7-0.4-1.5 0-0.8 0.1-1.6c0.3-1 0.9-1.9 1.7-2.6 0.8-0.7 1.9-1 2.9-1 1.1 0 2.1 0.3 3 1 0.8 0.7 1.4 1.6 1.6 2.6q0.2 0.8 0.2 1.6-0.1 0.8-0.4 1.5-0.4 0.7-0.9 1.3-0.6 0.6-1.3 0.9-0.2 0.1-0.3 0.2-0.1 0.1-0.2 0.2 0 0.2-0.1 0.3 0 0.2 0 0.3 0 5 0 10c0 0.6 0.2 0.7 0.7 0.7 2.5 0.1 2.5 0 2.5-2.4 0-2.4 0-2.4 2.4-2.4 0.7 0 0.8 0.2 0.8 0.9q0 1.5 0 3.1c-0.1 0.6 0 0.8 0.7 0.8 2.4 0 2.6 0 2.4-2.4q-0.1-0.7 0-1.5 0.1-0.7 0.4-1.4 0.3-0.7 0.8-1.2 0.4-0.6 1-1.1c2.5-2.2 4.8-4.7 7.2-7.1q0.2-0.1 0.3-0.3 0.1-0.2 0.2-0.4 0-0.2 0-0.4 0-0.2-0.1-0.4-0.2-0.7-0.1-1.5 0-0.7 0.2-1.4 0.3-0.7 0.8-1.3 0.4-0.6 1.1-1c0.8-0.5 1.8-0.8 2.8-0.8 1 0.1 2 0.5 2.7 1.1 0.8 0.6 1.4 1.5 1.6 2.5 0.3 0.9 0.2 1.9-0.1 2.9q-0.3 0.7-0.8 1.3-0.5 0.6-1.1 1-0.6 0.4-1.4 0.5-0.7 0.2-1.5 0.2-0.1 0-0.3 0c-1.2-0.8-2 0.1-2.8 0.9q-3.4 3.5-6.9 6.9-0.2 0.2-0.3 0.4-0.2 0.2-0.3 0.5-0.1 0.2-0.1 0.4-0.1 0.3 0 0.5c0 1-0.3 2.1 0 2.8 0.4 0.7 1.6 0.4 2.4 0.7q1.1 0.3 2.1 1 0.9 0.7 1.7 1.6 0.7 0.9 1.1 2 0.4 1.1 0.5 2.3c0.1 0.5 0.2 0.7 0.8 0.6h0.1c1.6 0 3.5 0.5 4.8-0.1 1.5-0.8 2.6-2.5 4-3.8 0.4-0.4 0.2-0.7 0.1-1.1-0.4-1.5-0.1-3 0.8-4.2 0.9-1.2 2.4-1.9 3.9-1.8 1.5 0 2.9 0.8 3.8 2.1 0.8 1.2 1 2.8 0.5 4.2q-0.3 0.7-0.7 1.3-0.5 0.6-1.1 1-0.6 0.5-1.4 0.7-0.7 0.2-1.4 0.2c-0.2-0.1-0.4 0-0.5-0.1-1.3-0.7-2 0.1-2.7 0.9-1.1 1.1-2.2 2.2-3.3 3.2q-0.2 0.2-0.4 0.3-0.1 0.2-0.3 0.2-0.2 0.1-0.4 0.1-0.3 0.1-0.5 0.1-2.7 0-5.3 0c-0.5-0.1-0.8 0-0.8 0.6 0 2.5 0 2.5 2.5 2.5 2.3 0 2.3 0 2.3 2.4 0 0.7-0.2 0.8-0.9 0.8q-1.5 0-3.1 0c-0.6 0-0.8 0.1-0.8 0.7 0 2.5 0 2.3 2.5 2.5q1.2 0.2 2.5 0.1 1.3-0.1 2.5-0.4 1.2-0.3 2.4-0.8 1.2-0.5 2.2-1.2 0.4-0.2 0.8-0.4 0.4-0.2 0.8-0.4 0.3-0.2 0.7-0.4 0.4-0.1 0.8-0.3 0.2-0.1 0.3-0.2 0.1-0.1 0.2-0.2 0.1-0.1 0.2-0.3 0-0.1 0-0.3 0-1 0.3-1.8 0.4-0.9 1.1-1.6 0.7-0.7 1.5-1 0.9-0.4 1.9-0.3c1.2-0.1 2.5 0.3 3.4 1.2 0.9 0.8 1.5 2 1.6 3.3 0 1.2-0.4 2.4-1.3 3.4-0.8 0.9-2 1.5-3.2 1.5q-0.5 0.1-0.9 0.1-0.4-0.1-0.8-0.2-0.4-0.1-0.8-0.3-0.4-0.2-0.7-0.5-0.1-0.1-0.3-0.1-0.1-0.1-0.3-0.1-0.2 0-0.3 0-0.2 0.1-0.3 0.2c-2.6 1.3-5.1 2.5-7.7 3.8q-0.2 0.1-0.3 0.2-0.2 0-0.4 0.1-0.2 0-0.3 0-0.2 0.1-0.4 0-3.4 0-6.8 0c-0.6 0-0.8 0.1-0.8 0.7 0 2.5 0 2.5 2.5 2.5q2.3 0 4.7 0c0.6 0 0.8 0.1 0.8 0.8 0 2.4 0 2.4-2.4 2.4q-2.5 0-5 0c-0.4 0-0.6 0.1-0.6 0.6-0.1 2.6-0.1 2.6 2.5 2.6 3.7 0 7.5 0.1 11.3 0q0.2 0 0.5 0 0.3 0.1 0.6 0.2 0.2 0.1 0.5 0.3 0.2 0.2 0.4 0.4c0.6 0.8 1.4 1.4 2.1 2.2q0.1 0.1 0.3 0.2 0.1 0.2 0.3 0.2 0.2 0 0.4 0 0.2 0 0.4-0.1 0.7-0.2 1.4-0.2 0.8 0 1.5 0.3 0.7 0.3 1.3 0.7 0.6 0.5 1 1.2zm-4.6-24.4q-0.3 0.1-0.5 0.4-0.2 0.2-0.4 0.5-0.1 0.3-0.1 0.6c0.1 0.7 0.5 1.2 1.1 1.4 0.6 0.3 1.2 0.1 1.7-0.3 0.4-0.5 0.5-1.2 0.3-1.7-0.3-0.6-0.8-1-1.5-1q-0.3 0-0.6 0.1zm-6.3-14.3q-0.3 0.1-0.5 0.4-0.3 0.2-0.4 0.5-0.1 0.3-0.1 0.6c0 0.7 0.4 1.2 1 1.5 0.6 0.2 1.3 0.1 1.7-0.4 0.5-0.4 0.6-1.1 0.4-1.7-0.3-0.6-0.8-1-1.5-1q-0.3 0-0.6 0.1zm-10.4-19.1q-0.3 0-0.6 0.1-0.3 0.1-0.6 0.3-0.2 0.3-0.3 0.5-0.1 0.3-0.1 0.7c-0.1 0.6 0.3 1.2 0.9 1.5 0.6 0.2 1.3 0.1 1.7-0.3 0.5-0.5 0.7-1.1 0.4-1.7-0.2-0.6-0.7-1.1-1.4-1.1zm-47.5 0q0.3 0 0.6-0.1 0.2-0.1 0.5-0.4 0.2-0.2 0.3-0.5 0.1-0.2 0.1-0.6c0-0.6-0.4-1.2-1-1.4-0.6-0.2-1.2-0.1-1.7 0.4-0.4 0.4-0.5 1.1-0.3 1.7 0.3 0.6 0.9 1 1.5 0.9zm-13.6 22.1q0.2-0.1 0.5-0.3 0.2-0.3 0.3-0.6 0.1-0.2 0.1-0.6c0-0.6-0.4-1.2-1-1.4-0.6-0.2-1.3-0.1-1.7 0.4-0.5 0.5-0.6 1.2-0.3 1.7 0.2 0.6 0.8 1 1.5 1q0.3-0.1 0.6-0.2zm-6.4 23.8q0.3-0.1 0.5-0.3 0.2-0.2 0.3-0.5 0.2-0.3 0.2-0.6c0-0.7-0.4-1.2-1-1.5-0.6-0.2-1.3-0.1-1.7 0.4-0.5 0.4-0.6 1.1-0.4 1.7 0.3 0.6 0.8 1 1.5 1q0.3 0 0.6-0.2zm5.6 20.3q-0.1-0.3-0.3-0.6-0.2-0.2-0.5-0.3-0.3-0.2-0.6-0.2c-0.4 0-0.8 0.1-1.1 0.4-0.3 0.3-0.5 0.7-0.5 1.1 0 0.4 0.1 0.8 0.4 1.1 0.3 0.4 0.7 0.5 1.1 0.6q0.3 0 0.6-0.1 0.3-0.1 0.5-0.4 0.2-0.2 0.4-0.4 0.1-0.3 0.1-0.6 0-0.3-0.1-0.6zm14.4 19.5q0.3 0 0.6-0.1 0.3-0.1 0.5-0.4 0.2-0.2 0.3-0.5 0.1-0.2 0.1-0.5c0-0.7-0.4-1.3-1-1.5-0.6-0.2-1.3-0.1-1.7 0.4-0.4 0.5-0.6 1.1-0.3 1.7 0.3 0.6 0.9 1 1.5 1zm34.8-3.2q-0.3 0-0.6 0.1-0.3 0.2-0.6 0.4-0.2 0.3-0.3 0.6-0.1 0.3-0.1 0.6c0.1 0.6 0.5 1.2 1.1 1.4 0.6 0.2 1.2 0.1 1.7-0.4 0.4-0.4 0.5-1.1 0.3-1.7-0.3-0.6-0.9-1-1.5-1zm14.2-9.5q-0.3 0-0.6 0.2-0.3 0.1-0.5 0.3-0.2 0.3-0.3 0.6-0.2 0.3-0.1 0.6c0 0.7 0.4 1.2 1 1.4 0.6 0.3 1.3 0.1 1.7-0.4 0.5-0.4 0.6-1.1 0.3-1.7-0.2-0.6-0.8-0.9-1.5-0.9zm-28.3-69.2q0.1 0.3 0.4 0.5 0.2 0.2 0.5 0.3 0.3 0.1 0.6 0.1c0.7 0 1.2-0.4 1.4-1 0.2-0.6 0.1-1.3-0.4-1.7-0.4-0.4-1.1-0.5-1.7-0.3-0.6 0.3-1 0.8-1 1.5q0.1 0.3 0.2 0.6zm20.4 51.2v-27.6c0-3.3-1.9-5.2-5.2-5.2h-27.6c-3.3 0-5.2 1.9-5.2 5.3v27.4c0 3.5 1.9 5.4 5.3 5.4h27.4c3.4 0 5.3-1.9 5.3-5.3zm25 6.4c0.3-0.3 0.5-0.7 0.5-1.2-0.1-0.4-0.3-0.8-0.6-1.1-0.3-0.3-0.8-0.4-1.2-0.4-0.4 0.1-0.8 0.2-1 0.6-0.3 0.3-0.4 0.6-0.4 1.1 0 0.4 0.2 0.7 0.4 1 0.3 0.3 0.7 0.5 1.1 0.5 0.5 0 0.9-0.2 1.2-0.5z"/><path class="a" d="m40.1 16.2c0-1.6 0-1.6 1.6-1.6 1.5 0 1.5 0 1.5 1.6 0 1.6 0 1.6-1.5 1.6-1.6 0-1.6 0-1.6-1.6z"/><path class="a" d="m52.7 16.1c0-1.5 0-1.5 1.6-1.5 1.6 0 1.6 0 1.6 1.7 0 1.5 0 1.5-1.5 1.5-1.7 0-1.7 0-1.7-1.7z"/><path class="a" d="m24.2 27.3c-1.5 0-1.5 0.1-1.5-1.5 0-1.7 0.1-1.7 1.6-1.7 1.5 0 1.5 0 1.5 1.6 0 1.6-0.1 1.6-1.6 1.6z"/><path class="a" d="m71.7 24.1c1.6 0 1.6 0 1.6 1.6 0 1.6 0 1.6-1.6 1.6-1.5 0-1.5 0-1.5-1.6 0-1.6-0.1-1.6 1.5-1.6z"/><path class="a" d="m81.2 41.6c0 1.6 0.2 1.6-1.5 1.6-1.6 0-1.6-0.1-1.6-1.6 0-1.6 0-1.6 1.5-1.6 1.6 0 1.6 0.1 1.6 1.6z"/><path class="a" d="m16.2 49.5c-1.5 0-1.5 0-1.5-1.4 0-1.8 0-1.8 1.8-1.8 1.4 0 1.4 0 1.4 1.6 0 1.6 0 1.6-1.7 1.6z"/><path class="a" d="m82.8 52.7c1.6 0 1.6 0 1.6 1.6 0 1.6 0 1.6-1.6 1.6-1.6 0-1.6 0-1.6-1.6 0-1.6 0.1-1.6 1.6-1.6z"/><path class="a" d="m24.4 71.7c-1.7 0-1.7 0-1.7-1.7 0-1.5 0-1.5 1.4-1.5 1.7 0 1.7 0 1.7 1.7 0 1.5 0 1.5-1.4 1.5z"/><path class="a" d="m71.6 68.5c1.7 0 1.7 0 1.7 1.7 0 1.5 0 1.5-1.4 1.5-1.7 0-1.7 0-1.7-1.6 0-1.6 0-1.6 1.4-1.6z"/><path class="a" d="m54.3 78.1c1.6 0 1.6 0.1 1.6 1.6 0 1.5 0.1 1.5-1.5 1.5-1.7 0-1.7 0-1.7-1.6 0-1.5 0-1.5 1.6-1.5z"/><path class="a" d="m43.2 84.4c0 1.6 0 1.6-1.5 1.6-1.6 0-1.6 0-1.6-1.6 0-1.6 0-1.6 1.6-1.6 1.5 0 1.5 0 1.5 1.6z"/><path fill-rule="evenodd" class="a" d="m59.1 52.7q0 3.1 0 6.2 0 1-0.3 1.9-0.4 0.9-1.1 1.6-0.7 0.7-1.6 1.1-0.9 0.4-1.9 0.3-6.2 0-12.4 0-1 0.1-1.9-0.3-0.9-0.4-1.6-1-0.7-0.7-1-1.7-0.4-0.9-0.4-1.8 0-6.2 0-12.4 0-0.7 0.1-1.4 0.2-0.6 0.6-1.2 0.3-0.6 0.8-1.1 0.5-0.4 1.2-0.7 0.1-0.1 0.2-0.2 0.1-0.1 0.2-0.2 0.1-0.2 0.1-0.3 0-0.2 0-0.3 0-0.5 0-1.1 0-0.5 0.1-1 0-0.5 0.1-1 0.2-0.5 0.3-1c0.7-1.7 1.9-3.1 3.5-4 1.6-0.9 3.5-1.2 5.2-0.9 1.8 0.3 3.5 1.2 4.7 2.6 1.2 1.4 1.8 3.1 1.9 4.9q0 0 0 0.1 0 0 0 0.1 0 0 0 0 0 0.1 0 0.1-0.1 0.4 0 0.8 0 0.4 0.2 0.8 0.2 0.3 0.4 0.6 0.3 0.3 0.7 0.4 0.5 0.3 0.8 0.7 0.4 0.5 0.6 0.9 0.3 0.5 0.4 1.1 0.1 0.5 0.1 1.1c0 2.1 0 4.3 0 6.3zm-12.3-17.3c-3 0.9-3.8 3.4-3.5 5.8 0.1 0.5 0.5 0.3 0.7 0.3 1.3 0 5.7 0 7 0 1.8 0 1.8 0 1.7-1.8q0-1.1-0.5-2-0.5-1-1.4-1.6-0.9-0.6-1.9-0.8-1.1-0.2-2.1 0.1zm9.1 23.3q0 0 0 0 0 0 0 0zm0 0.1q0-6.1 0-12.2c0-1.3-0.6-1.9-1.9-1.9-2 0-10.1 0-12.1 0q-0.4 0-0.7 0.1-0.4 0.1-0.7 0.4-0.2 0.2-0.3 0.6-0.2 0.3-0.1 0.7 0 6.1 0 12.2-0.1 0.4 0.1 0.8 0.1 0.3 0.3 0.6 0.3 0.3 0.7 0.4 0.3 0.1 0.7 0.1 6.1 0 12.2 0 0.4 0 0.7-0.1 0.4-0.1 0.7-0.4 0.2-0.3 0.3-0.6 0.2-0.4 0.1-0.7z"/><path fill-rule="evenodd" class="a" d="m49.7 46.6q0.7 0.3 1.3 0.8 0.6 0.5 1 1.1 0.4 0.7 0.6 1.5 0.2 0.7 0.2 1.4-0.1 0.8-0.4 1.5-0.3 0.7-0.8 1.3-0.5 0.6-1.1 0.9-0.3 0.1-0.4 0.3-0.2 0.2-0.4 0.4-0.1 0.3-0.1 0.5-0.1 0.3 0 0.5c0 2.3 0 2.3-2.3 2.3-0.7 0-1-0.1-0.9-0.9q0-0.1 0-0.2 0-0.2 0-0.3 0-0.2 0-0.3 0-0.2 0-0.3c0.2-0.9-0.1-1.5-1.1-2.1q-0.6-0.4-1.1-1-0.5-0.6-0.8-1.4-0.2-0.7-0.2-1.5 0-0.8 0.3-1.5 0.2-0.7 0.7-1.4 0.4-0.6 1.1-1 0.6-0.5 1.3-0.7 0.8-0.2 1.6-0.2 0.7 0.1 1.5 0.3zm-1.1 6q0.3-0.1 0.5-0.4 0.2-0.2 0.4-0.5 0.1-0.2 0.1-0.6c0-0.6-0.4-1.2-0.9-1.4-0.6-0.3-1.3-0.2-1.8 0.3-0.4 0.4-0.6 1.1-0.3 1.7 0.2 0.6 0.8 1 1.4 1q0.3 0 0.6-0.1z"/></svg>