<svg id="Layer_1" data-name="Layer 1" xmlns="http://www.w3.org/2000/svg" viewBox="0 0 1080 1080"><defs><style>.cls-1{fill:#fff;}</style></defs><path class="cls-1" d="M780.16,470c-35.22-41.62-96.07-85.16-159.77-63.33-26.15,9-41,29.21-56.39,50.41-.56.76-168.42,231.84-168.42,231.84,13.43.47,26.81,1.77,40.18,3.07,3.05.29,6.09.6,9.14.91,41.31,4.15,87.31,11.24,125.64-9,33.88-17.87,57.93-51.44,78.79-82.43,11.64-17.27,24.13-34.24,34.4-52.36,7.3-12.9,14.77-25.72,23.57-37.66C724.39,488.32,749,465.31,780.16,470Z"/><path class="cls-1" d="M798.15,491.48c-20.65-20.86-51-3.76-67.85,14.94-13.37,14.87-28.81,36.28-34.81,55.35-12.81,40.72,17.54,68.69,38.84,100.64l52.36,78.53,69.54,104.32h184.82S798.37,491.7,798.15,491.48Z"/><path class="cls-1" d="M509.9,482.2q21.71-31,43.31-62c11.88-17.08,19.91-25.52,40.95-33.1,41.48-14.94,91.78,5.55,129.8-17.77,27-16.55,40.86-48.49,58-73.55l41.83-61H130.9c-29.18,0-63.08.44-91.95.78A314.83,314.83,0,0,1,56.4,266.65C76.57,307.72,100,346,143.49,364.25c38.15,16,80.94,15.62,121.58,16.95l149.08,4.9c-4.57-.15-23.25,32.16-25.86,35.79C349.44,484,303.62,543.25,260.53,602.53c-28.92,39.78-58.77,98-114.11,102a115.9,115.9,0,0,1-40.93-4c10,65.5,109.86,96.51,164.53,79.91,63.75-17.29,98.78-96,133.46-145.83Q456.58,558.35,509.9,482.2Z"/></svg>