<svg id="Layer_1" data-name="Layer 1" xmlns="http://www.w3.org/2000/svg" viewBox="0 0 1080 1080"><defs><style>.cls-1{fill:#fff;}</style></defs><path class="cls-1" d="M407.47,525.4c-16.89-19.95-46.05-40.82-76.58-30.36-12.54,4.3-19.66,14-27,24.16-.26.37-80.72,111.13-80.72,111.13,6.44.23,12.85.85,19.26,1.47l4.38.44c19.8,2,41.85,5.38,60.22-4.3,16.24-8.57,27.77-24.66,37.77-39.51,5.57-8.28,11.56-16.41,16.48-25.1a177.09,177.09,0,0,1,11.3-18.05C380.73,534.18,392.55,523.15,407.47,525.4Z"/><path class="cls-1" d="M416.09,535.69c-9.9-10-24.46-1.8-32.52,7.16-6.41,7.13-13.81,17.39-16.69,26.54-6.14,19.51,8.41,32.92,18.62,48.23l25.09,37.64,33.34,50h88.58S416.19,535.8,416.09,535.69Z"/><path class="cls-1" d="M277.93,531.25q10.4-14.85,20.75-29.73c5.7-8.18,9.55-12.23,19.63-15.86,19.89-7.16,44,2.66,62.22-8.52,12.94-7.93,19.58-23.24,27.81-35.26l20.05-29.25H96.26c-14,0-30.23.21-44.07.37a149.45,149.45,0,0,1,8.36,14.93c9.67,19.68,20.9,38,41.75,46.78,18.29,7.69,38.79,7.48,58.27,8.12L232,485.18c-2.19-.07-11.14,15.42-12.4,17.16-18.62,29.78-40.58,58.17-61.23,86.58-13.87,19.07-28.17,47-54.7,48.91a55.33,55.33,0,0,1-19.62-1.92c4.82,31.4,52.66,46.26,78.86,38.3,30.56-8.28,47.35-46,64-69.89Q252.37,567.73,277.93,531.25Z"/><path class="cls-1" d="M507.18,465.32h-34.7l2.22-13.88h85.65l-2.22,13.88H523.28l-13,82.6h-16.1Z"/><path class="cls-1" d="M559.31,545.35a30.59,30.59,0,0,1-12.63-14.16,35.28,35.28,0,0,1-2.43-19.64,43.48,43.48,0,0,1,8.67-19.72,49.46,49.46,0,0,1,17.08-14,48,48,0,0,1,21.86-5.13q12.21,0,20.82,5.13a29.73,29.73,0,0,1,12.43,14,36.3,36.3,0,0,1,2.29,19.72,43.88,43.88,0,0,1-8.68,19.64,49.48,49.48,0,0,1-17.14,14.16,47.86,47.86,0,0,1-21.93,5.2A38.76,38.76,0,0,1,559.31,545.35ZM595,533.41a32.35,32.35,0,0,0,10.82-9.16,28.11,28.11,0,0,0,5.49-12.7,24.16,24.16,0,0,0-1-13,18.18,18.18,0,0,0-7.35-9,23.17,23.17,0,0,0-12.63-3.26,30.13,30.13,0,0,0-13.89,3.33,30.83,30.83,0,0,0-10.83,9.1,29.77,29.77,0,0,0-5.55,12.84,22.42,22.42,0,0,0,.9,12.77,18.65,18.65,0,0,0,7.57,9.16,23.19,23.19,0,0,0,12.63,3.33A29.2,29.2,0,0,0,595,533.41Z"/><path class="cls-1" d="M645.86,475.31h16l-11.39,72.61h-16ZM649.61,515q2.5-13.61,8.4-23.19t13.4-14.36a28,28,0,0,1,15.27-4.79,19,19,0,0,1,19.64,15.06,37,37,0,0,1,.07,16.45H690.56q1.53-8.06-1.11-13t-9-4.93a18.81,18.81,0,0,0-10.62,3.4,29.81,29.81,0,0,0-8.89,9.93A45.73,45.73,0,0,0,655.58,515Z"/><path class="cls-1" d="M724.43,545.42a29.16,29.16,0,0,1-10.89-14,37.69,37.69,0,0,1-1.74-19.58,48.47,48.47,0,0,1,7.64-19.92,45.17,45.17,0,0,1,14.64-14.09,35.58,35.58,0,0,1,18.4-5.13A27.67,27.67,0,0,1,769.34,478a29.88,29.88,0,0,1,10.41,14.23,39,39,0,0,1,1.6,19.64A50.1,50.1,0,0,1,774,531.4a43.56,43.56,0,0,1-14.16,14,34.71,34.71,0,0,1-18.32,5.13A29.53,29.53,0,0,1,724.43,545.42Zm36-11.18a29.41,29.41,0,0,0,9.78-9.37,32.53,32.53,0,0,0,5.07-13.32,23.75,23.75,0,0,0-1.39-13.12,20.44,20.44,0,0,0-7.63-9.3,20.88,20.88,0,0,0-11.8-3.4,24.3,24.3,0,0,0-12.22,3.33,28.05,28.05,0,0,0-9.65,9.16,34.36,34.36,0,0,0-5.06,13.33,25.3,25.3,0,0,0,1.25,13.32,19.51,19.51,0,0,0,7.49,9.37,20.86,20.86,0,0,0,11.8,3.4A24.14,24.14,0,0,0,760.39,534.24Zm20.54-58.93h15.83L780.24,578.87h-16Z"/><path class="cls-1" d="M808.76,542.23q-5.76-8.34-3.26-24.58l6.67-42.34H828L821.19,519q-1.4,8.06,2,13T834.52,537a27.54,27.54,0,0,0,13.67-3.61,33.11,33.11,0,0,0,11-10.2,41.2,41.2,0,0,0,6.38-15.48l5.69,2.22a52.52,52.52,0,0,1-8.81,21.31,47.92,47.92,0,0,1-15.69,14.3A38.12,38.12,0,0,1,828,550.55Q814.54,550.55,808.76,542.23Zm61.85-66.92h16l-11.39,72.61h-16Z"/><path class="cls-1" d="M907.26,545.56A28.73,28.73,0,0,1,895,531.68q-3.75-8.89-1.66-20.13A43.4,43.4,0,0,1,902.05,492,50.47,50.47,0,0,1,919,477.88a46,46,0,0,1,21.45-5.2q12.9,0,21.17,5.55a27.74,27.74,0,0,1,11.24,14.51A37.35,37.35,0,0,1,974,511.55a26.57,26.57,0,0,1-1.8,6.1H908.51q-.84,8.9,5.2,14.1t16.73,5.2a32.7,32.7,0,0,0,13.47-2.85,35.71,35.71,0,0,0,10.83-7.28l11,7.35A46.12,46.12,0,0,1,949,546.11a53.16,53.16,0,0,1-21.44,4.44Q915.72,550.55,907.26,545.56ZM959,506.13a17.78,17.78,0,0,0-1.32-9.65,16.46,16.46,0,0,0-6.8-7.56A22.21,22.21,0,0,0,939.19,486a29.09,29.09,0,0,0-17.29,5.49,31.88,31.88,0,0,0-11.31,14.64Z"/><path class="cls-1" d="M638.71,589.76h6.87l11.22,31.43h-5.66l-2.3-6.65H635.41l-2.27,6.65h-5.87Zm8.59,20.35-5.25-14.92-5.24,14.92Z"/><path class="cls-1" d="M665.48,597.81v23.38h-5V589.76H667l10,23.43,11.08-23.43h6.33v31.43h-5.11V597.67l-10.49,23.52h-3.94Z"/><path class="cls-1" d="M699.17,589.76h5.25v31.43h-5.25Zm1.58,14H710q5.93,0,9.23,1.92a7.29,7.29,0,0,1,3.71,5.9,7.44,7.44,0,0,1-1.06,4.71,9.45,9.45,0,0,1-4,3.55,14.53,14.53,0,0,1-6.47,1.33h-11Zm.28-14h10.53q5.38,0,7.8,2.51a8.25,8.25,0,0,1,2.29,6.31q-.18,3.79-4,5.76a22,22,0,0,1-10,2h-7.14Zm9.4,27a9.2,9.2,0,0,0,5.16-1.24,4.53,4.53,0,0,0,2-3.6,4,4,0,0,0-1.4-3.39,6.74,6.74,0,0,0-4.57-1.31h-9.36l0,9.54Zm0-13.34a7.26,7.26,0,0,0,4.46-1.18,4.29,4.29,0,0,0,1.69-3.34,3.9,3.9,0,0,0-1.33-3.55,6.73,6.73,0,0,0-4.37-1.25h-8.5l.45,9.32Z"/><path class="cls-1" d="M727.8,589.76H733v31.43h-5.2Z"/><path class="cls-1" d="M738.47,589.76h5.25v31.43h-5.25Zm1.85,0h8.91a16.12,16.12,0,0,1,7.31,1.52,10.59,10.59,0,0,1,4.5,4,11.59,11.59,0,0,1,1.58,5.61,11.28,11.28,0,0,1-1.54,6.24,11.14,11.14,0,0,1-4.79,4.28,17.22,17.22,0,0,1-7.51,1.6h-8.95Zm9,18.77a8.28,8.28,0,0,0,6-2.06,6.84,6.84,0,0,0,2-5.58,6.29,6.29,0,0,0-2.33-4.89,8.64,8.64,0,0,0-5.58-1.76h-7.73l-.14,14.29Z"/><path class="cls-1" d="M766,589.76h5.24V616.4h16v4.79H766Z"/><path class="cls-1" d="M799.84,589.76h6.87l11.22,31.43h-5.65L810,614.54H796.54l-2.26,6.65H788.4Zm8.59,20.35-5.24-14.92-5.25,14.92Z"/><path class="cls-1" d="M829.82,594.28h-11.3v-4.52h27.9v4.52H835.07v26.91h-5.25Z"/><path class="cls-1" d="M848.18,589.76h20.58l0,4.89H853.43v10.53h13.88l-.09,4.89H853.43v11.12h-5.25Z"/><path class="cls-1" d="M878,619.92a14.28,14.28,0,0,1-5.52-5.78,16.65,16.65,0,0,1-1.83-8.19,17,17,0,0,1,2.15-8.05,15.6,15.6,0,0,1,5.74-5.92,17.17,17.17,0,0,1,16.67-.12,14.18,14.18,0,0,1,5.49,5.79,17.35,17.35,0,0,1,1.88,8.3,16.63,16.63,0,0,1-2.22,8.12,15.7,15.7,0,0,1-5.81,5.83,17.07,17.07,0,0,1-16.55,0Zm14-4.16a10.36,10.36,0,0,0,3.76-4.16,13.26,13.26,0,0,0,1.42-5.65,12.44,12.44,0,0,0-1.15-5.81,9.85,9.85,0,0,0-3.62-4.12,10.23,10.23,0,0,0-5.63-1.51,9.63,9.63,0,0,0-5.45,1.6,11.26,11.26,0,0,0-3.78,4.23,13,13,0,0,0-1.44,5.61,12.15,12.15,0,0,0,1.1,5.9,9.36,9.36,0,0,0,3.62,4,10.41,10.41,0,0,0,5.54,1.45A10.22,10.22,0,0,0,892,615.76Z"/><path class="cls-1" d="M907.06,589.76h5.3v31.43h-5.3Zm3.12,16.69-.09-16.69h7.29a13.76,13.76,0,0,1,6.35,1.29,10,10,0,0,1,4.11,3.57,9.12,9.12,0,0,1,1.43,5,8.89,8.89,0,0,1-2.67,6.69,11.67,11.67,0,0,1-7.51,2.94l12.3,11.94h-6.73Zm6.88-.82a7.39,7.39,0,0,0,5.06-1.58,5.27,5.27,0,0,0,1.72-4.39,5,5,0,0,0-1.9-4,7.84,7.84,0,0,0-4.84-1.25h-5.88l0,11.26Z"/><path class="cls-1" d="M939,597.81v23.38h-5V589.76h6.55l9.95,23.43,11.08-23.43h6.34v31.43h-5.12V597.67l-10.49,23.52h-3.93Z"/><path class="cls-1" d="M977.5,620.63a12.17,12.17,0,0,1-4.93-3.85,9.75,9.75,0,0,1-1.92-5.49h5.06a7.19,7.19,0,0,0,2.79,4.54,10,10,0,0,0,6,1.74,12.21,12.21,0,0,0,6.36-1.33,4.29,4.29,0,0,0,2.37-3.73,3.48,3.48,0,0,0-2-3.19,17.93,17.93,0,0,0-6.74-1.47q-6.11-.54-9.21-2.83a7.2,7.2,0,0,1-3-6.21,7.54,7.54,0,0,1,1.68-4.62,10.68,10.68,0,0,1,4.45-3.25,16.41,16.41,0,0,1,6.4-1.18,15.9,15.9,0,0,1,6.85,1.4,12.2,12.2,0,0,1,4.7,3.76,11.67,11.67,0,0,1,2.2,5.2h-5.38a7.27,7.27,0,0,0-2.67-4.16,9,9,0,0,0-5.7-1.63,10.71,10.71,0,0,0-3.91.65,5.85,5.85,0,0,0-2.51,1.75,3.6,3.6,0,0,0-.86,2.3,3.34,3.34,0,0,0,1.44,2.83,9.64,9.64,0,0,0,4.66,1.38l1.09.09q7.41.54,10.69,2.87a7.33,7.33,0,0,1,3.33,6.17,8.09,8.09,0,0,1-1.61,4.84,10.83,10.83,0,0,1-4.77,3.53,19.63,19.63,0,0,1-7.51,1.31A17.54,17.54,0,0,1,977.5,620.63Z"/></svg>